<svg width="78" height="96" viewBox="0 0 78 96" fill="none" xmlns="http://www.w3.org/2000/svg">
<path fill-rule="evenodd" clip-rule="evenodd" d="M38.8618 0.013466C41.313 0.0374057 42.9632 0.121195 43.8839 0.240893C44.6372 0.348622 45.821 0.552109 46.5145 0.683777C47.2081 0.815445 48.3082 1.06681 48.9658 1.23439C49.6235 1.39 50.7953 1.73712 51.5725 2.00046C52.3378 2.25183 53.2944 2.62289 54.4065 3.18547L53.8564 3.70018C53.5455 3.97548 52.9118 4.71761 52.4454 5.34005C51.9791 5.96248 51.3932 6.86022 51.154 7.31507C50.9149 7.76992 50.5562 8.64372 50.3529 9.23024C50.1616 9.81677 49.9105 10.7624 49.8148 11.325C49.7072 11.8875 49.5876 12.3663 49.5278 12.4023C49.468 12.4382 49.1332 12.6536 48.7865 12.881C48.4397 13.1085 47.4472 13.683 46.5863 14.1498C45.7253 14.6167 44.9959 14.9877 44.9601 14.9638C44.9242 14.9399 45.0916 14.5568 45.3427 14.1139C45.5819 13.6591 45.9047 12.9768 46.0602 12.5818C46.2276 12.1868 46.4906 11.325 46.67 10.6666C46.8374 10.0083 47.0407 8.97888 47.1244 8.39235C47.1961 7.80583 47.22 6.93203 47.1842 6.47718C47.1363 5.98642 46.9928 5.41186 46.8374 5.10065C46.6341 4.69367 46.4787 4.5261 46.1558 4.43034C45.833 4.32261 45.5819 4.33458 45.0438 4.45428C44.6731 4.55004 43.9676 4.8014 43.5013 5.02883C43.023 5.25626 42.1979 5.72308 41.6718 6.07021C41.1456 6.41733 40.2727 7.13552 39.7466 7.66219C39.2085 8.20084 38.4552 9.12252 38.0726 9.70904C37.6899 10.2956 37.1399 11.313 36.8649 11.9594C36.5779 12.5938 36.2431 13.5394 36.1115 14.0421C35.98 14.5568 35.8246 15.3588 35.7528 15.8137C35.693 16.2685 35.6332 17.1064 35.6332 17.669C35.6332 18.2316 35.693 18.9019 35.7528 19.1652C35.8126 19.4285 35.8126 19.6919 35.7648 19.7637C35.705 19.8355 35.131 20.2425 34.4853 20.6734C33.8277 21.1043 32.8472 21.7268 32.2852 22.0739C31.7232 22.409 31.2329 22.6843 31.1731 22.6963C31.1253 22.6963 31.1851 22.5168 31.3166 22.3133C31.4362 22.0978 31.6873 21.5472 31.8666 21.0804C32.046 20.6136 32.333 19.656 32.5004 18.9258C32.7515 17.8126 32.7993 17.2979 32.8113 15.5743C32.8232 13.9583 32.7754 13.3957 32.62 12.8451C32.5004 12.4741 32.2612 11.9953 32.0819 11.7918C31.7949 11.4686 31.6634 11.4088 31.1492 11.4088C30.7187 11.4088 30.348 11.5045 29.8339 11.7678C29.4393 11.9713 28.686 12.4621 28.1598 12.8571C27.6337 13.2521 26.8445 13.9583 26.4021 14.4252C25.9477 14.892 25.314 15.67 24.9791 16.1488C24.6443 16.6156 24.1421 17.4655 23.8551 18.0281C23.5801 18.5907 23.1975 19.4525 23.0301 19.9433C22.8507 20.434 22.5996 21.3796 22.4681 22.038C22.3365 22.6963 22.1931 23.9891 22.1572 24.9107C22.1094 26.2154 22.1333 26.7421 22.2887 27.3047C22.3844 27.6997 22.4681 28.0229 22.4442 28.0349C22.4322 28.0349 22.0974 28.2383 21.7028 28.4777C21.3082 28.7052 20.4353 29.1481 19.7657 29.4473C19.0841 29.7466 17.4938 30.357 16.2382 30.7879C14.9707 31.2188 13.225 31.9131 12.376 32.3201C11.527 32.739 10.3671 33.4213 9.80512 33.8283C9.24312 34.2472 8.25065 35.109 6.39724 36.9404L6.12222 35.7075C5.97873 35.0372 5.79937 34.0557 5.71567 33.529C5.64392 33.0023 5.57218 31.4463 5.57218 30.0578C5.56022 28.5256 5.62001 27.1252 5.71567 26.4668C5.81133 25.8803 6.01461 24.7432 6.18201 23.9531C6.34941 23.1631 6.69618 21.8824 6.94729 21.1163C7.1984 20.3383 7.65278 19.1532 7.96367 18.4829C8.26261 17.8006 8.80069 16.7114 9.17138 16.0531C9.5301 15.3947 10.1878 14.3414 10.6182 13.7189C11.0487 13.0965 11.6944 12.1988 12.0651 11.7439C12.4238 11.2891 13.3445 10.2716 14.1098 9.48161C14.8631 8.70357 16.0469 7.61432 16.7405 7.05173C17.434 6.48915 18.558 5.66323 19.2515 5.20838C19.9451 4.74155 21.3082 3.97548 22.3007 3.48472C23.2812 3.00593 24.6324 2.40743 25.29 2.16804C25.9477 1.91667 27.1315 1.53364 27.9207 1.31818C28.7099 1.09075 30.1089 0.755597 31.0296 0.588019C31.9503 0.420441 33.2657 0.216954 33.9592 0.121195C34.8441 0.0134662 36.2789 -0.0224435 38.8618 0.013466ZM64.9769 8.42827L65.6465 8.48811C66.0052 8.53599 66.6509 8.66766 67.0814 8.79933C67.5118 8.931 68.1934 9.24221 68.6119 9.49358C69.0185 9.74495 69.6642 10.2477 70.0229 10.6068C70.3936 10.9659 70.8719 11.5644 71.0871 11.9235C71.3143 12.2826 71.6372 13.0127 71.8285 13.5394C72.1274 14.4012 72.1633 14.6406 72.1633 16.0531C72.1514 17.2022 72.0916 17.8006 71.9361 18.3273C71.8165 18.7223 71.6013 19.2849 71.4459 19.5842C71.3024 19.8834 71.0393 20.3023 70.549 20.9008L71.1469 23.3307C71.4698 24.6594 71.8524 26.4189 71.9959 27.2449C72.2231 28.5615 72.235 28.8728 72.1155 29.9141C72.0437 30.5485 71.9839 31.4343 71.9839 31.8892C71.9839 32.6432 72.1035 32.9784 74.1243 38.0776C75.3081 41.0461 76.6593 44.4575 77.1257 45.6784C77.9148 47.7013 77.9986 47.9766 77.9986 48.7906C78.0105 49.4728 77.9507 49.8319 77.7474 50.2868C77.592 50.61 77.2452 51.1127 76.9702 51.4C76.6952 51.6753 76.2288 52.0105 75.9299 52.1302C75.619 52.2618 74.9016 52.4055 73.0362 52.5611L73.1199 54.4164C73.2036 56.0443 73.1917 56.3555 73.0003 56.9301C72.8449 57.3969 72.6057 57.756 71.6252 58.7255L71.8524 59.1684C71.972 59.4198 72.1035 59.8866 72.1394 60.2218C72.1753 60.545 72.1514 61.0597 72.0916 61.3589C72.0198 61.6581 71.8165 62.2088 71.6133 62.5798C71.41 62.9988 71.2665 63.4536 71.2665 63.717C71.2785 63.9683 71.3502 64.5189 71.4459 64.9499C71.5415 65.3808 71.6133 66.2067 71.6252 66.8052C71.6252 67.4037 71.5415 68.2057 71.4459 68.6007C71.3382 68.9957 71.0871 69.6061 70.8719 69.9652C70.6567 70.3123 70.2142 70.839 69.8914 71.1383C69.5566 71.4375 68.9228 71.8565 68.4565 72.0719C67.9902 72.2993 67.2966 72.5507 66.902 72.6584C66.5074 72.7542 65.7063 72.8978 65.1084 72.9697C64.3192 73.0654 63.53 73.0654 62.119 72.9697C61.0668 72.8978 59.4286 72.7303 58.472 72.5986C57.5154 72.4789 56.6306 72.3712 56.499 72.3712C56.2838 72.3712 56.2001 72.6704 55.5663 75.7467C55.1837 77.6139 54.6815 80.1037 54.4663 81.2887C54.2391 82.4737 53.9999 84.1136 53.9401 84.9395C53.8684 85.8851 53.8564 86.8547 53.9282 87.5729C53.988 88.1953 54.1434 89.0092 54.2749 89.3683C54.3945 89.7274 54.6815 90.4576 54.8848 90.9843C55.2076 91.7623 55.2794 92.0975 55.2794 92.7797C55.2674 93.2466 55.1957 93.7972 55.088 94.0366C54.9924 94.264 54.7532 94.6351 54.5739 94.8625C54.3826 95.0899 53.976 95.3892 53.6532 95.5448C53.3423 95.7004 52.7324 95.8799 52.278 95.9398C51.7878 96.0116 51.0105 96.0236 50.2811 95.9517C49.6235 95.8919 48.6071 95.7602 48.0092 95.6645C47.4114 95.5567 46.2634 95.3054 45.4384 95.1139C44.6133 94.9104 43.4893 94.6111 42.9273 94.4316C42.3653 94.264 41.05 93.7852 39.9977 93.3782C38.9455 92.9593 36.7094 92.0256 35.0354 91.2835C33.3613 90.5414 31.1492 89.5958 30.1328 89.1648C29.1164 88.7459 27.5261 88.1235 26.6054 87.8003C25.6846 87.4651 24.2019 86.9863 23.3171 86.723C22.4322 86.4597 21.0332 86.1245 20.2081 85.9569C19.3831 85.8013 17.8764 85.6098 16.86 85.538C15.7839 85.4662 14.7316 85.3225 14.3609 85.2028C13.8946 85.0592 13.5478 84.8318 13.1771 84.4607C12.8902 84.1614 12.5075 83.6228 12.3401 83.2637C12.0531 82.6772 12.0173 82.4737 12.0173 81.2887C12.0173 80.0678 12.0531 79.9241 12.364 79.3137C12.5553 78.9546 12.9619 78.392 13.2608 78.0688C13.5598 77.7576 14.2892 77.1112 14.8631 76.6324C15.449 76.1656 16.1426 75.4833 16.4176 75.1242C16.6807 74.7651 17.0513 74.1427 17.2427 73.7477C17.422 73.3527 17.6612 72.6225 17.7688 72.1318C17.9003 71.5452 17.9482 70.9707 17.9003 70.456C17.8645 70.0251 17.721 69.3787 17.5894 69.0196C17.4579 68.6605 16.9198 67.7388 16.3817 66.9847C15.6284 65.9074 15.3893 65.4646 15.2936 64.9499C15.2219 64.5908 15.1979 63.9683 15.2338 63.5733C15.2816 63.1783 15.4251 62.6157 15.5567 62.3165C15.7241 61.9335 16.3937 61.1913 17.8047 59.8028C19.3113 58.3066 19.8972 57.6483 20.1842 57.1096C20.3875 56.7146 20.6386 56.0204 20.7462 55.5535C20.8897 54.955 20.9375 54.4164 20.8897 53.6384C20.8299 52.6808 20.7701 52.4533 20.3396 51.6035C20.0766 51.0768 19.4189 50.1073 18.8808 49.4489C18.3428 48.7906 17.8166 48.0604 17.6971 47.833C17.5775 47.6056 17.3981 47.0909 17.2905 46.6958C17.1829 46.3008 17.0992 45.7742 17.0992 45.5228C17.0992 45.2834 17.2307 44.6849 17.3862 44.2181C17.5416 43.7393 17.8166 43.0211 17.9721 42.6261C18.1753 42.1473 18.259 41.7882 18.2112 41.5488C18.1753 41.3573 18.0797 41.1179 18.0079 41.0221C17.9362 40.9384 17.6731 40.7588 17.422 40.6391C17.1829 40.5074 16.8361 40.4117 16.6448 40.4117C16.4654 40.3997 16.1904 40.5074 16.023 40.6271C15.8556 40.7468 15.473 41.2735 15.1621 41.8002C14.8631 42.3149 14.5164 43.0211 14.4087 43.3443C14.2772 43.7034 14.1696 44.4695 14.1337 45.2595C14.0979 46.0614 14.1457 46.9233 14.2294 47.4739C14.325 48.0365 14.5522 48.7068 14.8392 49.2694C15.1023 49.7721 15.7002 50.622 16.1904 51.1845C16.6926 51.7471 17.2427 52.4773 17.422 52.8005C17.6851 53.2793 17.7449 53.5546 17.7449 54.177C17.7329 54.7515 17.6612 55.1346 17.434 55.6134C17.2347 56.0523 16.86 56.5311 16.31 57.0498C15.8556 57.4807 14.9707 58.3425 14.349 58.9649C13.5239 59.7909 13.1054 60.3175 12.8304 60.8801C12.6151 61.311 12.364 61.9813 12.2684 62.3763C12.1607 62.7713 12.077 63.5494 12.077 64.112C12.077 64.8062 12.1488 65.3927 12.3281 65.9673C12.4597 66.4341 12.7467 67.0805 12.938 67.4037C13.1413 67.7388 13.5598 68.3253 13.8707 68.7204C14.1696 69.1154 14.4924 69.654 14.5881 69.9173C14.6838 70.2286 14.7196 70.7073 14.6838 71.2939C14.6359 71.8565 14.5283 72.3712 14.3729 72.6704C14.2413 72.9337 13.9185 73.3407 13.6674 73.5801C13.4163 73.8075 12.8423 74.2983 12.3879 74.6574C11.9336 75.0165 11.24 75.6509 10.8574 76.0818C10.403 76.5845 9.96057 77.2429 9.62576 77.9371C9.33878 78.5356 9.0518 79.3017 8.98006 79.6488C8.90831 79.984 8.84853 80.7141 8.84853 81.2647C8.84853 81.8034 8.92027 82.5455 9.01593 82.9046C9.11159 83.2637 9.21921 83.6587 9.25508 83.7784C9.31487 83.934 9.17138 84.0537 8.63329 84.3171C8.0115 84.6163 7.83214 84.6402 6.63639 84.6283C5.54826 84.6283 5.18954 84.5684 4.54384 84.329C4.11337 84.1734 3.45571 83.8502 3.06111 83.6228C2.67847 83.3954 2.09256 82.9046 1.74579 82.5455C1.41098 82.1745 0.968555 81.552 0.753321 81.169C0.550044 80.774 0.28698 80.1037 0.19132 79.6728C0.083703 79.2418 0 78.5715 0 78.1765C0 77.7815 0.0717441 77.1112 0.167404 76.6803C0.251106 76.2494 0.478299 75.603 0.657661 75.2439C0.837023 74.8848 1.14792 74.3462 1.35119 74.0469C1.55447 73.7477 2.11647 73.0893 2.59477 72.5866C3.07307 72.0719 3.55137 71.4614 3.64703 71.234C3.74269 71.0066 3.82639 70.5158 3.82639 70.1567C3.82639 69.7019 3.74269 69.3188 3.53941 68.9358C3.38396 68.6126 2.86979 67.9303 2.40345 67.4037C1.93711 66.877 1.39902 66.1468 1.2077 65.7877C1.01639 65.4286 0.765277 64.8062 0.645702 64.4112C0.502213 63.9324 0.43047 63.2741 0.43047 62.4362C0.43047 61.3469 0.478299 61.0477 0.789193 60.1619C0.980513 59.5993 1.38707 58.7734 1.69796 58.3066C1.9969 57.8398 2.77413 56.9061 3.40788 56.2119C4.05358 55.5176 4.79494 54.6319 5.05801 54.2368C5.33303 53.8418 5.69175 53.1715 5.85916 52.7406C6.14614 51.9745 6.1581 51.9027 6.17005 48.5512C6.17005 45.3672 6.19397 45.0799 6.44507 44.242C6.58856 43.7513 6.92337 42.9134 7.17448 42.3867C7.43754 41.86 7.9278 41.0221 8.27457 40.5314C8.62133 40.0406 9.27899 39.2386 9.74533 38.7479C10.1997 38.2571 11.0128 37.5389 11.539 37.1439C12.0651 36.7609 13.0815 36.1504 13.8109 35.8033C14.5283 35.4562 16.1187 34.8337 17.3383 34.4148C18.558 34.0078 20.3038 33.3495 21.2245 32.9545C22.1452 32.5714 23.329 32.0328 23.8551 31.7695C24.3813 31.5061 25.4814 30.9076 26.3064 30.4408C27.1315 29.986 29.6784 28.4538 31.9862 27.0294C34.2821 25.617 36.5061 24.2165 36.9127 23.9292C37.3312 23.6539 37.7497 23.4145 37.8454 23.4145C37.941 23.4145 38.2519 23.5701 38.527 23.7497C38.8139 23.9412 39.3879 24.2883 39.8184 24.5277C40.2488 24.7671 41.0739 25.1142 41.6718 25.3177C42.2696 25.5092 43.2023 25.7367 43.7643 25.7965C44.3263 25.8683 45.2112 25.9282 45.7373 25.9282C46.2634 25.9282 47.232 25.8444 47.8897 25.7606C48.5473 25.6648 49.0974 25.605 49.1093 25.6409C49.1332 25.6648 48.9897 26.0838 48.7865 26.5506C48.5951 27.0294 48.1527 27.8793 47.8059 28.4418C47.4592 29.0044 46.7178 29.9381 46.1558 30.5246C45.5938 31.0991 44.7927 31.8173 43.585 32.6073L43.3219 34.2712C43.1784 35.2407 42.9273 36.2941 42.724 36.8088C42.4729 37.4671 42.2099 37.886 41.6718 38.4606C41.1935 38.9753 40.7152 39.3583 40.2369 39.5858C39.7825 39.8132 39.2564 39.9688 38.802 40.0047C38.3715 40.0406 37.8693 40.0047 37.0323 39.7533L36.7214 38.7359C36.542 38.1733 36.2789 37.503 36.1115 37.2397C35.9561 36.9763 35.6452 36.5215 35.4061 36.2342C35.1669 35.9469 34.6527 35.4801 34.2581 35.1928C33.8635 34.9175 33.1222 34.5465 32.608 34.3789C31.9145 34.1395 31.4362 34.0677 30.6948 34.0677C30.1567 34.0677 29.3915 34.1515 28.9969 34.2472C28.6023 34.3549 27.9566 34.5943 27.562 34.7859C27.1674 34.9893 26.5575 35.3963 26.1988 35.7195C25.852 36.0307 25.302 36.6531 25.0031 37.12C24.6922 37.5868 24.2976 38.3888 24.1182 38.9154C23.9388 39.4421 23.7475 40.2441 23.6758 40.7109C23.616 41.1777 23.5562 41.8959 23.5562 42.3269C23.5562 42.7578 23.6399 43.5597 23.7356 44.1223C23.8312 44.6849 23.9986 45.4151 24.1063 45.7383C24.2139 46.0734 24.4411 46.6121 24.6085 46.9352C24.7639 47.2704 25.314 48.204 25.8281 49.03C26.3303 49.8559 26.9163 50.8494 27.1076 51.2444C27.3109 51.6394 27.5859 52.3336 27.7294 52.8005C27.8729 53.2673 28.0283 54.0453 28.0642 54.5361C28.1 55.0508 28.0761 55.7929 27.9924 56.2717C27.9087 56.7385 27.6935 57.4807 27.5141 57.9475C27.3348 58.4143 26.976 59.1086 26.7249 59.4916C26.4619 59.8866 25.7444 60.7484 25.1226 61.4068C24.3693 62.2088 23.8791 62.8551 23.6519 63.3339C23.4725 63.7289 23.2812 64.3274 23.2453 64.6506C23.1975 64.9858 23.2214 65.5244 23.3051 65.8476C23.3768 66.1827 23.7595 66.9847 24.1541 67.6431C24.5487 68.3014 24.9911 69.1393 25.1226 69.4984C25.302 69.9413 25.3977 70.5398 25.4455 71.3537C25.4933 72.3233 25.4455 72.7422 25.2422 73.5681C25.0987 74.1307 24.7639 75.0165 24.5128 75.5432C24.2497 76.0698 23.7595 76.8479 23.4127 77.2788C23.0779 77.7097 22.492 78.2962 22.1333 78.5955C21.7626 78.8947 21.0571 79.3615 20.5668 79.6368C20.0766 79.9241 19.2635 80.3072 18.7732 80.5107C18.283 80.7022 17.7329 81.0134 17.5536 81.1929C17.3622 81.3844 17.1829 81.7196 17.147 81.947C17.0992 82.1745 17.0992 82.4976 17.135 82.6652C17.1948 82.9405 17.2785 82.9764 18.0797 83.0602C18.558 83.1201 19.5146 83.2637 20.2081 83.3954C20.9016 83.527 22.1691 83.8143 23.0181 84.0417C23.8671 84.2692 25.4096 84.724 26.426 85.0712C27.4424 85.4063 28.7936 85.8851 29.4154 86.1365C30.0372 86.3878 32.4286 87.4172 34.7364 88.4107C37.0323 89.4162 39.5673 90.4935 40.3564 90.8047C41.1456 91.1159 42.4131 91.5708 43.1665 91.8221C43.9198 92.0615 45.1394 92.4087 45.8569 92.6002C46.5743 92.7917 47.794 93.055 48.5473 93.1867C49.3006 93.3184 50.4605 93.4381 51.1301 93.462C52.0748 93.486 52.3857 93.462 52.5411 93.3184C52.6487 93.2226 52.7563 93.0191 52.7922 92.8755C52.8281 92.7079 52.6487 92.1453 52.3259 91.4391C52.0389 90.7927 51.716 89.8711 51.6084 89.3923C51.4769 88.7818 51.4171 87.9319 51.4171 86.4716C51.4171 84.8198 51.4769 84.0537 51.716 82.6652C51.8834 81.7076 52.3857 79.0743 52.852 76.8C53.3183 74.5257 53.689 72.4669 53.689 72.2155C53.689 71.9043 53.6412 71.7727 53.5097 71.7727C53.414 71.7727 52.6726 71.6051 51.8595 71.4136C51.0584 71.2101 49.9224 70.8749 49.3245 70.6714C48.7267 70.4679 47.6027 70.0131 46.8135 69.654C46.0243 69.2949 44.8405 68.6844 44.1828 68.2894C43.5252 67.9064 42.5088 67.2122 41.9109 66.7693C41.313 66.3264 40.4402 65.5962 39.9499 65.1294C39.4716 64.6745 38.8139 63.9683 38.503 63.5733C38.1921 63.1783 37.6301 62.3763 37.2595 61.7778C36.7094 60.904 36.5898 60.6048 36.5898 60.1859C36.5898 59.7909 36.6616 59.5993 36.9366 59.324C37.1758 59.0846 37.403 58.9649 37.6541 58.9649C37.8573 58.9649 38.1563 59.0248 38.3237 59.0846C38.4911 59.1445 38.7183 59.3719 38.8259 59.5754C38.9455 59.7789 39.3042 60.3534 39.639 60.8562C39.9618 61.3589 40.5836 62.1489 41.0141 62.6038C41.4446 63.0586 42.1979 63.7529 42.6882 64.1479C43.1784 64.5429 44.0633 65.1892 44.6611 65.5843C45.259 65.9793 46.4906 66.6735 47.4114 67.1164C48.3321 67.5712 49.8268 68.1817 50.7236 68.481C51.6323 68.7802 53.1629 69.1752 54.1315 69.3787C55.112 69.5702 56.9773 69.8695 58.2926 70.049C60.2537 70.3123 61.1624 70.3842 63.3148 70.3842C65.4671 70.3961 66.065 70.3602 66.6031 70.1926C66.9618 70.0849 67.5238 69.8096 67.8586 69.5941C68.1815 69.3787 68.5761 68.9837 68.7196 68.7204C68.863 68.457 69.0544 67.9663 69.1261 67.6431C69.2457 67.1403 69.2218 66.8291 69.0424 65.7877C68.9109 65.0935 68.8152 64.1239 68.8272 63.6332C68.8391 62.8312 68.8989 62.6157 69.3533 61.6581C69.7599 60.7963 69.8436 60.4971 69.7957 60.1619C69.7479 59.9345 69.5925 59.6472 69.449 59.5275C69.2576 59.3839 68.9826 59.3121 68.5761 59.324C68.2413 59.324 67.6793 59.3958 67.3205 59.4796C66.9618 59.5634 66.5433 59.6113 66.3879 59.5993C66.2444 59.5754 65.9933 59.3958 65.8259 59.2043C65.6465 58.9889 65.5269 58.6896 65.5269 58.4502C65.515 58.2467 65.6226 57.9236 65.7661 57.732C65.8976 57.5525 66.1487 57.337 66.3281 57.2413C66.5194 57.1575 66.9857 57.0138 67.3803 56.9301C67.7749 56.8463 68.6119 56.7146 69.2337 56.6188C70.1664 56.4991 70.4056 56.4154 70.5849 56.1879C70.7523 55.9844 70.7882 55.8049 70.7404 55.4937C70.7045 55.2663 70.6328 54.4164 70.4893 52.1302L67.9782 52.2977L67.5836 51.9506C67.2966 51.6992 67.1651 51.4598 67.1173 51.1247C67.0694 50.7895 67.1053 50.5382 67.2488 50.2868C67.3564 50.0953 67.5716 49.8559 67.7151 49.7601C67.8586 49.6644 68.2771 49.5686 68.6359 49.5447C68.9946 49.5088 70.1544 49.5686 71.2067 49.6763C72.259 49.7841 73.4069 49.8679 73.7417 49.8679C74.0885 49.8679 74.5548 49.7841 74.7581 49.7003C74.9972 49.5925 75.2125 49.3651 75.3201 49.1257C75.4636 48.7786 75.4636 48.6469 75.2842 48.0125C75.1646 47.6175 74.4352 45.6545 73.646 43.6435C72.8688 41.6326 71.6491 38.5444 69.6403 33.529L69.0424 33.3375C68.7196 33.2298 67.9423 33.0502 67.3205 32.9425C66.6987 32.8348 65.3475 32.7031 64.3312 32.6433C63.3148 32.5954 61.7723 32.5954 60.9233 32.6433C59.9906 32.6911 58.9384 32.8348 58.2926 33.0023C57.6948 33.146 56.8936 33.3974 56.499 33.5649C56.1044 33.7205 55.4707 34.0078 55.088 34.1993C54.6456 34.4268 54.2271 34.5465 53.8684 34.5465C53.414 34.5465 53.2825 34.4866 53.0314 34.1874C52.84 33.9599 52.7324 33.6846 52.7324 33.4093C52.7324 33.146 52.84 32.8707 53.0194 32.6672C53.1749 32.4757 53.8086 32.0807 54.4184 31.7695C55.0402 31.4582 56.0207 31.0513 56.6186 30.8597C57.2165 30.6563 58.2568 30.4049 58.9503 30.2972C60.0265 30.1176 60.6722 30.0937 63.4941 30.1535C66.2085 30.2134 67.0336 30.2852 68.1934 30.5007C68.9707 30.6563 69.6283 30.752 69.6522 30.7161C69.6762 30.6802 69.7359 30.1655 69.7718 29.579C69.8436 28.6214 69.8077 28.2503 69.4131 26.2873C69.1739 25.0663 68.7674 23.2589 68.5163 22.2774C68.2293 21.1163 68.038 20.0869 68.0021 19.3448C67.9662 18.6984 67.8347 17.9203 67.7032 17.5493C67.5836 17.1902 67.3684 16.6755 67.2368 16.4121C67.0933 16.1488 66.7705 15.694 66.0411 14.8561L65.8259 15.2152C65.7063 15.4187 65.3595 15.9453 65.0606 16.4002C64.7616 16.855 64.2116 17.5014 63.8529 17.8246C63.4941 18.1478 62.9561 18.5907 62.6571 18.7822C62.3582 18.9857 61.6407 19.3807 61.0429 19.656C60.445 19.9313 59.6199 20.2545 59.1895 20.3622C58.5916 20.5298 57.7426 20.5896 52.7922 20.6974L52.1943 20.2664C51.8595 20.039 51.1182 19.5961 50.5203 19.2969C49.9224 18.9976 49.0376 18.5907 48.5473 18.3991C47.7222 18.0879 47.6744 18.04 47.9136 17.9203C48.069 17.8485 48.2603 17.7887 48.3321 17.7887C48.4158 17.7887 49.48 17.3099 50.6997 16.7234C52.852 15.682 52.9477 15.658 54.1673 15.5144C54.9685 15.4306 55.8772 15.2271 56.6784 14.9638C57.3719 14.7244 58.3644 14.3174 58.8905 14.0421C59.4166 13.7668 60.3613 13.1564 60.9831 12.6895C61.6049 12.2227 62.5136 11.4088 63.0039 10.8941C63.4822 10.3793 64.1279 9.60131 64.4268 9.18237L64.9769 8.42827ZM64.6899 35.7195C64.8573 35.7554 65.1204 35.8751 65.2878 35.9828C65.4552 36.1025 65.6345 36.33 65.6943 36.4856C65.7541 36.6412 65.7661 36.9165 65.7302 37.096C65.6824 37.2756 65.5389 37.5389 65.4073 37.6706C65.2758 37.8023 65.0127 37.9459 64.8095 37.9938C64.4627 38.0776 64.4507 38.1135 64.4507 38.688C64.4507 39.0112 64.4029 39.49 64.3312 39.7294C64.2714 39.9808 64.0801 40.3399 63.9127 40.5433C63.7333 40.7588 63.4224 40.9503 63.1115 41.0341C62.7408 41.1299 62.4778 41.1299 62.1549 41.0341C61.9038 40.9623 61.5331 40.7468 61.3298 40.5673C61.1266 40.3877 60.8515 40.0406 60.732 39.7892C60.5526 39.4421 60.445 39.3583 60.2417 39.3942C60.0863 39.4182 59.8112 39.502 59.608 39.5858C59.4166 39.6695 59.1058 39.7055 58.9264 39.6576C58.747 39.6217 58.46 39.4421 58.2926 39.2865C58.0894 39.083 57.9937 38.8556 57.9937 38.5683C57.9937 38.281 58.1013 38.0297 58.3285 37.7663C58.5079 37.5629 58.9503 37.2516 59.309 37.0721C59.6678 36.8806 60.4809 36.5694 61.1026 36.3659C61.7244 36.1624 62.7289 35.911 63.3148 35.8272C63.9127 35.7315 64.5225 35.6836 64.6899 35.7195ZM30.073 37.6706C30.2763 37.6706 30.7068 37.7424 31.0296 37.8382C31.3644 37.9339 31.8547 38.2092 32.1417 38.4367C32.4645 38.712 32.6917 39.0351 32.7754 39.3105C32.9069 39.7414 32.895 39.7773 32.5123 40.0526C32.2852 40.2082 31.8786 40.5912 31.5916 40.8905C31.3046 41.1897 30.934 41.7044 30.7546 42.0396C30.5394 42.4705 30.4437 42.8775 30.4078 43.5358C30.36 44.266 30.3959 44.5652 30.6231 45.1517C30.8144 45.6305 31.1253 46.0974 31.5677 46.5761C31.9503 46.9831 32.5123 47.414 32.9189 47.6175C33.2896 47.809 33.8635 48.0245 34.1744 48.0843C34.4853 48.1562 34.868 48.3357 35.0234 48.4794C35.1789 48.623 35.3821 48.9103 35.4658 49.1257C35.5615 49.3412 35.6332 49.7003 35.6332 49.9397C35.6332 50.1671 35.5615 50.5262 35.4778 50.7416C35.3941 50.9571 35.1549 51.2683 34.9636 51.4359C34.7723 51.6035 34.4016 51.8189 34.1386 51.9027C33.8516 51.9985 33.3972 52.0344 33.0026 51.9985C32.6439 51.9745 32.1297 51.8309 31.8666 51.6992C31.6036 51.5676 31.1612 51.1965 30.8742 50.8853C30.5992 50.5621 30.1448 49.8679 29.8697 49.3412C29.5947 48.8145 28.949 47.6774 28.4349 46.8275C27.8968 45.9417 27.3946 44.9363 27.2511 44.4934C27.1315 44.0625 26.988 43.3084 26.9521 42.8176C26.9043 42.279 26.9402 41.6326 27.0239 41.2017C27.1076 40.8067 27.3228 40.1603 27.5022 39.7653C27.6935 39.3703 28.0522 38.8317 28.3033 38.5683C28.5544 38.317 28.9729 38.0057 29.236 37.886C29.4991 37.7663 29.8817 37.6706 30.073 37.6706Z" fill="#569F7A"/>
</svg>
