<svg version="1.2" xmlns="http://www.w3.org/2000/svg" viewBox="0 0 24 24" width="24" height="24"><style>.a{fill:#fff}</style><path class="a" d="m12 0.5q0 0 0 0 0 0 0 0 0 0 0 0c1.6 0 3.1 0.3 4.6 0.9 1.4 0.6 2.8 1.5 3.9 2.6 1.1 1.1 2 2.4 2.6 3.9 0.6 1.5 0.9 3 0.9 4.6q0 0.8-0.1 1.7-0.1 0.8-0.4 1.6-0.2 0.8-0.5 1.6-0.4 0.8-0.8 1.5l-10-13q-0.1 0-0.1 0 0 0-0.1 0-0.1 0-0.1 0 0 0-0.1 0l-10 13q-0.4-0.7-0.8-1.5-0.3-0.8-0.5-1.6-0.3-0.8-0.4-1.6-0.1-0.9-0.1-1.7c0-1.6 0.3-3.1 0.9-4.6 0.6-1.4 1.5-2.8 2.6-3.9 1.1-1.1 2.4-2 3.9-2.6 1.4-0.6 3-0.9 4.6-0.9q0 0 0 0zm9.9 18.8q-0.5 0.7-1.1 1.3-0.5 0.6-1.2 1.2-0.6 0.5-1.4 0.9-0.7 0.5-1.5 0.8l-4.4-16.5z"/></svg>