<svg version="1.2" xmlns="http://www.w3.org/2000/svg" viewBox="0 0 69 80" width="69" height="80"><style>.a{fill:#fff}</style><path fill-rule="evenodd" class="a" d="m68.2 17.8c0.6 0.6 0.9 1.5 0.8 2.4l-2.2 24.6c0 0.8-0.4 1.5-1 2.1l-17.6 17c-0.7 0.6-1.5 1-2.4 0.9h-18.8l-16.5 15.2 1.3-15.2h-8.4c-1 0-1.9-0.4-2.5-1-0.7-0.7-1-1.7-0.9-2.6l5.1-58.2c0.2-1.7 1.7-3 3.4-3h42.8c1 0 2 0.4 2.6 1.2zm-13.1 22.3l1.4-15.2c0-0.9-0.3-1.7-0.9-2.4l-8.1-9.3c-0.6-0.7-1.5-1.1-2.5-1.1h-25.4c-1.7 0-3.2 1.3-3.4 3l-3 34.1c-0.1 0.9 0.3 1.8 0.9 2.5 0.6 0.7 1.5 1.1 2.5 1.1h25c0.8 0 1.7-0.3 2.3-0.9l10.2-9.7c0.6-0.6 0.9-1.3 1-2.1zm-20.2 6.5h-5.5c-0.3 0-0.6-0.1-0.8-0.3-0.2-0.2-0.3-0.5-0.3-0.8l0.5-4.9c0.1-0.5 0.5-0.9 1.1-0.9h5.4c0.4 0 0.7 0.1 0.9 0.3 0.2 0.2 0.3 0.5 0.3 0.8l-0.5 4.9c-0.1 0.5-0.6 0.9-1.1 0.9zm0.8-9.6h-5.5c-0.6 0-1.1-0.4-1.1-1l1.5-16.5c0.1-0.6 0.5-1 1.1-1h5.5c0.6 0 1.1 0.5 1.1 1.1l-1.5 16.5c-0.1 0.5-0.5 0.9-1.1 0.9z"/></svg>