<svg version="1.2" xmlns="http://www.w3.org/2000/svg" viewBox="0 0 32 32" width="32" height="32"><style>.a{fill:#fff}</style><path fill-rule="evenodd" class="a" d="m1 17.8c0.1-8.3 6.9-13.8 15-13.8 8.1 0 14.9 5.5 15 13.8v0.2c0 5-4 9-9 9h-12c-5 0-9-4-9-9v-0.2zm2 0v0.2c0 3.9 3.1 7 7 7h12c3.9 0 7-3.1 7-7v-0.2c-0.1-7-5.8-11.8-13-11.8-7.2 0-12.9 4.8-13 11.8zm7 3.7c-1.5 0-2.8-1.2-2.8-2.7v-3.9c0-1.5 1.3-2.8 2.8-2.8 1.5 0 2.7 1.3 2.7 2.8v3.9c0 1.5-1.2 2.7-2.7 2.7zm9.2-6.6c0-1.5 1.3-2.8 2.8-2.8 1.5 0 2.7 1.3 2.7 2.8v3.9c0 1.5-1.2 2.7-2.7 2.7-1.5 0-2.8-1.2-2.8-2.7z"/></svg>