<svg version="1.2" xmlns="http://www.w3.org/2000/svg" viewBox="0 0 24 24" width="24" height="24"><style>.a{fill:#fff}</style><path fill-rule="evenodd" class="a" d="m21.7 0q0.4 0 0.9 0.2 0.4 0.2 0.7 0.5 0.3 0.3 0.5 0.7 0.2 0.5 0.2 0.9v19.4q0 0.4-0.2 0.9-0.2 0.4-0.5 0.7-0.3 0.3-0.7 0.5-0.5 0.2-0.9 0.2h-19.4q-0.4 0-0.9-0.2-0.4-0.2-0.7-0.5-0.3-0.3-0.5-0.7-0.2-0.5-0.2-0.9v-19.4q0-0.4 0.2-0.9 0.2-0.4 0.5-0.7 0.3-0.3 0.7-0.5 0.5-0.2 0.9-0.2zm-12.7 4.4l-2 8.6q-0.2 0.8-0.2 1.5 0 0.1 0 0.3 0 0.2 0 0.3 0.1 0.2 0.1 0.3 0.1 0.1 0.2 0.3 0.2 0.5 0.9 0.8 0.7 0.3 1.8 0.3l0.5-2q-0.4 0-0.7-0.1 0-0.1-0.1-0.1 0 0 0-0.1-0.1 0-0.1 0-0.1-0.1-0.1-0.1 0-0.1 0-0.1 0-0.1-0.1-0.2 0 0 0-0.1 0 0 0-0.1 0 0 0-0.1 0-0.1 0-0.1 0.1-0.1 0.1-0.2 0 0 0-0.1l2.3-9.4zm5.9 3.5q-0.2 0-0.4 0-0.2 0-0.5 0.1-0.2 0-0.4 0-0.9 0.2-1.5 0.4l-2.7 11.3h2.4l0.7-3q0.6 0.1 1.1 0.1 1.2 0 2.2-0.4 0.2-0.1 0.4-0.2 0.2-0.1 0.4-0.2 0.3-0.2 0.4-0.4 0.2-0.1 0.4-0.3 0.2-0.2 0.3-0.4 0.2-0.2 0.3-0.4 0.2-0.2 0.3-0.4 0.1-0.3 0.2-0.5 0.4-1 0.4-2.2 0-0.7-0.2-1.4-0.2-0.6-0.6-1.1-0.5-0.5-1.1-0.7-0.7-0.3-1.6-0.3-0.2 0-0.5 0zm1.3 2.5q0.3 0.5 0.3 1.2 0 0.2 0 0.3 0 0.2-0.1 0.4 0 0.1 0 0.3-0.1 0.2-0.1 0.3-0.2 0.6-0.6 1-0.1 0.1-0.2 0.2-0.1 0.1-0.2 0.2-0.1 0.1-0.2 0.2-0.2 0-0.3 0.1-0.5 0.2-1.1 0.2-0.5 0-0.7 0l1.1-4.8q0.1 0 0.3 0 0.1 0 0.2-0.1 0.1 0 0.2 0 0.2 0 0.3 0 0.8 0 1.1 0.5z"/></svg>