<svg version="1.2" xmlns="http://www.w3.org/2000/svg" viewBox="0 0 24 24" width="24" height="24"><style>.a{fill:#fff}</style><path fill-rule="evenodd" class="a" d="m23.3 10.9c0 0.1 0 1.5 0 1.6-0.3 3.7-2.6 5.2-5 5.6q-0.1 0-0.1 0.1c-1.6 0.3-3.2 0.3-4.8 0.4q-0.6 0-1.1 0-2.4 0-4.7-0.6 0 0 0 0 0 0 0 0.1 0 0 0 0 0 0 0 0 0 0.2 0 0.4 0 0.1 0.1 0.3 0 0.2 0.1 0.4 0 0.2 0.1 0.3c0.2 0.6 0.9 1.8 3.7 1.8q0.6 0 1.2 0 0.5 0 1.1-0.1 0.6-0.1 1.2-0.2 0.6-0.1 1.2-0.2 0 0 0 0 0 0 0 0 0 0 0 0 0 0 0 0 0 0 0 0 0 0 0 0 0 0 0 0 0 0 0 0.1v1.8q0 0 0 0 0 0 0 0 0 0 0 0 0 0 0 0c-0.5 0.4-1.2 0.6-1.8 0.8q-0.3 0.1-0.7 0.2c-2.5 0.5-5 0.4-7.3-0.4-2.2-0.8-4.4-2.6-5-4.9q-0.4-1.8-0.6-3.6c-0.2-1.9-0.2-3.8-0.2-5.7-0.1-1.3-0.1-2.7 0.2-4 0.6-2.6 3-4.4 5.6-4.8 0.4-0.1 1.3-0.3 5.3-0.3 4 0 5.7 0.2 6.2 0.3 2.7 0.4 4.9 2.4 5.3 5 0.2 1.9 0 5 0 5.6zm-3.8-2.8q0-2-1-3.1-1-1.2-2.7-1.2-2 0-3 1.5l-0.6 1.1-0.7-1.1q-1-1.5-2.9-1.5-1.7 0-2.8 1.2-1 1.1-1 3.1v6.4h2.6v-6.2q0-2 1.6-2 1.9 0 1.9 2.4v3.4h2.5v-3.4q0-2.4 1.9-2.4 1.7 0 1.7 2v6.2h2.5z"/></svg>