<svg version="1.2" xmlns="http://www.w3.org/2000/svg" viewBox="0 0 120 32" width="120" height="32"><style>.a{fill:#fff}</style><path fill-rule="evenodd" class="a" d="m25.2 26h-5.6q0.2-3.1 0.2-6.5 0-1.1-0.6-1.7-0.5-0.6-1.4-0.6-0.8 0-1.4 0.7-0.6 0.7-0.6 2.1 0 4.2 0.1 6h-5.4q0.2-3.5 0.2-6.5 0-1.1-0.6-1.7-0.5-0.6-1.3-0.6-0.8 0-1.4 0.7-0.5 0.7-0.6 1.9-0.1 1.9-0.1 2.6 0 1.7 0.1 3.6h-5.7q0.2-3.5 0.2-6.5 0-3.1-0.2-6.6 1.6 0.1 2.4 0.1 0.9 0 2.4-0.1l0.7 3.5q0.6-1.9 1.8-2.8 1.2-0.9 2.8-0.9 1.8 0 3 1 1.2 1 1.5 2.7 0.5-1.7 1.8-2.7 1.3-1 3-1 2.2 0 3.4 1.4 1.2 1.5 1.2 4v4q0 2.7 0.1 3.9zm16.9-13.1q-0.2 3-0.2 6.5 0 3.6 0.2 6.6-1.6-0.1-2.5-0.1-0.8 0-2.4 0.1l-0.7-3.5q-0.5 1.9-1.7 2.8-1.2 0.9-2.7 0.9-1.5 0-2.5-0.6-1.1-0.6-1.6-1.7-0.6-1.1-0.6-2.4v-3.5q0-3.2-0.1-5.1h5.4q-0.1 3.5-0.1 7 0 1 0.5 1.7 0.5 0.6 1.3 0.6 0.7 0 1.3-0.7 0.6-0.6 0.7-1.8c0-1.3 0-2.6 0-3.1q0-1.7-0.1-3.7zm9.7 13.3q-2 0-4.1-0.5-2.1-0.6-3.9-1.7l2.5-3.5q1.1 0.8 2.7 1.3 1.6 0.4 2.7 0.4 1.1 0 1.6-0.3 0.6-0.3 0.6-0.8 0-0.4-0.2-0.6-0.3-0.2-0.8-0.2-0.3 0-0.8 0-0.3 0.1-0.6 0.1-1.2 0.1-2.5 0.1-2.2 0-3.5-0.8-1.3-0.8-1.3-2.6 0-2.1 1.9-3.3 2-1.1 5.9-1.1 1.9 0 3.8 0.5 2 0.5 3.4 1.6l-2.7 2.8q-1.4-0.7-2.6-1-1.2-0.3-2.4-0.3-0.8 0-1.4 0.3-0.6 0.4-0.6 0.8 0 0.3 0.2 0.5 0.3 0.2 0.7 0.2 0.4 0 1.1-0.1 1.8-0.1 2.7-0.1 2.5 0 3.8 0.9 1.4 0.8 1.4 2.5 0 2.6-2 3.8-2 1.1-5.6 1.1zm24.9-6.2h-10.8q0.2 1.1 1 1.7 0.7 0.7 2.1 0.7 1 0 1.9-0.4 0.9-0.4 1.5-1.1 1.6 0.8 4.2 1.7-0.7 1.6-2.7 2.7-1.9 0.9-5.1 0.9-4.1 0-6-1.8-2-1.9-2-5 0-3 2-4.9 1.9-1.8 6-1.8 2.5 0 4.3 0.8 1.8 0.8 2.7 2.3 1 1.4 1 3.3 0 0.6-0.1 0.9zm-7.5-3.7q-1.2 0-2 0.4-0.8 0.5-1.1 1.3h5.7q-0.3-0.8-1-1.2-0.6-0.5-1.6-0.5zm12.5-4.8q-1.5 0-2.3-0.8-0.7-0.7-0.7-1.9 0-1.2 0.7-2 0.8-0.7 2.3-0.7 1.4 0 2.2 0.8 0.8 0.7 0.8 1.9 0 1.2-0.8 1.9-0.7 0.8-2.2 0.8zm2.9 14.5h-5.7q0.2-3.9 0.2-6.4 0-3-0.2-6.7h5.7q-0.2 3.6-0.2 6.7 0 2.7 0.2 6.4zm7.1-6.6q0 1.3 0.8 2 0.7 0.8 2.1 0.8 0.8 0 1.5-0.3 0.6-0.3 1.1-0.9 2.1 0.8 4.8 1.3-0.8 1.9-2.7 2.9-1.9 1-4.9 1-4 0-5.9-1.8-1.9-1.9-1.9-5 0-3 1.9-4.9 1.9-1.8 5.9-1.8 3 0 4.9 1 1.9 1 2.7 2.9-2.1 0.4-4.8 1.3-0.5-0.6-1.1-0.9-0.7-0.3-1.5-0.3-1.4 0-2.1 0.8-0.8 0.7-0.8 1.9zm26.9 6.6h-5.4q0.1-3.5 0.1-6.5 0-1.1-0.5-1.7-0.5-0.6-1.3-0.6-0.9 0-1.5 0.8-0.5 0.8-0.5 2.2h-0.1q0 3.9 0.1 5.8h-5.7q0.2-3.5 0.2-9.4 0-5.9-0.2-9.3h5.7v8.6q0.6-1.6 1.7-2.4 1.2-0.8 2.6-0.8 1.4 0 2.5 0.6 1.1 0.6 1.6 1.7 0.5 1.1 0.5 2.4v3.5q0 3.2 0.2 5.1zm-102.8-6z"/></svg>