<svg version="1.2" xmlns="http://www.w3.org/2000/svg" viewBox="0 0 24 24" width="24" height="24"><style>.a{fill:#fff}</style><path fill-rule="evenodd" class="a" d="m17.8 1c0.7 0.1 1.4 0.3 2 0.6 1.7 0.8 2.8 2.3 3.1 4.1l0.1 0.4v11.8l-0.1 0.4c-0.4 2.4-2.2 4.2-4.6 4.6l-0.4 0.1h-11.8l-0.4-0.1c-2.4-0.4-4.2-2.2-4.6-4.6l-0.1-0.4v-11.8l0.1-0.4c0.4-2.4 2.2-4.1 4.6-4.6l0.4-0.1c3.2 0 11.6 0 11.7 0zm-6.9 3.7c-2 0.2-3.6 1-4.7 2.4-0.9 1.2-1.3 2.5-1.4 4.3-0.1 1.7 0.2 3.2 0.8 4.4 0.8 1.7 2.2 2.8 4.1 3.3 1 0.3 2.5 0.4 3.6 0.2 3-0.4 5.1-2.3 5.7-5.3 0.1-0.7 0.1-1.1 0.1-2 0-1 0-1.3-0.2-2.1-0.4-2.1-1.6-3.7-3.4-4.6-1.2-0.6-2.9-0.8-4.6-0.6zm1.5 3.1c1 0.1 1.5 0.6 1.9 1.5 0.1 0.4 0.2 0.9 0.3 1.2 0.1 0.8 0.1 2.2 0 3q-0.2 1.5-1 2.2c-0.4 0.4-0.9 0.5-1.6 0.5-0.5 0-0.8 0-1.2-0.2-0.8-0.3-1.3-1.3-1.5-2.6-0.1-0.6-0.1-2.3 0-2.9 0.2-0.9 0.5-1.7 1-2.2 0.5-0.4 1.4-0.6 2.1-0.5z"/></svg>