<svg version="1.2" xmlns="http://www.w3.org/2000/svg" viewBox="0 0 24 24" width="24" height="24"><style>.a{fill:#fff}</style><path fill-rule="evenodd" class="a" d="m21.7 10.7q0 0.7-0.1 1.4-0.1 0.7-0.2 1.4-0.2 0.7-0.5 1.4-0.3 0.6-0.7 1.3c0 0-0.1 0-0.1-0.1-0.4-2.6-2-4-4.3-4.5-0.2 0-0.2-0.1 0-0.2 0.8 0 1.8 0 2.3 0.1 0.1-1 0-2-0.3-3-0.3-0.9-0.8-1.8-1.4-2.5-0.7-0.8-1.5-1.4-2.4-1.8-0.9-0.4-1.9-0.6-2.9-0.6q-1.4 0-2.7 0.5-1.3 0.6-2.3 1.6-1 1-1.5 2.3-0.6 1.3-0.6 2.7 0 1.4 0.6 2.7 0.5 1.3 1.5 2.2 1 1 2.3 1.6 1.3 0.5 2.7 0.5h0.3q-0.2-0.9-0.1-1.9 0-0.7 0.3-0.1c0.9 1.6 2.3 3.2 5.1 3.8 2.2 0.5 4.4 1 6.8 4.1 0.3 0.3-0.1 0.5-0.3 0.3-2.5-2.1-4.7-2.9-6.7-2.9-2.3 0.1-3.9 0.3-5.4 0.3-5.9 0-10.7-4.7-10.7-10.6 0-5.9 4.8-10.7 10.7-10.7 5.9 0 10.6 4.8 10.6 10.7zm-2.8 4.4c0.4 0.2 0.5 0.8 0.5 1 0.1 0.5 0 0.7-0.2 0.7q-0.2 0-0.6-0.6c-0.2-0.3-0.3-0.7-0.2-1q0 0 0.1 0 0-0.1 0-0.1 0.1 0 0.1 0 0.1 0 0.1 0 0.1 0 0.2 0zm-1.6 2.1c0.5 0.4 0.6 0.9 0.3 1.2q0 0.1-0.1 0.1-0.1 0.1-0.1 0.1-0.1 0-0.2 0.1-0.1 0-0.2 0c-0.3 0-0.5-0.1-0.7-0.3-0.5-0.4-0.6-1-0.3-1.3q0.2-0.2 0.5-0.2 0.4 0 0.8 0.3z"/></svg>