<svg version="1.2" xmlns="http://www.w3.org/2000/svg" viewBox="0 0 24 24" width="24" height="24"><style>.a{fill:#fff}</style><path class="a" d="m12.5 0q2 0 3.9 0c0.1 1.5 0.7 3.1 1.8 4.2 1.1 1.1 2.7 1.6 4.2 1.8v4c-1.4-0.1-2.9-0.4-4.2-1-0.5-0.2-1.1-0.6-1.6-0.9 0 2.9 0 5.8 0 8.7-0.1 1.4-0.6 2.8-1.4 4-1.3 1.9-3.5 3.2-5.9 3.2-1.4 0.1-2.8-0.3-4.1-1-2-1.2-3.4-3.4-3.6-5.8q0-0.7 0-1.4c0.2-1.9 1.1-3.8 2.6-5 1.6-1.4 3.9-2.1 6.1-1.7 0 1.5 0 2.9 0 4.4-1-0.3-2.2-0.2-3 0.4-0.7 0.4-1.2 1-1.4 1.7-0.2 0.5-0.2 1.1-0.1 1.6 0.2 1.7 1.8 3.1 3.5 2.9 1.1 0 2.1-0.6 2.7-1.6 0.2-0.3 0.4-0.7 0.4-1 0.1-1.8 0.1-3.6 0.1-5.4 0-4 0-8.1 0-12.1z"/></svg>