<svg version="1.2" xmlns="http://www.w3.org/2000/svg" viewBox="0 0 24 24" width="24" height="24"><style>.a{fill:#fff}</style><path fill-rule="evenodd" class="a" d="m18.7 0l0.5 0.1c0.3 0.1 0.7 0.2 0.8 0.3 0.2 0.1 0.4 0.2 0.6 0.3 0.1 0 0.4 0.2 0.7 0.4 0.3 0.2 0.5 0.4 0.9 0.7 0.2 0.3 0.5 0.6 0.7 0.8 0.1 0.2 0.3 0.5 0.4 0.7 0.1 0.2 0.2 0.5 0.3 0.7 0.1 0.2 0.2 0.4 0.2 0.6 0.1 0.2 0.1 0.5 0.1 0.7 0.1 0.2 0.1 1.1 0.1 6.7 0 5.6 0 6.5-0.1 6.7 0 0.2 0 0.5-0.1 0.7 0 0.2-0.1 0.4-0.2 0.6-0.1 0.2-0.2 0.5-0.3 0.7-0.1 0.2-0.3 0.5-0.4 0.7-0.2 0.2-0.5 0.5-0.7 0.8-0.4 0.3-0.6 0.5-0.9 0.7-0.3 0.2-0.6 0.4-0.7 0.5-0.2 0-0.5 0.2-0.6 0.2-0.2 0.1-0.6 0.2-1.3 0.4h-13.4l-0.5-0.1c-0.2-0.1-0.6-0.2-0.8-0.3-0.1 0-0.4-0.2-0.6-0.2-0.1-0.1-0.4-0.3-0.7-0.5-0.3-0.2-0.5-0.4-0.9-0.7-0.2-0.3-0.5-0.6-0.7-0.8-0.1-0.2-0.3-0.5-0.4-0.7-0.1-0.2-0.2-0.5-0.3-0.7-0.1-0.2-0.2-0.4-0.2-0.6-0.1-0.2-0.1-0.5-0.1-0.7-0.1-0.2-0.1-1.1-0.1-6.7 0-5.6 0-6.5 0.1-6.7 0-0.2 0-0.5 0.1-0.7 0-0.2 0.1-0.5 0.2-0.6 0.1-0.2 0.2-0.5 0.3-0.7 0.1-0.2 0.3-0.5 0.4-0.7 0.2-0.2 0.5-0.5 0.7-0.8 0.4-0.3 0.6-0.5 0.9-0.7 0.3-0.2 0.6-0.4 0.7-0.4 0.2-0.1 0.4-0.2 0.6-0.3 0.1-0.1 0.4-0.2 0.6-0.2 0.2-0.1 0.5-0.1 0.6-0.1 0.2-0.1 1.6-0.1 13.5-0.1zm-5.8 3.5c0 0.8 0 1.8 0.1 2.3 0 0.5 0 1.2 0 1.5 0 0.4 0 0.9 0 1.2-0.1 0.3-0.1 0.8-0.1 1.1-0.1 0.3-0.1 0.9-0.2 1.3 0 0.3-0.1 1-0.2 1.3 0 0.4-0.1 1-0.2 1.4-0.1 0.4-0.2 1-0.3 1.3-0.1 0.3-0.1 0.6-0.1 0.6q-0.1 0-0.2 0.1h-0.1c-0.1-0.7-0.3-1.4-0.4-2-0.2-0.7-0.4-1.6-0.5-2.2-0.1-0.6-0.3-1.5-0.4-2 0-0.5-0.2-1.2-0.2-1.7-0.1-0.4-0.2-1.1-0.3-1.6 0-0.4-0.1-1.1-0.1-1.4 0-0.3-0.1-0.7-0.1-0.9v-0.2c-0.9 0.3-1.5 0.5-1.8 0.7-0.4 0.1-0.9 0.3-1.2 0.4-0.3 0-0.7 0.1-0.9 0.2-0.3 0-0.5 0.1-0.7 0.1h-0.2c0 0.8 0.1 1.2 0.1 1.5 0 0.3 0.1 0.8 0.2 1.2 0 0.4 0.1 1 0.2 1.4 0.1 0.4 0.3 1.1 0.4 1.6 0.2 0.6 0.4 1.4 0.5 1.9 0.1 0.4 0.4 1.2 0.5 1.7 0.1 0.4 0.4 1.2 0.6 1.7 0.1 0.5 0.5 1.5 0.7 2.2 0.2 0.6 0.6 1.6 0.8 2.1 0.1 0.6 0.3 1 0.3 1 0 0 0.4 0 0.8-0.1 0.5 0 0.9 0 1.5 0 0.4 0 1 0.1 1.3 0.1 0.3 0 0.7 0.1 1 0.1 0.2 0 0.6 0.1 0.9 0.1 0.4 0.1 0.6 0.1 0.6 0.1 0 0 0.1-0.1 0.1-0.2 0.1-0.1 0.2-0.4 0.3-0.5 0-0.2 0.2-0.6 0.3-0.8 0-0.3 0.2-0.7 0.3-1 0-0.2 0.2-0.7 0.3-1.1 0-0.4 0.2-1 0.3-1.5 0.1-0.5 0.2-1.4 0.3-2 0.1-0.5 0.3-1.5 0.4-2 0-0.6 0.2-1.5 0.2-2.1 0.1-0.5 0.2-1.5 0.3-2.1 0-0.6 0.1-1.6 0.2-2.1 0-0.5 0.1-1.4 0.2-2 0.1-0.8 0.1-1 0.1-1q0.1-0.1-0.1-0.1c0 0-0.3-0.1-0.5-0.1-0.2-0.1-0.9-0.2-1.5-0.3-0.6-0.1-1.6-0.2-2.2-0.3-0.6-0.1-1.2-0.2-1.2-0.2h-0.1z"/></svg>