<svg version="1.2" xmlns="http://www.w3.org/2000/svg" viewBox="0 0 676 676" width="676" height="676"><style>.a{fill:#fff}</style><path fill-rule="evenodd" class="a" d="m527.5 0.5l14 3.7c7.7 2 17.8 5.2 22.5 7.1 4.7 1.9 11.9 5.1 16 7.2 4.1 2 12.7 7.1 19 11.3 8.6 5.7 15 11.1 25 21.2 7.9 7.8 16.4 17.5 20.2 23 3.7 5.2 9.2 14.2 12.2 20 3 5.8 6.9 14.1 8.6 18.5 1.7 4.4 4.2 12.3 5.5 17.5 1.4 5.2 3.2 13.3 4 18 1.3 7.3 1.5 33.3 1.5 190 0 156.7-0.2 182.7-1.5 190-0.8 4.7-2.6 12.8-4 18-1.3 5.2-3.8 13.1-5.5 17.5-1.7 4.4-5.6 12.7-8.6 18.5-3 5.8-8.5 14.8-12.2 20-3.8 5.5-12.3 15.2-20.2 23-10 10.1-16.4 15.5-25 21.2-6.3 4.2-15.3 9.5-20 11.8-4.7 2.4-12.3 5.7-17 7.5-4.7 1.8-14.6 4.7-35.5 10h-377l-13.5-3.4c-7.4-1.9-17.3-4.8-22-6.6-4.7-1.8-12.3-5.1-17-7.5-4.7-2.3-13.7-7.6-20-11.8-8.6-5.7-15-11.1-25-21.2-7.9-7.8-16.4-17.5-20.2-23-3.7-5.2-9.2-14.2-12.2-20-3-5.8-6.9-14.1-8.6-18.5-1.7-4.4-4.2-12.3-5.5-17.5-1.4-5.2-3.2-13.3-4-18-1.3-7.3-1.5-33.3-1.5-190 0-156.7 0.2-182.7 1.5-190 0.8-4.7 2.6-12.8 3.9-18 1.4-5.2 4.1-13.5 6.1-18.5 2-5 5.9-13.3 8.6-18.5 2.8-5.2 8-13.8 11.7-19 3.8-5.5 12.3-15.2 20.2-23 10-10.1 16.4-15.5 25-21.2 6.3-4.2 14.9-9.3 19-11.3 4.1-2.1 11.3-5.3 16-7.2 4.7-1.9 13-4.5 18.5-6 5.5-1.4 13.2-3.1 17-3.8 5.6-1.1 43.5-1.3 380-1zm-163.9 99.2c0.3 21.4 0.9 50.3 1.5 64.3 0.5 14 0.9 33.4 0.8 43-0.1 9.6-0.6 24-1 32-0.5 8-1.6 21.9-2.4 31-0.9 9.1-2.7 25.3-4.1 36-1.3 10.7-3.8 27.8-5.5 38-1.7 10.2-4.8 27.5-7 38.5-2.2 11-5.8 27.6-8 37-2.1 9.4-3.9 17.3-3.9 17.8 0 0.4-1.5 0.7-3.2 0.7h-3.3c-4.4-19-8.7-38.7-12.5-56-3.8-17.3-9.6-45.2-12.9-62-3.4-16.8-8.1-41.8-10.6-55.5-2.5-13.8-6.1-34.7-8-46.5-1.9-11.8-4.8-32.1-6.4-45-1.7-12.9-3.5-31.2-4.1-40.5-0.7-9.3-1.5-20.4-1.8-24.6l-0.7-7.6c-25.6 10-41.6 16-52 19.7-10.4 3.8-25.5 8.7-33.5 11-8 2.3-19.4 5.3-25.5 6.6-6.1 1.2-14.1 2.7-17.9 3.1l-6.9 0.8c1 20.9 2 33.3 2.8 41 0.9 7.7 3.1 23 5 34 1.8 11 5.2 28.8 7.5 39.5 2.3 10.7 7.3 31.6 11 46.5 3.8 14.9 10 38 13.9 51.5 3.8 13.5 10.2 34.9 14.1 47.5 3.9 12.6 11 34.9 15.7 49.5 4.7 14.6 13.8 41.8 20.3 60.5 6.5 18.7 16.1 46.1 21.5 61 5.3 14.9 9.8 27.1 9.9 27.3 0 0.2 9.8-0.4 21.6-1.4 16.2-1.3 26.8-1.5 43-1.1 11.8 0.4 28.5 1.4 37 2.2 8.5 0.8 20.7 2.2 27 3 6.3 0.8 18.7 2.7 27.5 4 8.8 1.4 16.1 2.5 16.1 2.3 0.1-0.2 1.5-3 3.2-6.3 1.6-3.3 4.7-10 6.7-15 2.1-5 5.8-14.9 8.2-22 2.4-7.1 6.2-19.1 8.3-26.5 2.2-7.4 6-21.8 8.4-32 2.5-10.2 6.7-29.5 9.5-43 2.7-13.5 7.2-38 10-54.5 2.7-16.5 6.8-42.8 9-58.5 2.3-15.7 5.7-41.3 7.6-57 1.9-15.7 5-42.9 6.9-60.5 1.9-17.6 4.6-43.9 6-58.5 1.4-14.6 3.7-39.6 5.2-55.5 2.1-24.1 2.8-29.2 4.2-30.2 1.5-0.9 1.1-1.3-2.3-2.1-2.2-0.6-8.9-2-15-3.1-6.1-1.1-24.7-4.3-41.5-7-16.8-2.8-45.1-7.3-63-10.1-17.9-2.7-33.5-5.2-34.7-5.5l-2.1-0.5z"/></svg>