<svg version="1.2" xmlns="http://www.w3.org/2000/svg" viewBox="0 0 24 24" width="24" height="24"><style>.a{fill:#fff}</style><path fill-rule="evenodd" class="a" d="m9.5 0h0.7 3.6 0.7 0.9 0.5 0.4 0.4l0.4 0.1h0.3 0.4 0.3l0.4 0.1c1.7 0.2 2.9 0.6 3.8 1.5 0.9 0.9 1.3 2.1 1.5 3.8l0.1 0.4v0.3 0.4 0.3l0.1 0.6v0.4 0.7 0.9 1 3.3 0.7 0.9 0.5 0.4 0.4l-0.1 0.4v0.3 0.4 0.3l-0.1 0.4c-0.2 1.7-0.6 2.9-1.5 3.8-0.9 0.9-2.1 1.3-3.8 1.5l-0.4 0.1h-0.3-0.4-0.3l-0.6 0.1h-0.4-0.7-0.9-1-3.3-0.7-0.9-0.5-0.4-0.4l-0.4-0.1h-0.3-0.4-0.3l-0.4-0.1c-1.7-0.2-2.9-0.6-3.8-1.5-0.9-0.9-1.3-2.1-1.5-3.8l-0.1-0.4v-0.3-0.4-0.3l-0.1-0.6v-0.4-0.7-0.9-1-3.3-0.7-0.9-0.5-0.4-0.4l0.1-0.4v-0.3-0.4-0.3l0.1-0.4c0.2-1.7 0.6-2.9 1.5-3.8 0.9-0.9 2.1-1.3 3.8-1.5l0.4-0.1h0.3 0.4 0.3l0.6-0.1h0.4 0.7zm-2.7 7.3h-2.8c0.2 6.2 3.3 10 8.8 10h0.3v-3.6c2 0.2 3.5 1.7 4.1 3.6h2.8c-0.7-2.8-2.8-4.4-4.1-5 1.3-0.8 3.1-2.6 3.5-5h-2.5c-0.6 2-2.3 3.8-3.8 4v-4h-2.6v6.9c-1.6-0.4-3.6-2.3-3.7-6.9z"/></svg>