<svg version="1.2" xmlns="http://www.w3.org/2000/svg" viewBox="0 0 24 24" width="24" height="24"><style>.a{fill:#fff}</style><path fill-rule="evenodd" class="a" d="m24 12c0 0 0 3.9-0.5 5.8q-0.1 0.4-0.3 0.7-0.2 0.4-0.5 0.7-0.3 0.2-0.6 0.4-0.3 0.2-0.7 0.3c-1.9 0.6-9.4 0.6-9.4 0.6 0 0-7.5 0-9.4-0.6q-0.4-0.1-0.7-0.3-0.3-0.2-0.6-0.4-0.3-0.3-0.5-0.7-0.2-0.3-0.3-0.7c-0.5-1.9-0.5-5.8-0.5-5.8 0 0 0-3.9 0.5-5.8q0.1-0.4 0.3-0.7 0.2-0.4 0.5-0.7 0.3-0.2 0.6-0.4 0.3-0.2 0.7-0.4c1.9-0.5 9.4-0.5 9.4-0.5 0 0 7.5 0 9.4 0.5q0.4 0.2 0.7 0.4 0.3 0.2 0.6 0.4 0.3 0.3 0.5 0.7 0.2 0.3 0.3 0.7c0.5 1.9 0.5 5.8 0.5 5.8zm-8.2 0l-6.3-3.6v7.2z"/></svg>