<svg version="1.2" xmlns="http://www.w3.org/2000/svg" viewBox="0 0 200 43" width="200" height="43"><style>.a{fill:#fff}</style><path fill-rule="evenodd" class="a" d="m12.2 17.1v-2.7l4.3-1.4 2.5-5.9h3.5v5.4h9v4.6h-9v7.4q0 1.6 0.4 2.5 0.4 1 1.4 1.4 0.9 0.4 2.6 0.4 1.5 0 2.7-0.3 1.2-0.3 2.3-0.8v4.7q-1.1 0.4-2.9 0.8-1.7 0.3-3.4 0.3-4.7 0-6.9-2.1-2.2-2.2-2.2-6v-8.3zm22.9-11.8h6v10.9q1.3-2.1 3.4-3.1 2-1.1 4.4-1.1 2.9 0 5 1.1 2 1.2 3.1 3.4 1.1 2.1 1.1 5.1v11.4h-6v-10.5q0-2.7-1.4-4.2-1.3-1.4-3.8-1.4-1.8 0-3.1 0.8-1.3 0.7-2 2.1-0.7 1.4-0.7 3.3v9.9h-6zm38.8 28.3q-3.6 0-6.5-1.4-2.9-1.4-4.5-3.8-1.6-2.5-1.6-5.7 0-3.1 1.5-5.6 1.6-2.4 4.3-3.8 2.8-1.3 6.3-1.3 3.5 0 6 1.6 2.6 1.5 4 4.4 1.4 2.9 1.4 6.7h-17.1q0.7 2.1 2.7 3.2 2 1.1 5 1.1 2.3 0 4.7-0.6 2.3-0.7 4.2-1.9v4q-2.1 1.5-4.8 2.3-2.6 0.8-5.6 0.8zm-6.3-12.9h11.4q-0.5-2.1-2-3.2-1.4-1.1-3.6-1.1-2.3 0-3.8 1.2-1.6 1.1-2 3.1zm20.7-8.4l3 0.6 3.1-0.6v26.7h-6.1zm-0.6-5.3q0-1.4 1-2.2 1-0.9 2.6-0.9 1.7 0 2.7 0.9 1 0.8 1 2.2 0 1.4-1 2.3-1 0.8-2.7 0.8-1.6 0-2.6-0.8-1-0.9-1-2.3zm22.7 26.5q-3.6 0-6.5-1.4-2.9-1.3-4.5-3.8-1.6-2.4-1.6-5.6 0-3.2 1.6-5.6 1.5-2.5 4.3-3.8 2.7-1.4 6.2-1.4 3.5 0 6.1 1.6 2.6 1.5 3.9 4.4 1.5 2.9 1.5 6.7h-17.1q0.6 2.1 2.6 3.2 2 1.2 5 1.2 2.4 0 4.7-0.7 2.3-0.7 4.2-1.9v4.1q-2 1.4-4.7 2.2-2.7 0.8-5.7 0.8zm-6.3-12.9h11.4q-0.5-2-2-3.1-1.4-1.1-3.6-1.1-2.3 0-3.8 1.1-1.5 1.1-2 3.1zm19.7-8.1h6l0.8 4.6q1.3-2.5 3.4-3.8 2.2-1.4 4.9-1.4 2.9 0 5 1.2 2.1 1.2 3.1 3.3 1.1 2.2 1.1 5.2v11.4h-6v-10.5q0-2.8-1.3-4.2-1.4-1.4-3.9-1.4-1.8 0-3.1 0.7-1.3 0.8-2 2.2-0.7 1.4-0.7 3.2v10h-6v-13.6zm28.5-0.3l3.1 0.6 3-0.6v26.7h-6.1zm-0.6-5.3q0-1.4 1-2.2 1-0.9 2.7-0.9 1.6 0 2.6 0.9 1 0.8 1 2.2 0 1.4-1 2.3-1 0.9-2.6 0.9-1.7 0-2.7-0.9-1-0.9-1-2.3zm30 26l-0.6-4.6q-1.5 2.4-3.8 3.8-2.4 1.3-5.2 1.3-3 0-5.3-1.3-2.3-1.4-3.6-3.8-1.3-2.5-1.3-5.6 0-3.2 1.3-5.7 1.3-2.4 3.6-3.8 2.3-1.3 5.3-1.3 2.8 0 5.2 1.3 2.3 1.3 3.8 3.8l0.6-4.6h6.2l-1.2 10.2 1.2 10.3zm-13.7-10.2q0 1.7 0.8 3.1 0.7 1.4 2 2.2 1.3 0.7 3 0.7 1.6 0 3.2-0.7 1.5-0.8 2.6-2.2 1.2-1.4 1.8-3.1-0.6-1.8-1.8-3.2-1.1-1.4-2.6-2.2-1.6-0.8-3.2-0.8-1.7 0-3 0.8-1.3 0.8-2 2.2-0.8 1.4-0.8 3.2z"/></svg>