<svg version="1.2" xmlns="http://www.w3.org/2000/svg" viewBox="0 0 200 43" width="200" height="43">
	<title>Новый проект</title>
	<style>
		.s0 { fill: #ffffff } 
	</style>
	<path id="thejenja_" class="s0" aria-label="thejenja_"  d="m21.2 11.9v6.5q-3.4-0.2-6.2-0.3v3.9q0 2 0.8 3.2 0.9 1.1 3.1 1.1 0.9 0 1.7-0.2-0.2 1.4-0.2 2.8 0 0.7 0.1 3-1.6 0.3-2.7 0.4-1.1 0.1-2.9 0.1-4.4 0-6.2-2.1-1.7-2.1-1.7-5.8v-6.3q-1.7 0.1-3.6 0.2v-6.5q1.9 0 3.2-1.2 1.4-1.3 1.6-3h10.1q-1.9 2.6-4.2 4.2zm25 20.1h-8.3q0.2-5.4 0.2-10 0-1.7-0.8-2.6-0.8-1-2-1-1.3 0-2.3 1.3-0.8 1.2-0.8 3.4l-0.1-0.1q0 6.1 0.2 9h-8.9q0.3-5.3 0.3-14.4 0-9.1-0.3-14.5h8.8l0.1 11.4-0.1 2q0.9-2.6 2.7-3.8 1.7-1.3 3.9-1.3 2.3 0 3.9 1 1.6 1 2.4 2.7 0.9 1.6 0.9 3.7v5.3q0 4.9 0.2 7.9zm27.1-9.3h-4.6-12.1q0.3 1.7 1.5 2.7 1.2 1 3.3 1 1.6 0 2.9-0.6 1.4-0.6 2.2-1.7 2.5 1.2 6.6 2.6-1.1 2.6-4.2 4.2-3 1.5-7.8 1.5-6.3 0-9.3-2.9-3-2.9-3-7.7 0-4.6 3-7.5 3-2.9 9.3-2.9 3.8 0 6.5 1.3 2.8 1.2 4.3 3.5 1.5 2.2 1.5 5.1 0 1-0.1 1.4zm-11.7-5.7q-1.8 0-3 0.7-1.2 0.7-1.7 1.9h8.7q-0.4-1.1-1.4-1.8-1-0.8-2.6-0.8zm18.8-7.4q-2.4 0-3.5-1.1-1.1-1.2-1.1-3 0-1.8 1.1-3 1.1-1.2 3.5-1.2 2.2 0 3.4 1.2 1.2 1.2 1.2 3 0 1.8-1.2 3-1.1 1.1-3.4 1.1zm-4.4 2.2h8.9q-0.2 3.7-0.2 8.6v4.8q0.1 1.5 0.1 4.4 0 5.7-2.6 8.2-2.5 2.4-7.5 2.4-1.1 0-2.3-0.1v-1.1q0-2.3-0.5-4.4l0.7 0.1q1.8 0 2.7-0.9 1-0.9 1-2.9 0.1-3.3 0.1-5.3 0-7.1-0.4-13.8zm36.1 11h-4.6-12.1q0.3 1.6 1.5 2.6 1.1 1 3.3 1 1.5 0 2.9-0.6 1.4-0.6 2.2-1.7 2.5 1.2 6.6 2.6-1.2 2.6-4.2 4.2-3 1.5-7.8 1.5-6.3 0-9.4-2.9-3-2.9-3-7.7 0-4.6 3-7.5 3-2.9 9.4-2.9 3.7 0 6.5 1.3 2.8 1.2 4.3 3.5 1.4 2.2 1.4 5.1 0 1 0 1.5zm-11.7-5.8q-1.9 0-3.1 0.7-1.1 0.7-1.6 1.9h8.7q-0.4-1.1-1.4-1.8-1-0.8-2.6-0.8zm37.1 15h-8.3q0.2-5.4 0.2-10 0-1.7-0.8-2.6-0.8-1-2-1-1.2 0-2.1 1.1-0.8 1.1-1 3-0.1 2.8-0.1 4 0 2.5 0.2 5.5h-8.9q0.3-5.3 0.3-10.1 0-4.7-0.3-10.1 2.5 0.1 3.8 0.1 1.3 0 3.7-0.1l1.1 5.4q0.8-2.9 2.6-4.3 1.9-1.5 4.3-1.5 2.2 0 3.8 1 1.6 1 2.5 2.7 0.8 1.6 0.8 3.7v5.3q0 4.9 0.2 7.9zm7.4-22.4q-2.4 0-3.5-1.1-1.1-1.2-1.1-3 0-1.8 1.1-3 1.1-1.2 3.5-1.2 2.2 0 3.4 1.2 1.1 1.2 1.1 3 0 1.8-1.1 3-1.2 1.1-3.4 1.1zm-4.4 2.2h8.9q-0.2 3.7-0.2 8.6v4.8q0.1 1.5 0.1 4.4 0 5.7-2.6 8.2-2.5 2.4-7.5 2.4-1.1 0-2.3-0.1v-1.1q0-2.3-0.5-4.4l0.7 0.1q1.8 0 2.7-0.9 0.9-0.9 1-2.9 0.1-3.3 0.1-5.3 0-7.1-0.4-13.8zm35.6 9.7v4.4q0 1.2 0.3 1.7 0.3 0.6 1.2 0.8l-0.1 3.5q-1.2 0.1-2.1 0.2-0.9 0.1-2.3 0.1-3.2 0-4.2-1.4-1.1-1.5-1.1-3.7v-0.9q-1 3-3.1 4.5-2 1.5-5.2 1.5-3.7 0-5.6-1.5-1.9-1.5-1.9-4.4 0-2.4 1.6-3.8 1.6-1.3 4.9-1.9-2.8-2-5.6-3.4 2.2-2.8 5.1-4.3 2.8-1.5 6.9-1.5 5.7 0 8.4 2.5 2.8 2.4 2.8 7.6zm-10.4-3.6q-1.9 0-3.3 0.7-1.5 0.6-2.6 1.9 2.2-0.3 5.5-0.3 1.4 0 1.9-0.3 0.6-0.4 0.6-0.9 0-0.4-0.6-0.7-0.5-0.4-1.5-0.4zm-3.9 8.3q2.1 0 3.7-0.8 1.7-0.8 2.3-2.1v-1q-0.9 0.4-1.9 0.7-1.1 0.2-2.6 0.5l-1.4 0.2q-2 0.4-2 1.4 0 1.1 1.9 1.1zm35-1v7.5h-17.4v-7.5z"/>
</svg>