<svg width="42" height="42" viewBox="0 0 42 42" fill="none" xmlns="http://www.w3.org/2000/svg">
<g clip-path="url(#clip0_15_433)">
<path d="M42 21C42 9.40202 32.598 0 21 0C9.40202 0 0 9.40202 0 21C0 32.598 9.40202 42 21 42C32.598 42 42 32.598 42 21Z" fill="url(#paint0_radial_15_433)"/>
<path d="M17.9667 29.2492V12.7512C17.9667 12.1184 18.489 11.6055 19.1333 11.6055C19.7777 11.6055 20.3 12.1184 20.3 12.7512V29.2492C20.3 29.882 19.7777 30.3949 19.1333 30.3949C18.489 30.3949 17.9667 29.882 17.9667 29.2492ZM25.4333 26.4996V14.5843C25.4333 13.9516 25.9557 13.4386 26.6 13.4386C27.2444 13.4386 27.7666 13.9516 27.7666 14.5843V26.4996C27.7666 27.1323 27.2444 27.6453 26.6 27.6453C25.9557 27.6453 25.4333 27.1323 25.4333 26.4996ZM14.2334 25.583V15.5009C14.2334 14.8681 14.7556 14.3551 15.4 14.3551C16.0443 14.3551 16.5667 14.8681 16.5667 15.5009V25.583C16.5667 26.2158 16.0443 26.7287 15.4 26.7287C14.7556 26.7287 14.2334 26.2158 14.2334 25.583ZM21.7 23.7499V17.334C21.7 16.7012 22.2223 16.1883 22.8667 16.1883C23.511 16.1883 24.0333 16.7012 24.0333 17.334V23.7499C24.0333 24.3826 23.511 24.8956 22.8667 24.8956C22.2223 24.8956 21.7 24.3826 21.7 23.7499ZM10.5 21.9167V19.1671C10.5 18.5343 11.0223 18.0214 11.6667 18.0214C12.311 18.0214 12.8333 18.5343 12.8333 19.1671V21.9167C12.8333 22.5495 12.311 23.0625 11.6667 23.0625C11.0223 23.0625 10.5 22.5495 10.5 21.9167ZM29.1667 21.9167V19.1671C29.1667 18.5343 29.689 18.0214 30.3333 18.0214C30.9777 18.0214 31.5 18.5343 31.5 19.1671V21.9167C31.5 22.5495 30.9777 23.0625 30.3333 23.0625C29.689 23.0625 29.1667 22.5495 29.1667 21.9167Z" fill="#F2AF25"/>
</g>
<defs>
<radialGradient id="paint0_radial_15_433" cx="0" cy="0" r="1" gradientUnits="userSpaceOnUse" gradientTransform="translate(21 21) rotate(90) scale(21)">
<stop stop-color="#F3AF26" stop-opacity="0.5"/>
<stop offset="1" stop-color="#F3AF26" stop-opacity="0"/>
</radialGradient>
<clipPath id="clip0_15_433">
<rect width="42" height="42" fill="white"/>
</clipPath>
</defs>
</svg>
