<svg xmlns="http://www.w3.org/2000/svg" width="266" height="234" fill="none">
  <g clip-path="url(#a)">
    <path fill="#6B537E" fill-rule="evenodd" d="M59 10.6c0-5 0-7.5 1.5-9C62 0 64.5 0 69.5 0h9c5 0 7.6 0 9.2 1.6 1.5 1.5 1.5 4 1.5 9v7.8c0 5 0 7.4 1.6 9 1.5 1.5 4 1.6 9 1.6h8.4c5 .1 7.4.2 9 1.7 1.5 1.5 1.5 4 1.6 9v8.1c.1 5 .1 7.5 1.7 9 1.5 1.6 4 1.6 9 1.6h7.5c5 0 7.5 0 9-1.6 1.6-1.6 1.6-4 1.6-9v-8.3c0-5 0-7.5 1.6-9 1.5-1.6 4-1.6 9-1.6h8.5c5 0 7.5 0 9-1.5 1.6-1.6 1.6-4.1 1.6-9.1v-7.7c0-5 0-7.5 1.6-9 1.5-1.6 4-1.6 9-1.6h8.5c5 0 7.6 0 9.1 1.6 1.6 1.5 1.6 4 1.6 9v8.2c0 5 0 7.5-1.6 9.1-1.5 1.6-4 1.6-9 1.6h-8c-5 0-7.5 0-9 1.5-1.6 1.6-1.6 4-1.6 9v7.7c0 5 0 7.5 1.5 9.1 1.6 1.6 4.1 1.6 9.1 1.6h8c5 0 7.5 0 9 1.5 1.6 1.6 1.6 4 1.6 9.1v37c0 5.1 0 7.6 1.5 9.2 1.6 1.5 4.1 1.5 9.1 1.5h8c5 0 7.4 0 9-1.5 1.6-1.6 1.6-4 1.6-9.1V69c0-5 0-7.5 1.5-9 1.6-1.6 4-1.6 9.1-1.6h8.5c5 0 7.5 0 9 1.5 1.6 1.6 1.6 4 1.6 9.1v37.6c0 5 0 7.6-1.6 9.1-1.5 1.6-4 1.6-9 1.6h-8c-5 0-7.5 0-9 1.5-1.6 1.6-1.6 4-1.6 9.1v7.6c0 5 0 7.6-1.5 9.1-1.6 1.6-4.1 1.6-9.1 1.6h-8.5c-5 0-7.5 0-9 1.5-1.6 1.6-1.6 4.1-1.6 9.1v8.2c0 5 0 7.5-1.6 9-1.5 1.6-4 1.6-9 1.6h-8c-5 0-7.5 0-9 1.6-1.6 1.6-1.6 4-1.6 9v7.2c0 5 0 7.5 1.5 9 1.6 1.6 4.1 1.6 9.1 1.6h8c5 0 7.5 0 9 1.6 1.6 1.5 1.6 4 1.6 9v8.8c0 5 0 7.5-1.6 9-1.5 1.6-4 1.6-9 1.6H188c-5 0-7.6 0-9.1-1.6-1.6-1.5-1.6-4-1.6-9v-7.8c0-5 0-7.4-1.5-9-1.5-1.5-4-1.6-9-1.6h-8.5c-5-.1-7.4-.2-9-1.7-1.5-1.5-1.5-4-1.5-9l-.1-8.1c0-5 0-7.5-1.6-9-1.6-1.6-4-1.6-9-1.6h-7.6c-5 0-7.5 0-9 1.6-1.6 1.5-1.6 4-1.6 9l-.1 8.2c0 5 0 7.4-1.6 9-1.6 1.4-4 1.5-9 1.5h-8.4c-5 .1-7.5.2-9 1.7-1.6 1.6-1.6 4-1.6 9v7.8c0 5 0 7.5-1.5 9-1.6 1.6-4.1 1.6-9.1 1.6h-9c-5 0-7.5 0-9-1.6-1.6-1.6-1.6-4-1.6-9.1l.1-8.6c0-5 0-7.4 1.6-9 1.6-1.5 4-1.5 9-1.5l8.4-.1c5 0 7.5 0 9-1.6 1.6-1.6 1.6-4 1.6-9v-7.3c0-5 0-7.5-1.6-9-1.5-1.6-4-1.6-9-1.7h-8.5c-4.9 0-7.4-.1-8.9-1.6-1.5-1.6-1.5-4-1.6-9v-8.2c-.1-5-.1-7.4-1.7-9-1.6-1.5-4-1.5-9-1.5h-8c-5 0-7.5 0-9.1-1.6-1.6-1.5-1.6-4-1.6-9v-7.8c0-5 0-7.4-1.5-9-1.5-1.6-4-1.6-9-1.6l-8.4-.1c-5 0-7.5 0-9-1.6s-1.6-4-1.6-9L.1 69c0-5 0-7.5 1.5-9 1.5-1.6 4-1.6 9-1.6h9c5 0 7.6 0 9.1 1.5 1.6 1.6 1.6 4 1.6 9.1v37c0 5.1 0 7.6 1.5 9.2 1.6 1.5 4.1 1.5 9.1 1.5h7.4c5 0 7.5 0 9-1.5 1.6-1.6 1.6-4 1.6-9.1V69c0-5 0-7.5 1.6-9 1.5-1.6 4-1.6 9-1.6H78c5 0 7.6 0 9.1-1.6 1.6-1.6 1.6-4 1.6-9V40c0-5 0-7.5-1.6-9-1.5-1.6-4-1.6-9-1.6h-8.5c-5 0-7.6 0-9.1-1.6-1.6-1.6-1.6-4-1.6-9v-8.3Zm30.2 95.5c0 5 0 7.5 1.6 9 1.5 1.6 4 1.6 9 1.6h8c5 0 7.5 0 9-1.5 1.6-1.6 1.6-4 1.6-9.1v-7.6c0-5 0-7.6-1.6-9.1-1.5-1.6-4-1.6-9-1.6h-8c-5 0-7.5 0-9 1.6-1.6 1.5-1.6 4-1.6 9v7.7Zm59 0c0 5 0 7.5 1.5 9 1.6 1.6 4 1.6 9 1.6h8c5 0 7.5 0 9-1.5 1.6-1.6 1.6-4 1.6-9.1v-7.6c0-5 0-7.6-1.5-9.1-1.6-1.6-4-1.6-9.1-1.6h-8c-5 0-7.4 0-9 1.6-1.6 1.5-1.6 4-1.6 9v7.7Z" clip-rule="evenodd"/>
  </g>
  <defs>
    <clipPath id="a">
      <path fill="#fff" d="M0 0h266v234H0z"/>
    </clipPath>
  </defs>
</svg>
