<svg width="534" height="142" viewBox="0 0 534 142" fill="none" xmlns="http://www.w3.org/2000/svg">
<path d="M35.5024 116.84C27.0544 116.84 21.0384 115.005 17.4544 111.336C13.8704 107.667 12.5051 101.821 13.3584 93.8L19.0762 39.6554C19.4181 36.4181 21.4928 33.6225 24.4922 32.3574C30.7625 29.7128 37.5708 34.7652 36.8563 41.5328L31.6624 90.728C31.2357 94.9093 31.7904 97.8533 33.3264 99.56C34.9477 101.267 37.8917 102.12 42.1584 102.12C43.6944 102.12 45.1877 102.035 46.6384 101.864C48.8098 101.481 50.8635 103.219 50.6286 105.411L50.0764 110.565C49.7797 113.335 47.7885 115.66 45.0308 116.054C44.307 116.158 43.5629 116.249 42.7984 116.328C40.4091 116.669 37.9771 116.84 35.5024 116.84ZM7.50716 62.312C3.51882 62.312 0.408186 58.8585 0.823738 54.8918C1.18219 51.4703 4.06687 48.872 7.50716 48.872H50.0576C54.0459 48.872 57.1566 52.3255 56.741 56.2922C56.3826 59.7137 53.4979 62.312 50.0576 62.312H7.50716Z" fill="#6B537E"/>
<path d="M64.3071 115.56C58.9394 115.56 54.7533 110.912 55.3137 105.573L62.8909 33.3848C63.372 28.8006 67.2372 25.32 71.8465 25.32H73.3215C77.8548 25.32 81.3987 29.2315 80.9527 33.7428L79.9164 44.226C79.4797 48.6425 86.2458 52.0687 90.3614 50.408C95.2254 48.36 100.729 47.336 106.873 47.336C113.615 47.336 119.247 48.488 123.769 50.792C128.377 53.096 131.705 56.4667 133.753 60.904C135.887 65.3413 136.655 70.8027 136.057 77.288L132.604 107.661C132.092 112.161 128.284 115.56 123.755 115.56C118.395 115.56 114.249 110.86 114.919 105.541L117.881 82.024C118.393 75.5387 117.113 70.7173 114.041 67.56C111.055 64.3173 106.361 62.696 99.9614 62.696C92.8787 62.696 87.2894 64.4453 83.1934 67.944C79.0974 71.4427 76.7934 76.4773 76.2814 83.048L73.2833 107.613C72.7296 112.15 68.8776 115.56 64.3071 115.56Z" fill="#6B537E"/>
<path d="M179.087 117.096C170.298 117.096 162.831 115.645 156.687 112.744C150.629 109.843 146.106 105.747 143.119 100.456C140.218 95.08 139.151 88.808 139.919 81.64C140.602 74.6427 142.991 68.584 147.087 63.464C151.269 58.344 156.73 54.376 163.471 51.56C170.213 48.744 177.935 47.336 186.639 47.336C194.917 47.336 202.042 48.7013 208.015 51.432C213.989 54.1627 218.426 58.0453 221.327 63.08C224.314 68.0293 225.509 73.8747 224.911 80.616C224.741 81.64 224.527 82.7067 224.271 83.816C224.036 85.3442 222.693 86.376 221.147 86.376H154.926C151.695 86.376 149.176 83.5763 149.516 80.3632C149.809 77.596 152.143 75.496 154.926 75.496H209.344C210.637 75.496 211.13 77.1844 210.04 77.8802C209.124 78.4652 207.909 77.7217 207.882 76.6349C207.815 73.8946 207.134 71.4243 205.839 69.224C204.133 66.3227 201.445 64.104 197.775 62.568C194.191 61.032 189.882 60.264 184.847 60.264C179.898 60.264 175.461 60.9893 171.535 62.44C167.695 63.8907 164.538 66.024 162.063 68.84C159.674 71.5707 158.266 75.0267 157.839 79.208L157.199 83.688C156.602 90.0027 158.437 94.9947 162.703 98.664C167.055 102.248 173.37 104.04 181.647 104.04C187.279 104.04 192.229 103.187 196.495 101.48C198.718 100.547 200.72 99.3935 202.502 98.0204C205.34 95.8339 209.173 94.8496 212.365 96.4768C216.372 98.5194 217.661 103.685 214.164 106.513C212.943 107.5 211.619 108.425 210.191 109.288C206.095 111.763 201.402 113.683 196.111 115.048C190.821 116.413 185.146 117.096 179.087 117.096Z" fill="#6B537E"/>
<path d="M215.288 141.16C210.308 141.16 207.655 135.288 210.945 131.551L228.351 111.782C229.348 110.649 231.165 111.775 230.595 113.172C230.01 114.604 227.865 114.067 228.024 112.528L233.787 56.8604C234.256 52.3214 238.081 48.872 242.645 48.872C247.931 48.872 252.053 53.4497 251.501 58.7068L247.262 99.1005C246.278 108.476 242.405 117.314 236.179 124.392L223.552 138.746C222.203 140.281 220.258 141.16 218.215 141.16H215.288ZM244.469 41.576C241.312 41.576 238.837 40.5947 237.045 38.632C235.253 36.584 234.528 34.1093 234.869 31.208C235.125 28.3067 236.363 25.8747 238.581 23.912C240.8 21.864 243.445 20.84 246.517 20.84C249.675 20.84 252.149 21.864 253.941 23.912C255.733 25.8747 256.459 28.3067 256.117 31.208C255.861 34.1093 254.624 36.584 252.405 38.632C250.272 40.5947 247.627 41.576 244.469 41.576Z" fill="#6B537E"/>
<path d="M293.597 117.096C284.808 117.096 277.341 115.645 271.197 112.744C265.139 109.843 260.616 105.747 257.629 100.456C254.728 95.08 253.661 88.808 254.429 81.64C255.112 74.6427 257.501 68.584 261.597 63.464C265.779 58.344 271.24 54.376 277.981 51.56C284.723 48.744 292.445 47.336 301.149 47.336C309.427 47.336 316.552 48.7013 322.525 51.432C328.499 54.1627 332.936 58.0453 335.837 63.08C338.824 68.0293 340.019 73.8747 339.421 80.616C339.251 81.64 339.037 82.7067 338.781 83.816C338.546 85.3442 337.203 86.376 335.657 86.376H269.436C266.205 86.376 263.686 83.5763 264.026 80.3632C264.319 77.596 266.653 75.496 269.436 75.496H323.854C325.147 75.496 325.64 77.1844 324.55 77.8802C323.634 78.4652 322.419 77.7217 322.392 76.6349C322.325 73.8946 321.644 71.4243 320.349 69.224C318.643 66.3227 315.955 64.104 312.285 62.568C308.701 61.032 304.392 60.264 299.357 60.264C294.408 60.264 289.971 60.9893 286.045 62.44C282.205 63.8907 279.048 66.024 276.573 68.84C274.184 71.5707 272.776 75.0267 272.349 79.208L271.709 83.688C271.112 90.0027 272.947 94.9947 277.213 98.664C281.565 102.248 287.88 104.04 296.157 104.04C301.789 104.04 306.739 103.187 311.005 101.48C313.228 100.547 315.23 99.3935 317.012 98.0204C319.85 95.8339 323.683 94.8496 326.875 96.4768C330.882 98.5194 332.171 103.685 328.674 106.513C327.453 107.5 326.129 108.425 324.701 109.288C320.605 111.763 315.912 113.683 310.621 115.048C305.331 116.413 299.656 117.096 293.597 117.096Z" fill="#6B537E"/>
<path d="M409.525 115.56C404.165 115.56 400.019 110.86 400.689 105.541L403.651 82.024C404.163 75.5387 402.883 70.7173 399.811 67.56C396.825 64.3173 392.131 62.696 385.731 62.696C378.649 62.696 373.059 64.4453 368.963 67.944C364.867 71.4427 362.563 76.4773 362.051 83.048L359.053 107.615C358.499 112.151 354.649 115.56 350.08 115.56C344.712 115.56 340.526 110.91 341.09 105.571L346.273 56.4706C346.729 52.1508 350.372 48.872 354.716 48.872H361.34C362.755 48.872 363.867 50.0836 363.745 51.4933C363.541 53.8551 366.818 55.3316 368.751 53.9595C370.708 52.5709 372.869 51.3871 375.235 50.408C380.27 48.36 385.689 47.336 391.491 47.336C398.574 47.336 404.462 48.488 409.155 50.792C413.934 53.0107 417.39 56.3387 419.523 60.776C421.657 65.2133 422.425 70.7173 421.827 77.288L418.374 107.661C417.862 112.161 414.054 115.56 409.525 115.56Z" fill="#6B537E"/>
<path d="M414.428 141.16C409.448 141.16 406.795 135.288 410.085 131.551L427.491 111.782C428.488 110.649 430.305 111.775 429.735 113.172C429.15 114.604 427.005 114.067 427.164 112.528L432.927 56.8605C433.396 52.3214 437.221 48.872 441.785 48.872C447.071 48.872 451.193 53.4497 450.641 58.7069L446.402 99.1005C445.418 108.476 441.545 117.314 435.319 124.392L422.692 138.746C421.343 140.281 419.398 141.16 417.355 141.16H414.428ZM443.609 41.576C440.452 41.576 437.977 40.5947 436.185 38.632C434.393 36.584 433.668 34.1093 434.009 31.208C434.265 28.3067 435.503 25.8747 437.721 23.912C439.94 21.864 442.585 20.84 445.657 20.84C448.815 20.84 451.289 21.864 453.081 23.912C454.873 25.8747 455.599 28.3067 455.257 31.208C455.001 34.1093 453.764 36.584 451.545 38.632C449.412 40.5947 446.767 41.576 443.609 41.576Z" fill="#6B537E"/>
<path d="M479.681 117.096C470.465 117.096 463.383 115.347 458.433 111.848C453.569 108.264 451.436 103.4 452.033 97.256C452.631 91.2827 455.319 86.632 460.097 83.304C464.876 79.8907 471.617 77.672 480.321 76.648L513.952 72.7676C517.194 72.3934 519.954 75.1084 519.634 78.3567C519.399 80.7284 517.56 82.6248 515.196 82.9308L483.649 87.016C479.297 87.6987 476.097 88.7653 474.049 90.216C472.001 91.5813 470.849 93.5867 470.593 96.232C470.252 99.2187 471.233 101.48 473.537 103.016C475.841 104.467 479.383 105.192 484.161 105.192C489.452 105.192 494.145 104.509 498.241 103.144C502.337 101.779 505.58 99.816 507.969 97.256C510.444 94.696 511.895 91.6667 512.321 88.168L513.729 73.192C514.241 68.84 513.047 65.5547 510.145 63.336C507.329 61.1173 502.892 60.008 496.833 60.008C491.031 60.008 486.252 60.904 482.497 62.696C480.941 63.4559 479.554 64.3692 478.336 65.4359C475.393 68.0127 471.655 70.094 467.822 69.3157C462.39 68.2131 459.38 62.2417 463.376 58.4012C465.731 56.1376 468.564 54.1985 471.873 52.584C478.956 49.0853 487.788 47.336 498.369 47.336C510.316 47.336 519.063 49.6827 524.609 54.376C530.156 59.0693 532.503 65.9387 531.649 74.984L528.914 100.908C528.777 102.207 528.967 103.52 529.467 104.728C531.604 109.886 527.812 115.56 522.229 115.56H518.294C516.471 115.56 514.837 114.433 514.189 112.729C513.065 109.773 509.216 108.9 506.517 110.547C504.12 112.008 501.405 113.253 498.369 114.28C492.823 116.157 486.593 117.096 479.681 117.096Z" fill="#6B537E"/>
</svg>
