<svg width="48" height="48" viewBox="0 0 48 48" fill="none" xmlns="http://www.w3.org/2000/svg">
  <style>
    /* общие настройки анимаций */
    :root{
      --hand-duration: 2400ms;
      --finger-duration: 1000ms;
      --wave-duration: 1800ms;
    }
    svg { overflow: visible; }

    /* легкое покачивание всей ладони */
    .hand {
      transform-box: fill-box;
      transform-origin: 50% 72%;
      animation: hand-sway var(--hand-duration) cubic-bezier(0.25, 0.1, 0.25, 1) infinite;
      will-change: transform;
    }
    @keyframes hand-sway {
      0%   { transform: rotate(-10deg); }
      50%  { transform: rotate(10deg); }
      100% { transform: rotate(-10deg); }
    }

    /* волны по краям — становятся тоньше/толще и немного подпрыгивают */
    .waves { transform-box: fill-box; transform-origin: 50% 50%; will-change: transform; }
    .wave {
      animation: wave-thin var(--wave-duration) cubic-bezier(0.25, 0.1, 0.25, 1) infinite;
      transform-box: fill-box;
      transform-origin: 50% 50%;
    }
    .w2 { animation-delay: 0.36s; opacity: 0.95; }

    @keyframes wave-thin {
      0%   { transform: scaleY(1) translateY(0); }
      40%  { transform: scaleY(0.82) translateY(-1px); }
      60%  { transform: scaleY(0.9) translateY(-0.5px); }
      100% { transform: scaleY(1) translateY(0); }
    }

    /* немного дополнительного «жизни» — тонкое пульсирование центра ладони */
    .palm-shadow {
      transform-box: fill-box;
      transform-origin: 50% 65%;
      animation: palm-pulse 2800ms cubic-bezier(0.25, 0.1, 0.25, 1) infinite;
      opacity: 0.08;
      will-change: transform, opacity;
    }
    @keyframes palm-pulse {
      0%   { transform: scale(1); opacity: 0.08; }
      50%  { transform: scale(1.03); opacity: 0.14; }
      100% { transform: scale(1); opacity: 0.08; }
    }
  </style>

  
  <g class="hand">
    
    <path d="M30.8896 10.8778C32.7137 14.9001 34.9523 19.8361 36.6328 21.7968C36.9608 21.0351 36.9257 19.7578 37.3007 16.6407C37.6393 13.8257 39.9608 13.5586 40.957 13.7578C43.16 14.2172 43.8313 16.4502 43.7578 17.2734C43.6406 18.5859 43.6349 18.5413 43.3945 21.7149C43.0429 26.3554 44.8358 29.8593 44.9999 33.832C44.9999 41.3203 38.4374 45 33.8437 45C30.1687 45 26.4922 42.6484 25.1132 41.4726L18.2225 35.1796C17.3788 34.5234 15.2935 32.3582 14.3787 31.1133C11.885 27.7195 15.4921 25.3828 17.5193 25.9687C17.3599 25.8468 16.3984 24.2851 15.9374 23.5195C14.6999 21.0351 15.9374 19.3803 16.8515 18.9258C18.9257 17.8945 20.4491 19.0546 20.9296 19.6875C20.746 19.375 20.1703 18.1125 19.2421 15.7968C18.314 13.4812 19.8085 12.0508 20.6719 11.625C22.5469 10.7578 24.3281 11.8594 24.7733 12.8437C24.9914 13.3258 26.1677 15.9019 26.6798 17.0382C26.2939 16.096 25.5947 14.2244 25.3475 13.3594C24.8554 11.3203 26.0389 9.9219 26.7889 9.56253C27.8318 9.06285 30.0071 8.93197 30.8671 10.8282L30.8896 10.8778Z" fill="white"/>

    
    <path class="finger f1" d="M26.6737 10.3729C26.8316 9.86184 27.05 9.55397 27.2146 9.3999C27.059 9.44673 26.9156 9.50196 26.789 9.56262C26.039 9.92201 24.8555 11.3204 25.3477 13.3595C25.5949 14.2245 26.294 16.0962 26.68 17.0384L26.4946 16.6283C27.3412 18.5702 28.3952 20.6621 29.1896 22.0131C29.3995 22.3701 29.8592 22.4894 30.2162 22.2794C30.5734 22.0695 30.6926 21.6098 30.4826 21.2528C29.1934 19.0602 27.2303 14.9 26.6692 12.8347C26.4139 11.8952 26.4712 11.0285 26.6737 10.3729Z" fill="#AAAAAA"/>

    
    <path d="M15.9376 23.5196C16.286 24.0986 16.9207 25.1324 17.2784 25.6551C17.7526 26.2254 18.2719 26.7719 18.797 27.2918C19.396 27.8847 20.0185 28.458 20.6081 29.001L20.6579 29.0469C21.2669 29.6078 21.836 30.1332 22.3298 30.6329C22.621 30.9275 23.0959 30.9302 23.3905 30.639C23.6851 30.3479 23.6878 29.873 23.3966 29.5784C22.8737 29.0493 22.2781 28.4997 21.6742 27.9437L21.6319 27.9047C21.037 27.3567 20.4317 26.7993 19.8523 26.2257C18.6553 25.0407 17.6332 23.8479 17.0894 22.6476C16.7047 21.798 16.6102 20.804 16.7152 19.9818C16.7675 19.5725 16.8656 19.236 16.9787 19.0002C17.0167 18.921 17.0516 18.8625 17.0813 18.8195C17.0056 18.852 16.9289 18.8874 16.8515 18.9258C15.9376 19.3803 14.7 21.0353 15.9376 23.5196Z" fill="#AAAAAA"/>

    
    <path class="finger f2" d="M20.824 11.559C20.6647 11.6671 20.4445 11.9283 20.3054 12.4357C20.1488 13.0072 20.1245 13.8108 20.3878 14.78C20.7694 16.184 21.7255 18.0671 22.8197 19.9121C23.9042 21.7404 25.0859 23.468 25.8712 24.5418C26.1157 24.8762 26.0428 25.3454 25.7084 25.5899C25.3741 25.8344 24.9047 25.7615 24.6602 25.4271C23.8517 24.3213 22.6426 22.5536 21.5296 20.6772C21.2309 20.1738 20.9363 19.6577 20.6567 19.1408C20.3657 18.5154 19.8898 17.4125 19.2422 15.797C18.3142 13.4813 19.8086 12.0509 20.672 11.6251C20.7227 11.6016 20.7734 11.5796 20.824 11.559Z" fill="#AAAAAA"/>

    
    <path class="finger f3" d="M37.0136 19.4157C36.9044 20.6073 36.8422 21.2876 36.6463 21.7655C36.6347 21.9149 36.6238 22.0514 36.6125 22.1744C36.575 22.5869 36.8791 22.9517 37.2916 22.9892C37.7041 23.0267 38.0689 22.7228 38.1064 22.3103C38.1287 22.0644 38.1499 21.78 38.1736 21.4583C38.2616 20.2694 38.3872 18.5724 38.7548 16.4402C38.9077 15.5538 39.3044 14.7864 39.7598 14.2863C40.1108 13.9008 40.4146 13.7515 40.6232 13.7143C39.518 13.6373 37.6058 14.1063 37.3009 16.6407C37.162 17.796 37.0793 18.6984 37.0136 19.4157Z" fill="#AAAAAA"/>

    <path class="finger f4" d="M36.0566 11.3351C36.0593 11.7493 36.3972 12.0829 36.8115 12.0802C37.2257 12.0775 37.5593 11.7395 37.5566 11.3253C37.5341 7.8832 34.9173 3.09235 29.2931 3.12912C28.8789 3.13182 28.5453 3.4698 28.548 3.88401C28.5507 4.2982 28.8887 4.63179 29.3028 4.62909C33.8504 4.59936 36.0377 8.44917 36.0566 11.3351Z" fill="#AAAAAA"/>

    
    <path d="M34.316 14.9794C33.9017 14.9821 33.5637 14.6485 33.561 14.2343C33.5522 12.8706 32.9897 11.054 31.7954 9.59244C30.62 8.15388 28.8444 7.06965 26.3657 7.08585C25.9515 7.08855 25.6136 6.75496 25.6109 6.34077C25.6082 5.92656 25.9418 5.58859 26.3559 5.58588C29.3379 5.56639 31.5275 6.89379 32.957 8.64336C34.3677 10.3699 35.0499 12.5179 35.061 14.2245C35.0637 14.6387 34.7301 14.9767 34.316 14.9794Z" fill="#AAAAAA"/>

    
    <path class="palm-shadow" d="M30.8896 10.8778C32.7137 14.9001 34.9523 19.8361 36.6328 21.7968C36.9608 21.0351 36.9257 19.7578 37.3007 16.6407C37.6393 13.8257 39.9608 13.5586 40.957 13.7578C43.16 14.2172 43.8313 16.4502 43.7578 17.2734C43.6406 18.5859 43.6349 18.5413 43.3945 21.7149C43.0429 26.3554 44.8358 29.8593 44.9999 33.832C44.9999 41.3203 38.4374 45 33.8437 45C30.1687 45 26.4922 42.6484 25.1132 41.4726L18.2225 35.1796C17.3788 34.5234 15.2935 32.3582 14.3787 31.1133C11.885 27.7195 15.4921 25.3828 17.5193 25.9687C17.3599 25.8468 16.3984 24.2851 15.9374 23.5195C14.6999 21.0351 15.9374 19.3803 16.8515 18.9258C18.9257 17.8945 20.4491 19.0546 20.9296 19.6875C20.746 19.375 20.1703 18.1125 19.2421 15.7968C18.314 13.4812 19.8085 12.0508 20.6719 11.625C22.5469 10.7578 24.3281 11.8594 24.7733 12.8437C24.9914 13.3258 26.1677 15.9019 26.6798 17.0382C26.2939 16.096 25.5947 14.2244 25.3475 13.3594C24.8554 11.3203 26.0389 9.9219 26.7889 9.56253C27.8318 9.06285 30.0071 8.93197 30.8671 10.8282L30.8896 10.8778Z" fill="#000" />
  </g>

  
  <g class="waves">
    <path class="wave w1" d="M7.31226 26.4139C7.31226 25.9998 6.97647 25.6639 6.56226 25.6639C6.14805 25.6639 5.81226 25.9998 5.81226 26.4139C5.81226 28.1206 6.48037 30.273 7.87975 32.0086C9.29778 33.7675 11.4786 35.1093 14.4607 35.1093C14.8749 35.1093 15.2107 34.7734 15.2107 34.3593C15.2107 33.945 14.8749 33.6093 14.4607 33.6093C11.9819 33.6093 10.2135 32.5134 9.0475 31.0672C7.86289 29.5978 7.31226 27.7776 7.31226 26.4139Z" fill="#AAAAAA"/>
    <path class="wave w2" d="M4.79785 29.2968C4.79785 28.8825 4.46206 28.5468 4.04785 28.5468C3.63364 28.5468 3.29785 28.8825 3.29785 29.2968C3.29785 32.7388 5.88328 37.5468 11.5076 37.5468C11.9218 37.5468 12.2576 37.2109 12.2576 36.7968C12.2576 36.3825 11.9218 36.0468 11.5076 36.0468C6.95998 36.0468 4.79785 32.1828 4.79785 29.2968Z" fill="#AAAAAA"/>
  </g>
</svg>