<svg width="34" height="40" viewBox="0 0 34 40" fill="none" xmlns="http://www.w3.org/2000/svg">
<path d="M25.3179 0C25.815 6.6028e-05 26.2629 0.200626 26.6109 0.601562L33.6704 8.87207C33.919 9.22294 34.0687 9.6742 33.9693 10.0752L32.9253 22.3555C32.8756 22.7563 32.7263 23.1075 32.4282 23.4082L23.7261 31.9297C23.4278 32.2805 23.03 32.4307 22.5825 32.4307H13.3345L5.18019 40L5.82667 32.4307H1.69972C1.20284 32.4306 0.805415 32.2305 0.457532 31.8799C0.109484 31.529 -0.0404306 31.0273 0.00929052 30.5762L2.54542 1.50391C2.64486 0.651785 3.34088 1.362e-05 4.23585 0H25.3179ZM8.76905 15.6807C7.62791 16.8218 6.99963 18.3402 6.99952 19.9551C6.99952 21.5702 7.62781 23.0892 8.76905 24.2305C9.91021 25.3716 11.4286 25.9999 13.0435 26C14.6586 26 16.1764 25.3717 17.3189 24.2305L19.9351 21.6143L18.2554 19.9346L15.6392 22.5488C14.2522 23.9345 11.837 23.9356 10.4487 22.5488C9.75521 21.8565 9.37452 20.9348 9.37452 19.9551C9.37463 18.9743 9.75531 18.0538 10.4487 17.3604L13.065 14.7441L11.3853 13.0645L8.76905 15.6807ZM12.0972 19.2227L13.7769 20.9014L20.9019 13.7764L19.2232 12.0977L12.0972 19.2227ZM19.9556 6.99902C18.3407 6.99908 16.8235 7.62747 15.6812 8.76855L13.065 11.3848L14.7437 13.0645L17.3599 10.4502C18.0534 9.75552 18.9747 9.37408 19.9556 9.37402C20.9353 9.37402 21.8577 9.75471 22.5513 10.4482C23.2447 11.1418 23.6255 12.0643 23.6255 13.0439C23.6254 14.0246 23.2446 14.9453 22.5513 15.6387L19.9351 18.2549L21.6138 19.9346L24.231 17.3184C25.372 16.1772 26.0004 14.6588 26.0005 13.0439C26.0005 11.4289 25.3721 9.90979 24.231 8.76855C23.0897 7.62731 21.5707 6.99902 19.9556 6.99902Z" fill="#fff"/>
</svg>
