<svg version="1.2" xmlns="http://www.w3.org/2000/svg" viewBox="0 0 24 24" width="24" height="24"><style>.a{fill:#fff}</style><path fill-rule="evenodd" class="a" d="m21.8 5.3c0.1 0.2 0.2 0.5 0.2 0.8l-0.7 7.3q0 0.4-0.3 0.7l-5.3 5.1c-0.2 0.1-0.5 0.3-0.8 0.2h-5.7l-5 4.6 0.4-4.6h-2.6c-0.3 0-0.5-0.1-0.7-0.3-0.2-0.2-0.3-0.5-0.3-0.7l1.6-17.5c0-0.5 0.5-0.9 1-0.9h13c0.3 0 0.6 0.1 0.8 0.4zm-4 6.6l0.4-4.5q0-0.4-0.2-0.7l-2.5-2.8c-0.2-0.2-0.5-0.3-0.8-0.3h-7.7c-0.5 0-1 0.3-1 0.9l-0.9 10.2c-0.1 0.2 0.1 0.5 0.2 0.7 0.2 0.2 0.5 0.4 0.8 0.4h7.6c0.3 0 0.5-0.1 0.7-0.3l3.1-2.9q0.3-0.3 0.3-0.7zm-6.1 2h-1.7q-0.1 0-0.2-0.1-0.1-0.1-0.1-0.2l0.1-1.5c0-0.1 0.2-0.3 0.3-0.3h1.7q0.2 0 0.3 0.1 0.1 0.1 0.1 0.3l-0.2 1.4c0 0.2-0.2 0.3-0.3 0.3zm0.2-2.9h-1.7c-0.1 0-0.3-0.1-0.3-0.3l0.5-4.9c0-0.2 0.1-0.3 0.3-0.3h1.7c0.2 0 0.3 0.1 0.3 0.3l-0.5 5c0 0.1-0.1 0.2-0.3 0.2z"/></svg>