<svg width="24" height="21" viewBox="0 0 24 21" fill="none" xmlns="http://www.w3.org/2000/svg">
<path fill-rule="evenodd" clip-rule="evenodd" d="M23.7448 20.1801C23.7425 20.0536 23.7296 19.8849 23.7167 19.8063C23.6991 19.7255 23.6734 19.4431 23.6534 19.1748C23.6277 18.7858 23.6253 18.6498 23.6534 18.5034C23.6862 18.3487 23.6839 18.3018 23.6452 18.2057C23.6206 18.1425 23.6019 18.0417 23.6019 17.9784C23.6019 17.9152 23.589 17.8214 23.5761 17.764C23.5058 17.484 23.4906 17.3621 23.4882 17.0797C23.4882 16.911 23.473 16.7364 23.4601 16.6883C23.4343 16.6028 23.4273 16.6005 23.2761 16.5993C23.1906 16.5993 23.1121 16.5864 23.1039 16.5735C23.0816 16.5384 22.8988 16.5126 22.7278 16.5149C22.6539 16.5173 22.586 16.5044 22.5731 16.4868C22.5555 16.4587 22.3962 16.4188 22.1161 16.3802C22.0376 16.3696 21.9568 16.3474 21.9345 16.3345C21.9111 16.3169 21.8056 16.297 21.699 16.2864C21.2092 16.2384 20.976 16.2056 20.9491 16.1798C20.9338 16.1669 20.8659 16.1552 20.7956 16.154C20.7253 16.154 20.5882 16.1341 20.4874 16.113C20.389 16.0908 20.1464 16.0544 19.9449 16.0322C19.748 16.0064 19.4926 15.9771 19.3766 15.9595C18.9196 15.8986 18.4345 15.8482 18.2376 15.8353C18.1216 15.8271 17.9142 15.8154 17.7783 15.8095C17.6412 15.8013 17.4948 15.7791 17.4549 15.7638C17.3987 15.7439 17.3518 15.7439 17.2803 15.7709C17.2042 15.799 17.1737 15.799 17.1468 15.7732C17.1057 15.7322 17.0073 15.7322 16.9651 15.7732C16.9394 15.799 16.9148 15.799 16.8691 15.7732C16.7859 15.7357 16.5831 15.7029 16.4449 15.7076C16.3839 15.7123 16.316 15.7006 16.2914 15.6877C16.2691 15.6724 16.2258 15.6724 16.1883 15.6877C16.1484 15.7006 16.0945 15.7006 16.0488 15.683C16.009 15.6654 15.7864 15.6549 15.5567 15.6525C15.2286 15.6525 15.1173 15.642 15.0493 15.6092C14.9685 15.5693 14.9486 15.5682 14.8853 15.601C14.829 15.6338 14.7998 15.6338 14.7611 15.6092C14.7306 15.5892 14.6627 15.574 14.6076 15.574C14.5525 15.574 14.5115 15.5611 14.5115 15.5459C14.5115 15.5025 14.4307 15.5154 14.3123 15.581C14.2162 15.6361 14.1963 15.6373 14.1682 15.601C14.1483 15.5787 14.1049 15.5658 14.0674 15.5705C14.0323 15.5752 13.976 15.5658 13.9409 15.5459C13.867 15.5061 13.4382 15.5236 13.2484 15.5764C13.1242 15.6115 13.1113 15.6092 13.0738 15.5588C13.041 15.5107 12.9953 15.5037 12.6824 15.4979C12.4879 15.4932 12.2758 15.4908 12.2102 15.4908C12.1446 15.4908 12.0919 15.4803 12.0919 15.4686C12.0919 15.4568 12.0087 15.4463 11.9056 15.4428C11.8024 15.4381 11.7064 15.4205 11.6911 15.4076C11.656 15.3725 11.3501 15.3725 11.3267 15.4076C11.3021 15.4475 11.1545 15.4428 11.1404 15.4006C11.1299 15.3725 10.8065 15.3397 10.3553 15.3268C10.3401 15.3268 10.2218 15.3315 10.0929 15.3373C9.95692 15.3444 9.85031 15.3373 9.83981 15.3221C9.83161 15.3069 9.72381 15.2869 9.60191 15.2787C9.48121 15.2682 9.35232 15.2506 9.31952 15.2377C9.24572 15.2119 9.23401 15.1288 9.30431 15.1288C9.38751 15.1288 9.53982 15.0655 9.65822 14.9846C9.72142 14.9389 9.80702 14.9085 9.85972 14.9085C9.91242 14.9085 9.99331 14.8803 10.046 14.8452C10.0987 14.8077 10.2124 14.7573 10.2968 14.7315C10.4128 14.694 10.4959 14.6401 10.612 14.5288C10.7654 14.387 10.7783 14.38 10.8826 14.3952C10.9436 14.4034 11.0221 14.4281 11.0572 14.4433C11.1053 14.4679 11.1299 14.4679 11.151 14.4433C11.1709 14.4257 11.206 14.4081 11.2295 14.4081C11.2529 14.4081 11.3127 14.373 11.363 14.3296C11.4111 14.2839 11.4966 14.2312 11.5552 14.2136C11.6114 14.1937 11.6735 14.1632 11.6888 14.1433C11.704 14.1257 11.7919 14.1 11.8833 14.0929C12.325 14.0519 12.3907 14.0426 12.4821 14.0015C12.5324 13.9769 12.6039 13.9289 12.6356 13.8961C12.6707 13.8586 12.741 13.8281 12.8043 13.8199C12.8629 13.8117 12.9812 13.7871 13.0644 13.7648C13.1499 13.7402 13.2964 13.7063 13.3925 13.6863C13.5519 13.6559 13.7054 13.5645 13.7054 13.4989C13.7054 13.486 13.751 13.4508 13.8108 13.425C13.867 13.3969 13.9327 13.3665 13.9573 13.3547C13.9831 13.3442 14.0662 13.3325 14.1471 13.3301C14.2361 13.3301 14.3217 13.3126 14.3662 13.2844C14.4072 13.2563 14.4974 13.234 14.5654 13.2317C14.6381 13.2317 14.7048 13.2235 14.7201 13.2118C14.7353 13.2036 14.8267 13.1919 14.9216 13.1919C15.02 13.1895 15.1513 13.1766 15.2146 13.1637C15.3962 13.1262 15.8157 13.1485 15.9492 13.2012C16.1039 13.2645 16.1836 13.2258 16.3406 13.0044C16.4132 12.9013 16.4261 12.7466 16.3605 12.7466C16.3277 12.7466 16.3195 12.7009 16.3195 12.5111C16.3195 12.3845 16.3066 12.2709 16.2914 12.2603C16.2761 12.2521 16.2656 12.1818 16.2656 12.1068C16.2656 12.0318 16.2504 11.9369 16.2328 11.8924C16.1894 11.7869 16.1473 11.4577 16.1519 11.2831C16.1543 11.1976 16.1449 11.1366 16.1273 11.1366C16.1074 11.1366 16.0969 11.0558 16.0969 10.9339C16.0969 10.8226 16.0863 10.7195 16.0723 10.7043C16.0465 10.6785 15.9984 10.409 15.9586 10.0399C15.9434 9.91796 15.9211 9.75626 15.9035 9.67896C15.886 9.60516 15.8754 9.42586 15.8789 9.28286C15.8813 9.21726 15.9188 9.08016 15.8895 9.02046C15.8742 8.99466 15.8157 8.97236 15.791 8.95476C15.7383 8.91966 15.6692 8.88916 15.634 8.88916C15.6012 8.88916 15.5602 8.86926 15.5403 8.84586C15.5169 8.82006 15.4548 8.80596 15.361 8.80596C15.2778 8.80596 15.1583 8.78606 15.0927 8.76266C15.0271 8.74036 14.9462 8.72166 14.9158 8.72516C14.8853 8.72746 14.8044 8.71696 14.7365 8.69706C14.6627 8.67706 14.5549 8.66886 14.4682 8.68176C14.3592 8.69466 14.317 8.68886 14.2994 8.65956C14.2842 8.63376 14.1658 8.60916 13.9174 8.58686C13.7159 8.56926 13.4276 8.54116 13.2777 8.52596C13.1242 8.51076 12.9472 8.49316 12.8863 8.48846C12.8254 8.48146 12.7422 8.49076 12.7 8.50606C12.6414 8.52826 12.6086 8.52356 12.5535 8.48846C12.4985 8.45326 12.4703 8.44866 12.427 8.47326C12.3836 8.49546 12.3485 8.49546 12.2934 8.47326C12.2208 8.44506 11.8891 8.41816 11.3736 8.40526C11.2341 8.40056 11.1088 8.38296 11.0678 8.35956L10.9975 8.32206L11.0654 8.30916C11.1006 8.30446 11.1615 8.27166 11.2037 8.23306C11.2599 8.18026 11.3068 8.16736 11.4263 8.16736C11.5318 8.16736 11.5857 8.15446 11.6079 8.12406C11.6302 8.09356 11.6993 8.07596 11.8458 8.06776C12.1458 8.05256 12.318 8.02796 12.318 7.99746C12.318 7.95416 12.5348 7.86157 12.6367 7.86157C12.693 7.86157 12.7609 7.85107 12.7902 7.83347C12.8277 7.81357 12.8535 7.81826 12.884 7.84866C12.9367 7.90376 12.9472 7.90147 13.0328 7.83347C13.0726 7.80537 13.1394 7.78077 13.1839 7.78077C13.2285 7.78077 13.2648 7.76546 13.2648 7.75026C13.2648 7.73736 13.287 7.72446 13.3152 7.72446C13.3456 7.72446 13.3984 7.68936 13.4288 7.64836C13.464 7.60846 13.5272 7.55927 13.5706 7.53937C13.6444 7.50889 13.6514 7.51122 13.6514 7.55926C13.6514 7.66586 13.9069 7.66477 14.0909 7.55697C14.1412 7.52647 14.1998 7.50185 14.2244 7.50185C14.2467 7.50185 14.2643 7.49131 14.2643 7.47374C14.2643 7.45851 14.3381 7.44795 14.4283 7.44795C14.5396 7.44795 14.6029 7.43506 14.6252 7.4046C14.6732 7.34835 14.7869 7.35187 14.7974 7.41163C14.8044 7.45264 14.8103 7.45264 14.8478 7.41631C14.8759 7.39053 14.9697 7.36828 15.0974 7.35774C15.2134 7.34719 15.3118 7.32727 15.3165 7.30969C15.3411 7.23587 15.4583 7.14331 15.5239 7.14331C15.5637 7.14331 15.627 7.13042 15.6657 7.1105C15.7219 7.08589 15.7547 7.09057 15.8379 7.13041C15.9258 7.17025 15.9563 7.17143 16.0547 7.14331C16.1156 7.12339 16.1941 7.09292 16.2234 7.07066C16.2539 7.0484 16.309 7.03081 16.3394 7.03081C16.3746 7.03081 16.4097 7.02026 16.4179 7.00269C16.4308 6.98511 16.4918 6.98278 16.5773 6.99215C16.6757 7.00739 16.7214 7.00034 16.739 6.97691C16.7542 6.95465 16.7741 6.95231 16.8116 6.96989C16.8398 6.98512 16.9206 6.998 16.9862 6.998C17.0518 6.998 17.1175 7.01558 17.128 7.03315C17.1632 7.08823 17.4889 7.00738 17.4889 6.94527C17.4889 6.93004 17.5088 6.92067 17.5299 6.92067C17.5674 6.92067 17.5733 6.86795 17.5733 6.62071C17.5733 6.45667 17.5557 6.27738 17.5405 6.227C17.5229 6.17192 17.4971 6.02194 17.4842 5.89305C17.4538 5.55676 17.3881 4.99316 17.3776 4.99316C17.3752 4.99316 17.3694 4.90762 17.3647 4.80568C17.3577 4.68148 17.3401 4.60413 17.3096 4.57367C17.2815 4.5432 17.2698 4.50102 17.2815 4.44243C17.2897 4.39439 17.2838 4.28542 17.2686 4.20223C17.2335 4.02764 17.1854 3.64682 17.1725 3.42419C17.1655 3.33631 17.1479 3.19922 17.1327 3.11602C17.1175 3.03517 17.1104 2.9344 17.1175 2.89691C17.1245 2.85707 17.1198 2.7727 17.1093 2.70474C17.0893 2.59108 17.0764 2.57585 17.0026 2.57351C16.9569 2.56882 16.8784 2.58874 16.8257 2.611C16.773 2.63561 16.6558 2.65904 16.5632 2.66373C16.4695 2.66842 16.3383 2.68365 16.2703 2.69888C16.1484 2.727 16.0758 2.71646 16.0406 2.66607C16.0277 2.6485 15.9973 2.6485 15.9469 2.67076C15.9094 2.68834 15.8203 2.70591 15.7547 2.70591C15.6891 2.70591 15.593 2.72583 15.5403 2.74927L15.3985 2.81957C15.3306 2.85238 15.1712 2.84769 15.136 2.81137C15.0903 2.76801 14.4974 2.77856 14.4283 2.82895C14.3978 2.84886 14.3545 2.85941 14.3322 2.85355C14.31 2.84535 14.2713 2.8559 14.2443 2.87816C14.2197 2.90276 14.1506 2.92854 14.0955 2.93675C14.0077 2.95432 13.9924 2.94963 13.9819 2.89691C13.9643 2.84418 13.9538 2.84066 13.8436 2.85941C13.778 2.8723 13.6714 2.87933 13.6081 2.87699C13.5448 2.8723 13.4593 2.88519 13.4183 2.89925C13.3749 2.91683 13.3292 2.91683 13.2999 2.90394C13.2741 2.8887 13.2238 2.89105 13.1757 2.90628C13.1148 2.9262 13.0867 2.92386 13.0492 2.89339C12.9859 2.83832 12.7738 2.81254 12.6906 2.85238C12.6379 2.87699 12.5922 2.8723 12.4738 2.83246C12.3204 2.77973 12.2418 2.78442 11.9993 2.85472C11.9138 2.87933 11.8446 2.88519 11.813 2.86996C11.7884 2.85707 11.7122 2.84535 11.6431 2.84535C11.574 2.84535 11.5095 2.8348 11.5036 2.81957C11.4755 2.77622 10.96 2.76684 10.7561 2.80903C10.6026 2.84183 10.5463 2.84418 10.4983 2.81606C10.4608 2.79614 10.3846 2.79145 10.3014 2.80082C10.039 2.83598 9.68281 2.80317 9.63241 2.74224C9.60431 2.70943 9.58672 2.70708 9.52112 2.73403C9.46252 2.7563 9.41791 2.75864 9.36401 2.73638C9.32301 2.72115 9.20002 2.70826 9.08872 2.70826C8.97972 2.70357 8.81331 2.69302 8.72431 2.68248C8.63051 2.67193 8.52511 2.67428 8.48991 2.68482C8.45011 2.70005 8.38102 2.69771 8.31532 2.68013C8.21222 2.65436 7.88881 2.62741 7.63101 2.62741C7.56541 2.62741 7.49981 2.62038 7.48691 2.61217C7.47171 2.60397 7.35101 2.58991 7.21621 2.58171C7.08501 2.57468 6.96312 2.5571 6.94792 2.54421C6.93272 2.52898 6.89281 2.51375 6.86001 2.51375C6.82961 2.51375 6.78742 2.50086 6.77102 2.48328C6.74052 2.45282 6.55191 2.41298 6.11131 2.3415C6.00471 2.32392 5.91212 2.304 5.90162 2.2958C5.86412 2.25245 5.75511 2.21027 5.68131 2.21027C5.63561 2.21027 5.57582 2.19972 5.54772 2.18566C5.52192 2.17277 5.43872 2.13996 5.36022 2.11535C5.08482 2.01927 4.95362 1.96654 4.92312 1.93608C4.90792 1.91616 4.87042 1.90327 4.84702 1.90327C4.82122 1.90327 4.78141 1.88101 4.75321 1.85054C4.72861 1.82242 4.67011 1.79195 4.62441 1.78258C4.57631 1.77438 4.48492 1.71228 4.41232 1.64666C4.34432 1.58104 4.25761 1.51074 4.22011 1.4873C4.15681 1.44746 4.14162 1.39942 4.14982 1.28811C4.15452 1.26233 4.13691 1.23538 4.11231 1.22717C4.08651 1.21897 4.07131 1.17679 4.07131 1.12406C4.07131 1.07602 4.05611 1.01275 4.04081 0.984625C4.02561 0.954165 4.01042 0.866285 4.00802 0.790125C4.00802 0.713955 3.99281 0.645995 3.98221 0.636625C3.96931 0.629595 3.96002 0.581545 3.96002 0.531165C3.96002 0.480785 3.95181 0.430395 3.94241 0.422195C3.93191 0.413995 3.92012 0.358915 3.91662 0.300335C3.90142 0.0472347 3.85332 -0.0254154 3.72912 0.00739456C3.67412 0.0226246 3.56981 0.206595 3.56981 0.287445C3.56981 0.317905 3.56282 0.348375 3.55462 0.357745C3.52412 0.390555 3.51121 0.941275 3.54171 0.958855C3.55691 0.967055 3.57922 1.07485 3.58972 1.19671C3.59792 1.3174 3.61551 1.43106 3.62951 1.44629C3.67291 1.50136 3.76081 2.01693 3.79591 2.40126C3.81351 2.60866 3.83581 2.79731 3.84161 2.8184C3.84981 2.84301 3.86152 2.90745 3.86622 2.96721C3.87332 3.02345 3.89081 3.09376 3.90371 3.11837C3.91431 3.14414 3.93651 3.24491 3.94711 3.34568C3.95531 3.44645 3.97521 3.5648 3.98811 3.6105C4.00101 3.65385 4.02561 3.79446 4.04321 3.91632C4.06071 4.04053 4.09362 4.15067 4.11582 4.16707C4.14042 4.18465 4.15571 4.21746 4.15571 4.24089C4.15571 4.26667 4.20601 4.33932 4.26701 4.40494C4.32791 4.47055 4.37832 4.54086 4.37832 4.55961C4.37832 4.57718 4.40881 4.59242 4.44861 4.59242C4.50371 4.59242 4.51891 4.60531 4.51891 4.66272C4.51891 4.73068 4.63022 4.81623 4.72632 4.81623C4.74862 4.81623 4.79432 4.85372 4.82712 4.89942C4.88212 4.97207 4.90091 4.98026 4.98411 4.96503C5.06021 4.95214 5.08722 4.958 5.12002 5.00604C5.14462 5.03885 5.17271 5.05877 5.18561 5.05174C5.20081 5.04354 5.24891 5.05408 5.29461 5.07752C5.35321 5.10798 5.39541 5.11267 5.44811 5.09275C5.53131 5.06228 5.76912 5.13259 5.76912 5.18883C5.76912 5.23687 5.83241 5.25679 5.90511 5.23922C5.93791 5.23102 5.99292 5.24391 6.02582 5.26501C6.11952 5.32594 6.29411 5.35289 6.34211 5.31305C6.39491 5.27204 6.62222 5.35639 6.64562 5.42904C6.65852 5.47005 6.68662 5.48178 6.78742 5.47709C6.86362 5.4724 6.92332 5.48528 6.93622 5.5052C6.95142 5.53332 6.98421 5.53801 7.03701 5.52278C7.08031 5.50989 7.19161 5.49817 7.28421 5.49466C7.32761 5.49231 7.36741 5.50286 7.39081 5.48997C7.42361 5.47239 7.44941 5.42904 7.49751 5.39623C7.60641 5.31538 7.78572 5.32241 7.79632 5.40912C7.79862 5.42904 7.78342 5.44427 7.78922 5.45482C7.79982 5.46771 7.82202 5.43724 7.84432 5.4267C7.89942 5.39623 7.95561 5.37865 7.96851 5.38569C7.98371 5.39389 7.95561 5.41849 7.97321 5.43373C7.99081 5.4513 8.02942 5.41146 8.08452 5.40795C8.17362 5.39975 8.30711 5.39975 8.41731 5.4056C8.41261 5.42787 8.43251 5.47123 8.49811 5.5474C8.52041 5.572 8.43251 5.52981 8.42431 5.50637C8.41731 5.48645 8.38682 5.46888 8.35872 5.46888C8.33292 5.46888 8.29311 5.48645 8.27551 5.50637C8.25561 5.53098 8.22752 5.5474 8.20992 5.5474C8.19232 5.5474 8.16892 5.56496 8.15952 5.58722C8.15132 5.60949 8.11972 5.62707 8.09152 5.62707L7.58651 5.8415C7.59711 5.86377 7.53381 5.89188 7.51391 5.90945C7.47401 5.94929 7.43771 5.9903 7.43071 6.00788C7.42361 6.02311 7.34751 6.06295 7.25371 6.09576C7.16231 6.12857 7.08151 6.16138 7.07451 6.16958C7.03931 6.21528 6.93502 6.25747 6.91982 6.23286C6.89992 6.19537 6.74992 6.19537 6.72762 6.23286C6.71712 6.2481 6.68191 6.25864 6.65151 6.25864C6.58581 6.25864 6.30811 6.36175 6.05501 6.48126C5.95901 6.52462 5.86871 6.56447 5.85351 6.56447C5.84061 6.56447 5.82301 6.57266 5.81841 6.58438C5.81131 6.59727 5.74222 6.66055 5.65672 6.72148C5.57352 6.78241 5.48791 6.85271 5.46681 6.87614C5.43871 6.91129 5.38131 6.92419 5.24421 6.92419C5.08721 6.92419 5.05201 6.93238 4.99701 6.9898C4.91141 7.08119 4.76261 7.14447 4.63841 7.14681C4.57981 7.14681 4.50722 7.16439 4.47672 7.18782C4.44862 7.21009 4.39821 7.22766 4.37011 7.22766C4.33961 7.22766 4.27631 7.25813 4.22831 7.29328C4.18031 7.33078 4.11461 7.3671 4.08421 7.37882C4.05141 7.38936 4.01861 7.41866 4.01151 7.44912C3.98931 7.52529 3.85802 7.60026 3.74912 7.59796C3.69872 7.59556 3.65772 7.60617 3.65772 7.61787C3.65772 7.64837 3.41511 7.72916 3.31901 7.72916C3.27801 7.72916 3.23822 7.73976 3.23002 7.75376C3.21942 7.76666 3.17962 7.78896 3.13622 7.79716C3.09522 7.80766 3.04022 7.83226 3.01792 7.85216C2.99562 7.87216 2.88901 7.93536 2.78241 7.99166C2.67571 8.05026 2.58081 8.10766 2.57261 8.12056C2.56211 8.13576 2.50471 8.15566 2.44611 8.16386C2.38751 8.17206 2.29961 8.21196 2.25161 8.24476C2.20351 8.28226 2.13791 8.31036 2.10751 8.31036C2.07231 8.31036 2.04651 8.32326 2.04651 8.33846C2.04651 8.35366 2.02191 8.36426 1.99611 8.36426C1.96801 8.36426 1.89301 8.40526 1.82741 8.45326C1.72191 8.52716 1.69382 8.53646 1.57202 8.52596C1.39032 8.50836 1.32712 8.55876 1.32242 8.72866C1.31772 8.85986 1.37282 9.08016 1.42552 9.14576C1.44542 9.16806 1.48061 9.27466 1.50631 9.38606C1.53101 9.49736 1.56961 9.62156 1.58951 9.66376C1.61181 9.70476 1.62941 9.75976 1.62941 9.78436C1.63171 9.81016 1.64231 9.83946 1.65521 9.84766C1.66811 9.85586 1.70321 9.95666 1.72781 10.0727C1.75361 10.1864 1.78412 10.2777 1.80052 10.2777C1.81332 10.2777 1.82512 10.2977 1.82512 10.3176C1.82512 10.3574 1.87782 10.5449 1.95162 10.7793C1.97392 10.8496 1.99262 10.9433 1.99262 10.9913C1.99262 11.0394 2.00551 11.0851 2.02541 11.0921C2.04531 11.0968 2.06061 11.1331 2.06291 11.1683C2.06761 11.289 2.10861 11.446 2.13091 11.4331C2.15321 11.4179 2.18712 11.5514 2.18712 11.6534C2.18712 11.6909 2.20472 11.7389 2.22812 11.76C2.25042 11.7823 2.26801 11.8326 2.26801 11.869C2.26801 11.9088 2.28321 11.9428 2.29841 11.9475C2.31371 11.9545 2.34181 12.0529 2.35471 12.1666C2.37231 12.2885 2.40511 12.4045 2.43551 12.4502C2.47071 12.4912 2.49061 12.5708 2.49061 12.6365V12.7501H2.67222C2.77302 12.7501 2.85391 12.7349 2.85391 12.722C2.85391 12.6939 3.19482 12.5275 3.25342 12.5275C3.27102 12.5275 3.31201 12.5099 3.34131 12.4865C3.37181 12.4642 3.43271 12.4466 3.48071 12.4431C3.52411 12.4431 3.57921 12.4302 3.59911 12.4103C3.61671 12.3927 3.70222 12.367 3.79122 12.3541C3.87912 12.3435 3.99632 12.3236 4.05372 12.3142C4.11002 12.3072 4.17212 12.2838 4.19082 12.2592C4.23182 12.2088 4.26111 12.2135 4.32671 12.2791C4.39471 12.3447 4.49551 12.3494 4.61031 12.2873C4.67591 12.2545 4.73921 12.2463 4.85281 12.2592C4.99461 12.2744 5.01451 12.2697 5.10241 12.1959C5.24651 12.074 5.39071 12.06 5.41761 12.1701C5.43291 12.2228 5.54891 12.2463 5.54891 12.1959C5.54891 12.183 5.63791 12.1713 5.74571 12.1736C5.88751 12.1736 5.95311 12.1631 5.99061 12.1279C6.01641 12.1033 6.06091 12.0822 6.08671 12.0822C6.11251 12.0822 6.13241 12.0717 6.13241 12.0576C6.13241 12.0436 6.19102 12.0248 6.26362 12.0143C6.41012 11.9943 6.54952 11.9416 6.54952 11.9112C6.54952 11.8983 6.56712 11.8889 6.59052 11.8889C6.61402 11.8889 6.63151 11.8994 6.63151 11.917C6.63151 11.9299 6.66201 11.9428 6.70181 11.9428C6.73701 11.9428 6.80031 11.9557 6.84131 11.9779C6.88931 11.9979 6.91981 12.0002 6.93031 11.9826C6.94321 11.9674 7.01942 11.9393 7.10262 11.924C7.18812 11.9088 7.36741 11.8713 7.50221 11.8432C7.63811 11.8174 7.76461 11.7776 7.78811 11.7553C7.81851 11.7225 7.85842 11.7202 8.00012 11.7471C8.27322 11.7952 8.37161 11.7881 8.41961 11.7166C8.45481 11.6709 8.47002 11.6639 8.50282 11.692C8.53332 11.7166 8.60942 11.6522 8.59892 11.6967C8.58132 11.7729 8.56841 11.8256 8.56141 11.8608C8.55911 11.8655 8.55672 11.8737 8.55322 11.8807C8.50982 11.9744 8.41491 11.999 8.37631 11.999C8.29541 11.999 8.24032 12.0471 8.24032 12.1174C8.24032 12.1432 8.22282 12.1678 8.19932 12.1678C8.17362 12.1678 8.12081 12.1924 8.08331 12.2228C8.04351 12.2533 7.98492 12.2791 7.95442 12.2791C7.91932 12.2791 7.87832 12.292 7.86302 12.3072C7.84782 12.3224 7.77992 12.34 7.71192 12.3424C7.60532 12.347 7.58301 12.3576 7.54781 12.4361C7.51971 12.4947 7.48691 12.5251 7.44711 12.5251C7.41431 12.5275 7.36621 12.558 7.34041 12.5978C7.30301 12.654 7.27952 12.6658 7.23382 12.6529C7.20102 12.6423 7.09441 12.6283 6.99951 12.6224C6.85301 12.6154 6.80971 12.6271 6.72651 12.681C6.67141 12.7185 6.61981 12.7513 6.61051 12.7513C6.60111 12.7513 6.54952 12.7818 6.49682 12.8239C6.39842 12.9001 6.24722 12.9751 6.01872 13.0712C5.95082 13.097 5.87691 13.1368 5.85001 13.1567C5.82771 13.179 5.75391 13.2118 5.68601 13.2376C5.61561 13.2598 5.48441 13.3266 5.39541 13.3887C5.17861 13.5282 4.98642 13.5809 4.89972 13.5305C4.85872 13.5024 4.83642 13.5 4.82942 13.5235C4.82242 13.541 4.78961 13.5539 4.75091 13.5539C4.71341 13.5539 4.65011 13.5867 4.61261 13.6242C4.53411 13.7027 4.51421 13.7074 4.47091 13.6641C4.45091 13.6442 4.42752 13.6488 4.39002 13.6863C4.26932 13.8082 4.11001 13.8703 4.03381 13.8281C3.99861 13.8059 3.97291 13.8176 3.92251 13.8691C3.88731 13.909 3.80181 13.9547 3.73621 13.9722C3.67061 13.9898 3.51942 14.0426 3.40812 14.0882C3.29212 14.1339 3.15262 14.1773 3.09992 14.1914C2.99332 14.2136 2.88081 14.2722 2.83511 14.3273C2.80701 14.3624 2.64291 14.4105 2.49181 14.4327C2.45661 14.4374 2.40861 14.4679 2.38521 14.5007C2.35231 14.5487 2.32191 14.5593 2.25631 14.5487C2.17541 14.5359 2.08401 14.5558 1.94581 14.612C1.88251 14.6366 1.51101 14.7233 1.46301 14.7233C1.44541 14.7233 1.39742 14.7538 1.35642 14.7913C1.31652 14.8288 1.26031 14.8616 1.23451 14.8616C1.20871 14.8616 1.17942 14.8721 1.17362 14.8839C1.16542 14.8968 1.05992 14.919 0.938115 14.9272C0.817415 14.9354 0.682614 14.9647 0.636914 14.9858C0.591214 15.0081 0.440115 15.0514 0.295915 15.0795C0.154215 15.1077 0.0276158 15.1498 0.0136158 15.1686C-0.0274842 15.2272 0.0335139 15.8962 0.0768139 15.8705C0.0897139 15.8634 0.101415 15.9209 0.101415 15.997C0.101415 16.0732 0.116717 16.181 0.141317 16.2314C0.163517 16.2864 0.171714 16.3731 0.165914 16.4435C0.157714 16.5348 0.172915 16.618 0.226815 16.7622C0.283115 16.9063 0.303014 17.0071 0.303014 17.1559C0.303014 17.3047 0.313514 17.3633 0.344014 17.3832C0.394414 17.4113 0.440114 17.6609 0.447114 17.9386C0.449414 18.0499 0.462313 18.1202 0.486913 18.1284C0.504513 18.1331 0.519716 18.187 0.519716 18.2491C0.519716 18.3112 0.527917 18.3557 0.544317 18.3557C0.574817 18.3557 0.599415 18.4741 0.629915 18.7647C0.642815 18.8889 0.673216 19.033 0.695516 19.0834C0.720116 19.1338 0.745913 19.2041 0.754113 19.2345C0.769313 19.2873 0.791614 19.2955 0.905214 19.2931C1.11031 19.2908 1.40562 19.3154 1.42552 19.3365C1.46652 19.3775 1.53682 19.3494 1.62002 19.2556C1.70322 19.1642 1.71611 19.1595 1.93871 19.1467C2.25981 19.1244 2.35001 19.1138 2.47891 19.0787C2.62541 19.0412 2.63241 19.0412 2.63241 19.0916C2.63241 19.1244 2.65231 19.1326 2.72611 19.1174C2.78121 19.1068 2.82691 19.1103 2.83741 19.1279C2.84801 19.1455 2.87492 19.1502 2.89602 19.1431C2.92182 19.1326 2.93701 19.1431 2.93701 19.1677C2.93701 19.2076 2.99331 19.2416 3.04841 19.2416C3.06361 19.2416 3.09641 19.1959 3.12451 19.1361C3.16551 19.0482 3.18782 19.033 3.27572 19.0271C3.34362 19.0201 3.38112 19.0295 3.38112 19.0494C3.38112 19.0717 3.40691 19.0752 3.45731 19.0623C3.95531 18.9357 4.29392 18.9182 4.41702 18.992C4.50482 19.0447 4.55872 19.04 4.63722 18.9721C4.67242 18.9416 4.73102 18.9346 4.87282 18.9475C5.40822 18.9978 5.45631 18.9978 5.56291 18.9521C5.61921 18.9275 5.69421 18.9088 5.72701 18.9088C5.75981 18.9088 5.80311 18.8936 5.82071 18.876C5.84651 18.8502 5.87111 18.8514 5.93441 18.8889C5.99061 18.924 6.07381 18.9369 6.22031 18.9346C6.32921 18.9346 6.51322 18.9521 6.62692 18.9803C6.82142 19.026 6.83431 19.026 6.85891 18.9826C6.87881 18.9475 6.91981 18.9346 7.00301 18.9346C7.06631 18.9346 7.19051 18.9369 7.27831 18.9369C7.36621 18.9393 7.43771 18.9287 7.43771 18.9147C7.43771 18.8971 7.48812 18.8818 7.54902 18.8713C7.61002 18.8608 7.66031 18.8385 7.66031 18.8256C7.66031 18.8104 7.67792 18.7998 7.70022 18.7998C7.72602 18.7998 7.74352 18.808 7.74352 18.8197C7.74352 18.8654 7.90991 18.9381 8.01651 18.9381C8.10441 18.9381 8.14781 18.9205 8.21571 18.8502C8.31651 18.7471 8.35171 18.7647 8.39501 18.9439C8.42781 19.0775 8.50051 19.108 8.61181 19.04C8.64691 19.0178 8.75361 18.9967 8.84971 18.9943C9.00901 18.9896 9.02191 18.992 9.04881 19.0599C9.09451 19.1818 9.25621 19.1865 9.38511 19.0682C9.42031 19.0353 9.47071 19.0049 9.49181 19.0025C9.51751 19.0025 9.55501 18.9896 9.58321 18.9779C9.61131 18.965 9.65111 18.9826 9.69211 19.0236C9.78591 19.1174 9.92651 19.0787 10.1444 18.89C10.2827 18.774 10.3436 18.7694 10.3647 18.8795C10.3729 18.9252 10.3729 18.9803 10.3647 19.0014C10.3413 19.0623 10.4081 19.0869 10.6049 19.0904C10.7033 19.0904 10.8217 19.1033 10.8627 19.115C10.9236 19.1303 10.9541 19.1221 11.0115 19.0693C11.0596 19.026 11.1181 19.0037 11.1978 18.999C11.39 18.9908 11.5341 18.9592 11.5669 18.9182C11.595 18.883 11.6068 18.8924 11.6372 18.9768C11.6724 19.0705 11.6806 19.0799 11.7638 19.0646C11.8821 19.0447 12.0063 18.9463 12.0673 18.8221C12.113 18.733 12.2946 18.5748 12.3532 18.5748C12.366 18.5748 12.3965 18.5549 12.4211 18.5315C12.4258 18.5291 12.4317 18.5315 12.4387 18.5338C12.4516 18.5268 12.4645 18.5209 12.4785 18.5139C12.4961 18.4963 12.5195 18.4835 12.5547 18.4835L12.577 18.4506C12.577 18.5116 12.6379 18.4963 12.7129 18.4225C12.7504 18.385 12.7914 18.3522 12.8043 18.3522C12.8289 18.3522 12.8301 18.3675 12.8394 18.5467C12.8547 18.8197 12.8594 18.8397 12.9156 18.8748C12.9566 18.9029 12.9812 18.9029 13.0035 18.8818C13.0585 18.8256 13.1347 18.849 13.1347 18.9229C13.1347 18.958 13.1453 18.9908 13.1628 18.9908C13.1757 18.9908 13.1886 19.0236 13.1886 19.0588C13.1886 19.0963 13.1992 19.1326 13.2167 19.1443C13.2449 19.1619 13.4112 19.0857 13.4112 19.0529C13.4112 18.9943 13.5835 18.9369 13.7546 18.9369C13.8788 18.9369 13.9467 18.9217 13.9748 18.8936C13.9995 18.8713 14.0639 18.8537 14.119 18.8537C14.174 18.8537 14.2151 18.8385 14.2151 18.8256C14.2151 18.753 14.3217 18.8127 14.392 18.9264C14.4377 18.9967 14.4951 19.0599 14.5185 19.0682C14.5443 19.0764 14.5818 19.1033 14.6017 19.1232C14.6217 19.1455 14.6521 19.1513 14.665 19.1431C14.6978 19.1209 14.8044 19.2287 14.7986 19.2791C14.7904 19.3623 14.8056 19.3822 14.8994 19.3822C14.9603 19.3822 15.0025 19.3669 15.013 19.3412C15.0212 19.3166 15.0458 19.3002 15.0681 19.3002C15.0903 19.3002 15.1056 19.2873 15.1056 19.2697C15.1056 19.2322 15.2192 19.1385 15.2649 19.1338C15.2825 19.1338 15.3329 19.0857 15.3739 19.0283C15.5005 18.8514 15.6083 18.7987 15.6083 18.9076C15.6083 18.9709 15.6762 19.0295 15.8133 19.0892C15.8871 19.1197 15.9317 19.1244 15.9516 19.1045C15.9914 19.0646 16.1062 19.0693 16.1062 19.1115C16.1062 19.1291 16.1344 19.1818 16.1719 19.2275C16.2281 19.2978 16.248 19.306 16.3359 19.2884C16.391 19.2779 16.4671 19.2451 16.5058 19.2158C16.5867 19.1502 16.7437 19.1396 16.7636 19.1982C16.7718 19.2228 16.814 19.2533 16.8573 19.2685C16.923 19.2908 16.9464 19.2838 16.9968 19.2404C17.0319 19.2123 17.0858 19.1877 17.1233 19.1877C17.1995 19.1877 17.326 19.1314 17.326 19.0998C17.326 19.0869 17.346 19.0752 17.367 19.0752C17.387 19.0752 17.4432 19.0447 17.4889 19.0049C17.5897 18.9217 17.5979 18.9217 17.6096 18.9978C17.6166 19.0459 17.6377 19.0588 17.6986 19.0611C17.742 19.0635 17.7877 19.0857 17.8018 19.1115C17.8346 19.1701 17.8955 19.1701 17.9963 19.1115C18.1029 19.0482 18.2154 19.0963 18.2154 19.2006C18.2154 19.2896 18.3162 19.34 18.4146 19.2966C18.5353 19.2416 18.6091 19.1959 18.6466 19.1455C18.677 19.0998 18.6864 19.1045 18.7403 19.1959C18.7755 19.2545 18.8013 19.3353 18.8013 19.3798C18.8013 19.4677 18.8165 19.4759 19.0309 19.5064C19.1141 19.5169 19.195 19.5111 19.2477 19.4888C19.3086 19.463 19.3391 19.463 19.3695 19.4865C19.3953 19.5111 19.4422 19.5122 19.5289 19.4911C19.6754 19.4607 19.9378 19.4935 19.973 19.5474C20.0214 19.6286 20.0652 19.6529 20.1042 19.62C20.1652 19.5638 20.2202 19.579 20.2202 19.6529C20.2202 19.6786 20.253 19.7419 20.2941 19.7911C20.3503 19.8614 20.3948 19.8825 20.464 19.8849C20.5143 19.8872 20.5647 19.8767 20.5753 19.8626C20.5835 19.845 20.6432 19.8063 20.7042 19.7689C20.7651 19.729 20.8225 19.695 20.8284 19.6833C20.8682 19.6306 20.9596 19.6306 21.01 19.6857C21.0381 19.7138 21.0756 19.7407 21.0955 19.7407C21.1131 19.7407 21.1354 19.7583 21.1436 19.7782C21.1541 19.8087 21.2068 19.8134 21.3639 19.804C21.4974 19.7935 21.5935 19.8017 21.6345 19.8239C21.6697 19.8438 21.7048 19.8462 21.7154 19.831C21.7412 19.7899 21.9732 19.8063 22.0646 19.8556C22.1126 19.8813 22.1735 19.9294 22.2005 19.961C22.2309 19.9938 22.2813 20.0196 22.3165 20.0196C22.3516 20.0196 22.3868 20.0395 22.395 20.0606C22.4055 20.0887 22.4512 20.1016 22.5614 20.1016C22.6621 20.1016 22.7231 20.1145 22.7453 20.1426C22.7676 20.1672 22.8016 20.1836 22.8309 20.1836C22.8988 20.1836 23.1086 20.3864 23.1086 20.4543C23.1086 20.4918 23.1332 20.5176 23.1765 20.5281C23.2164 20.5363 23.2492 20.561 23.2492 20.5832C23.2492 20.6031 23.2902 20.6559 23.3453 20.6969C23.4824 20.8 23.5702 20.7695 23.6769 20.568C23.7495 20.4344 23.7554 20.3957 23.753 20.1872L23.7448 20.1801ZM8.60241 5.41733H8.60481L8.60711 5.41967C8.60711 5.41967 8.60481 5.41968 8.60241 5.41733Z" fill="white"/>
</svg>
