<svg width="33" height="28" viewBox="0 0 33 28" fill="none" xmlns="http://www.w3.org/2000/svg">
<path d="M31.324 0.000280042C31.5772 -0.00490534 32.1368 0.0599116 32.5014 0.363256C32.7438 0.578699 32.8983 0.879396 32.9345 1.20588C32.975 1.447 33.0256 1.99924 32.9851 2.42963C32.5293 7.35055 30.5491 19.2873 29.5413 24.7968C29.1159 27.1302 28.2777 27.9106 27.4649 27.9858C25.7024 28.1543 24.3629 26.7931 22.6536 25.6472C19.9796 23.8504 18.4679 22.733 15.8724 20.9803C12.8717 18.958 14.8164 17.8432 16.5257 16.0283C16.9739 15.5512 24.7478 8.30985 24.8997 7.6539C24.9175 7.57093 24.9352 7.26499 24.7579 7.10425C24.5807 6.9435 24.3173 6.99795 24.1274 7.04202C23.859 7.10425 19.5871 9.99769 11.3118 15.7146C10.0964 16.5702 8.99991 16.985 8.01488 16.9591C6.93109 16.9383 4.84454 16.3342 3.29229 15.8183C1.38806 15.1831 -0.12368 14.8486 0.00799503 13.7726C0.076365 13.2126 0.830967 12.6396 2.26927 12.0537C11.127 8.10243 17.0321 5.49678 19.9897 4.23933C28.4271 0.645859 30.1819 0.0210216 31.324 0.000280042Z" fill="white"/>
</svg>
