<svg width="16" height="16" viewBox="0 0 16 16" fill="none" xmlns="http://www.w3.org/2000/svg">
<g clip-path="url(#clip0_289_11)">
<path d="M14.63 0C15.13 0 15.54 0.41 15.54 0.92V4.12C15.54 4.62 15.14 5.03 14.63 5.03H11.43C10.93 5.03 10.51 5.44 10.51 5.95V14.63C10.51 15.13 10.11 15.55 9.6 15.55H5.94C5.44 15.55 5.03 15.14 5.03 14.63V5.96C5.03 5.46 4.62 5.04 4.12 5.04H0.92C0.42 5.04 0 4.64 0 4.13V0.93C0 0.43 0.41 0.00999975 0.92 0.00999975H14.62L14.63 0Z" fill="white"/>
</g>
<defs>
<clipPath id="clip0_289_11">
<rect width="15.54" height="15.55" fill="white"/>
</clipPath>
</defs>
</svg>
