<svg width="232" height="32" viewBox="0 0 232 32" fill="none" xmlns="http://www.w3.org/2000/svg">
<path fill-rule="evenodd" clip-rule="evenodd" d="M4.46721 30.5589C3.9003 29.7532 2.66445 28.017 1.72339 26.678L0 24.2496L2.34698 12.8908C3.62819 6.64964 4.762 1.19149 4.8527 0.760284L5.02277 0H13.1068L14.1953 2.01986L15.2837 4.02837L17.2452 4.09645L17.4833 4.57305C17.9595 5.50355 18.5151 6.47943 18.5605 6.43404C18.5945 6.41135 18.6852 5.98014 18.7759 5.4922C18.8666 5.00426 18.9686 4.48227 19.0026 4.3461C19.0593 4.08511 19.0707 4.08511 21.531 4.08511H23.9914L24.6717 0.0567376L28.708 0.022695L32.7444 0L33.3453 1.32766C33.6741 2.06525 34.0823 2.9844 34.2637 3.38156L34.5812 4.08511H35.8737C37.1322 4.08511 37.1776 4.07376 37.2343 3.82411C37.2683 3.68794 37.4157 2.76879 37.5518 1.78156L37.8125 0L46.7696 0.022695L55.7267 0.0567376L56.373 2.04255L57.0079 4.02837L60.3186 4.09645L60.3753 3.72199C60.4093 3.51773 60.4887 2.79149 60.5567 2.09929C60.6248 1.41844 60.7041 0.658156 60.7381 0.419858L60.8062 0H83.5504L83.6638 0.544681C83.7318 0.839716 83.8905 1.75887 84.0379 2.58723L84.2987 4.08511H88.4258L88.4938 2.87092C88.5391 2.19007 88.5958 1.27092 88.6298 0.828369L88.6979 0H92.7116C95.8409 0 96.7252 0.0340425 96.7252 0.147518C96.7252 0.215603 96.918 2.17872 97.1561 4.48227C97.6209 9.00993 97.6209 8.83972 97.3602 15.183L97.2808 16.9078H116.567V4.08511H121.295L121.363 3.32482C121.408 2.89362 121.442 1.97447 121.442 1.28227V0H139.322L139.39 1.28227C139.436 1.97447 139.47 2.89362 139.47 3.32482V4.08511L141.647 4.06241L143.824 4.02837L144.118 2.04255L144.402 0.0567376L148.461 0.022695L152.509 0V0.363121C152.509 0.567376 152.69 3.37021 152.905 6.58156C153.121 9.79291 153.302 12.4596 153.302 12.5163C153.302 12.5617 153.45 12.5957 153.631 12.5957H153.949L154.391 10.4965L154.822 8.39716L158.404 8.37447L161.976 8.34043L162.622 5.78723C162.974 4.38014 163.45 2.5078 163.688 1.62269L164.108 0H180.366L180.559 1.79291C180.672 2.76879 180.786 3.68794 180.82 3.82411C180.877 4.08511 180.877 4.08511 183.348 4.08511H185.809L185.945 5.2539C186.149 6.94468 186.205 7.26241 186.296 7.26241C186.342 7.26241 186.58 6.76312 186.806 6.15035C187.044 5.54894 187.328 4.83404 187.441 4.57305L187.645 4.08511H190.333L191.138 2.06525L191.943 0.0567376L195.968 0.022695L199.993 0L200.061 0.306383C200.095 0.487943 200.231 1.28227 200.355 2.09929C200.48 2.91631 200.616 3.68794 200.639 3.82411C200.696 4.07376 200.752 4.08511 201.931 4.08511H203.156L205.061 0H222.998L223.36 1.84965C223.564 2.85957 223.746 3.77872 223.78 3.88085C223.837 4.06241 224.052 4.08511 226.308 4.08511H228.769L229.483 7.59149L230.209 11.0865L229.789 11.6993C229.245 12.5163 229.256 12.5957 229.936 12.5957C230.379 12.5957 230.515 12.6411 230.56 12.7887C230.583 12.9021 230.923 14.5248 231.308 16.4085L232 19.8128L230.946 21.3447C230.367 22.1844 229.154 23.9546 228.258 25.2823L226.614 27.6879H225.447L223.984 29.844L222.533 32H204.687L204.437 30.3319C204.301 29.4014 204.154 28.4482 204.108 28.1986L204.029 27.7447L201.965 27.6766L199.698 31.9433L195.661 31.9773C193.439 31.9886 191.625 31.9773 191.625 31.9433C191.625 31.8298 190.264 21.5035 190.208 21.1291C190.174 20.9362 190.094 20.766 190.049 20.766C189.992 20.766 189.675 21.3787 189.357 22.1277L188.757 23.4894H183.099L183.167 23.8638C183.224 24.1702 182.963 24.9078 181.67 28.0851L180.094 31.9433L171.987 31.9773L163.881 32L163.745 30.2752C163.677 29.322 163.586 28.3461 163.552 28.1191L163.484 27.6879H158.665L158.586 26.6667C158.552 26.1106 158.484 25.1801 158.438 24.6128C158.393 23.8638 158.325 23.5688 158.2 23.5234C158.121 23.4894 158.008 23.5121 157.962 23.5801C157.928 23.6482 157.667 24.5901 157.395 25.6908L156.908 27.6879H155.116C153.506 27.6879 153.314 27.7106 153.257 27.8922C153.223 27.9943 153.042 28.7773 152.849 29.617C152.656 30.4567 152.452 31.3418 152.384 31.5801L152.271 32H144.345L144.3 31.7504C144.266 31.6028 144.209 30.6723 144.175 29.6738C144.13 28.6752 144.062 27.8241 144.016 27.7674C143.971 27.722 143.019 27.6993 141.896 27.7106L139.867 27.7447L139.629 29.3333C139.493 30.2071 139.356 31.1603 139.311 31.4667L139.232 32H121.442L121.42 29.878L121.386 27.7447H116.397L116.363 29.878L116.34 32H98.4827C81.5889 32 80.6365 31.9886 80.5798 31.8071C80.5458 31.6936 80.1376 29.9234 79.6614 27.8582C79.1059 25.4638 78.8337 24.0113 78.8678 23.8071L78.9471 23.4894H74.3438C71.8155 23.4894 69.7406 23.5007 69.7406 23.5234C69.7406 23.5348 69.5819 25.3617 69.4004 27.5745C69.219 29.7872 69.0603 31.6936 69.0603 31.8071C69.0603 31.9886 68.6181 32 60.9422 31.9773L52.8242 31.9433L52.0078 29.9574C51.5656 28.8681 51.1575 27.9035 51.1121 27.8355C51.0441 27.722 49.9783 27.6879 46.4295 27.6879C43.9124 27.6879 41.8489 27.7106 41.8489 27.7333C41.8489 27.756 41.7242 28.7092 41.5654 29.8553C41.4067 31.0014 41.282 31.9546 41.282 31.9773C41.282 31.9886 37.6311 31.9886 33.1639 31.9773L25.0458 31.9433L22.8122 28.1078C20.8507 24.7489 20.59 24.2383 20.624 23.8865L20.6693 23.4894H16.8144L16.2702 22.5589C15.6919 21.5943 15.4878 21.4128 15.3858 21.7532C15.3518 21.8667 14.9436 24.1248 14.4674 26.7801C14.0025 29.4355 13.583 31.6936 13.549 31.8071C13.4923 31.9886 13.1975 32 9.48998 32H5.48764L4.46721 30.5589ZM10.8959 29.5603C10.8959 29.5262 10.0682 28.244 9.07047 26.7121L7.2337 23.9319L7.31307 23.2511C7.34708 22.8766 7.50582 21.9234 7.65321 21.1291C7.81194 20.3348 8.22012 18.2128 8.5716 16.3972C8.92308 14.5929 9.33125 12.505 9.48998 11.756C9.63738 11.0184 9.7621 10.3716 9.7621 10.3149C9.7621 10.2582 10.8846 10.2128 12.2565 10.2128C13.6284 10.2128 14.7509 10.1901 14.7509 10.1674C14.7509 10.122 15.2951 7.20567 15.3631 6.88794C15.4085 6.70638 15.2384 6.69504 12.9821 6.69504H10.5558V6.37731C10.5558 6.19574 10.7032 5.2766 10.8959 4.33475C11.0887 3.38156 11.236 2.58723 11.236 2.55319C11.236 2.51915 10.3177 2.49645 9.19519 2.49645C7.17701 2.49645 7.15433 2.49645 7.10898 2.75745C7.07497 2.89362 6.91623 3.63121 6.7575 4.39149C6.59877 5.15177 6.41736 6.01418 6.37201 6.32057C6.31532 6.6156 5.53299 10.5759 4.6146 15.1149C3.28805 21.6965 2.97058 23.4213 3.07262 23.6028C3.32206 24.0567 7.06363 29.4468 7.18835 29.5262C7.33574 29.617 10.8959 29.6511 10.8959 29.5603ZM30.6242 29.5489C30.6242 29.4809 30.4768 29.2085 28.6967 25.895L27.6536 23.9319L27.7216 23.1149C27.801 22.3092 28.0618 20.6184 28.9348 15.2057C29.1729 13.6738 29.3997 12.244 29.4337 12.0284C29.5357 11.2908 30.5108 5.06099 30.6809 4.07376C30.7716 3.52908 30.8509 2.95035 30.8509 2.79149V2.49645H26.7919L26.7125 2.9844C26.6218 3.57447 26.3497 5.17447 26.1797 6.04823L26.0549 6.69504H23.6399C22.3134 6.69504 21.2022 6.74043 21.1682 6.78582C21.1229 6.86525 20.9415 7.80709 20.59 9.90638L20.5446 10.2128H25.4087V10.5078C25.4087 10.7688 24.3656 17.2596 23.6966 21.1631C23.2658 23.6369 23.2091 23.2397 24.3315 25.2142C24.8871 26.1674 25.4087 27.1092 25.5107 27.2908C26.2704 28.6752 26.5992 29.2426 26.7466 29.4241C26.894 29.5943 27.1434 29.617 28.7761 29.617C29.7852 29.617 30.6242 29.583 30.6242 29.5489ZM38.8103 29.4241C38.5608 28.8567 38.0393 27.7787 37.1549 25.9858L36.1685 24L36.2479 22.9787C36.2819 22.4227 36.4293 21.2652 36.5653 20.4255L36.8034 18.8936L44.7174 18.8596L52.6201 18.8369V19.3702C52.6201 19.6766 52.5407 20.7092 52.4273 21.6851L52.2346 23.4553L53.1303 25.7135C53.6178 26.9504 54.1507 28.3348 54.3208 28.766L54.6383 29.5603L56.6451 29.5943C58.5272 29.617 58.6519 29.6057 58.5726 29.4241C58.5386 29.3106 58.0737 28.0284 57.5408 26.5645C56.4864 23.6142 56.4977 23.6936 56.7585 21.4468C56.8492 20.6638 56.9852 19.4383 57.0419 18.7234C57.11 18.0085 57.212 17.0326 57.2687 16.5674C57.4501 15.1035 58.2891 7.16028 58.2891 6.86525C58.2891 6.71773 57.9603 6.69504 56.2029 6.69504H54.1167L53.992 7.80709C53.924 8.40851 53.8219 9.33901 53.7652 9.87234C53.7085 10.4057 53.5725 11.5518 53.4818 12.4255C53.3797 13.2993 53.2663 14.2865 53.2323 14.6156L53.1756 15.2057H37.427V14.7858C37.4384 14.3433 37.5064 13.7986 37.8125 11.6879C38.1527 9.33901 38.4475 7.12624 38.4475 6.91064C38.4475 6.70638 38.3454 6.69504 36.4179 6.69504C34.5472 6.69504 34.3771 6.70638 34.3204 6.89929C34.275 7.01277 34.1277 8 33.9689 9.08936C33.8102 10.1787 33.6401 11.3929 33.5721 11.8014C33.3113 13.5489 32.9712 15.7844 32.597 18.2695C32.3816 19.7333 32.1548 21.2426 32.0868 21.617C31.7807 23.5348 31.6673 23.1262 33.3453 26.3943C34.173 28.017 34.8986 29.4014 34.9667 29.4808C35.046 29.583 35.5903 29.617 36.9849 29.617C38.7649 29.617 38.8897 29.6057 38.8103 29.4241ZM66.7473 29.3106C66.702 29.1291 66.3165 27.8582 65.8743 26.4738C65.3528 24.7943 65.092 23.7617 65.092 23.3872C65.092 23.0922 65.194 21.8213 65.3074 20.5844C65.4321 19.3362 65.5909 17.634 65.6589 16.7943C65.7269 15.9546 65.8063 15.0922 65.8403 14.8993L65.897 14.5248H80.9426L81.0107 13.4809C81.056 12.9021 81.1127 12.0851 81.1467 11.6652L81.2147 10.8936H73.7769C67.5183 10.8936 66.3278 10.8709 66.2711 10.7348C66.2144 10.5759 66.4979 7.11489 66.6339 6.38865L66.702 6.01418H74.0491C80.954 6.01418 81.4075 6.00284 81.4642 5.82128C81.4869 5.7078 81.5549 4.91348 81.6002 4.05106L81.6683 2.49645H62.8357L62.779 2.97305C62.6883 3.64255 62.2915 7.36454 62.2008 8.34043C62.1101 9.40709 61.6112 14.434 61.4638 15.773C61.4071 16.3631 61.2937 17.4865 61.237 18.2695C61.169 19.0525 61.067 20.0511 60.9989 20.505C60.9309 20.9589 60.8742 21.9007 60.8629 22.6043L60.8402 23.8865L61.7926 26.6099C62.3028 28.1078 62.7903 29.4014 62.847 29.4808C62.9377 29.583 63.4933 29.617 64.8879 29.617H66.8154L66.7473 29.3106ZM86.521 29.4582C86.521 29.3674 86.4643 29.0496 86.4076 28.7433C86.2942 28.2099 85.886 26.0085 85.6026 24.4652C85.5119 23.9433 85.4892 23.2057 85.5345 22.3092C85.5799 21.5489 85.6593 19.8922 85.7273 18.6099C85.784 17.3277 85.8634 16.0454 85.886 15.7504L85.9427 15.2057H81.6569L81.6002 15.6936C81.5209 16.3518 81.1921 22.5135 81.1921 23.2057C81.1921 23.5234 81.2714 24.1362 81.3621 24.5674C81.4642 25.0099 81.6116 25.6908 81.6909 26.0993C82.1331 28.2213 82.3485 29.1291 82.4392 29.3674C82.5413 29.617 82.5866 29.617 84.5368 29.617C86.1808 29.617 86.521 29.5943 86.521 29.4582ZM114.401 29.4014C114.481 29.2652 114.492 27.5177 114.447 24.3518L114.379 19.5177H104.31C98.7774 19.5177 94.2195 19.4723 94.1855 19.4269C94.1515 19.3702 94.1969 17.5206 94.2876 15.3078C94.3783 13.095 94.503 9.96312 94.571 8.34043C94.6277 6.71773 94.7184 4.74326 94.7524 3.94894L94.8204 2.49645H90.6027V3.04113C90.6027 3.33617 90.5233 5.00426 90.4326 6.75177C90.2512 10.2468 89.9904 15.6369 89.775 20.3688L89.6389 23.4326L90.1151 26.3603C90.3759 27.9716 90.614 29.3674 90.648 29.4582C90.7047 29.5943 92.4168 29.617 102.496 29.617C113.925 29.617 114.299 29.6057 114.401 29.4014ZM137.372 29.4808C137.406 29.4014 137.599 28.0624 137.814 26.4965C138.143 24.0567 138.2 23.4326 138.155 22.0709C138.121 21.1972 138.075 20.2667 138.041 19.9943L137.985 19.5177L130.785 19.5404L123.574 19.5745L123.597 21.6284C123.597 22.7518 123.551 24.9418 123.472 26.4851C123.404 28.0284 123.381 29.356 123.415 29.4468C123.472 29.5943 124.424 29.617 130.399 29.617C135.83 29.617 137.338 29.583 137.372 29.4808ZM150.445 29.4808C150.513 29.4014 150.593 29.1291 150.638 28.8794C150.683 28.6298 150.967 27.3248 151.261 25.9858C151.783 23.5915 151.794 23.5234 151.704 22.2979C151.658 21.617 151.613 20.5504 151.613 19.9489L151.602 18.8369H154.107C156.432 18.8369 156.602 18.8255 156.545 18.644C156.522 18.5305 156.466 17.8043 156.42 17.0213C156.375 16.2383 156.318 15.5121 156.296 15.4099C156.239 15.2284 156.023 15.2057 153.745 15.2057C152.384 15.2057 151.261 15.1716 151.261 15.1262C151.261 15.0695 151.08 12.2553 150.865 8.85106C150.649 5.44681 150.468 2.63262 150.468 2.58723C150.468 2.5305 149.527 2.49645 148.37 2.49645H146.273L146.318 2.75745C146.352 2.89362 146.397 3.74468 146.443 4.65248C146.477 5.56028 146.579 7.58014 146.67 9.13475C146.76 10.7007 146.885 13.0496 146.953 14.3546C147.021 15.6709 147.146 17.9404 147.236 19.4043C147.486 23.444 147.475 23.6596 146.896 26.7574C146.613 28.2553 146.386 29.5149 146.386 29.5489C146.386 29.583 147.27 29.617 148.359 29.617C149.799 29.617 150.354 29.583 150.445 29.4808ZM170.105 29.4241C170.355 29.1291 172.124 23.739 172.124 23.2624C172.124 22.8426 170.241 3.49504 170.128 2.87092L170.071 2.49645H165.967L166.035 3.32482C166.069 3.76738 166.182 4.95887 166.273 5.95745C166.829 11.7447 167.021 14.0255 167.021 14.5816V15.2057H162.112L162.191 16.3177C162.237 16.9191 162.293 17.7362 162.339 18.1333L162.407 18.8369H164.878C166.239 18.8369 167.373 18.8823 167.407 18.939C167.498 19.0865 167.815 22.5362 167.815 23.3986C167.815 23.8525 167.724 24.3858 167.6 24.7603C167.373 25.3844 167.135 26.1333 166.625 27.8582C166.454 28.4255 166.273 28.9929 166.216 29.1404C166.16 29.2879 166.114 29.4468 166.114 29.5035C166.114 29.5716 166.885 29.617 168.019 29.617C169.697 29.617 169.958 29.5943 170.105 29.4241ZM178.552 28.9362C179.641 26.2808 180.627 23.6142 180.627 23.3078C180.627 23.1149 180.321 20.278 179.947 17.0213C179.573 13.7645 179.267 10.8936 179.267 10.6553V10.2128H181.704C183.586 10.2128 184.142 10.1787 184.131 10.0766C184.131 9.99716 184.04 9.21418 183.938 8.34043L183.734 6.75177L178.756 6.6383L178.303 2.55319L176.217 2.51915L174.142 2.49645L174.21 2.91631C174.244 3.15461 174.346 4.16454 174.448 5.16312C174.55 6.1617 174.675 7.36454 174.731 7.82979C174.788 8.29504 174.913 9.52057 175.015 10.5532C175.105 11.5858 175.264 13.061 175.355 13.844C175.695 16.6468 176.319 22.8426 176.319 23.3645C176.319 23.6482 176.217 24.1929 176.103 24.5674C175.729 25.7248 175.412 26.5986 175.298 26.8369C175.23 26.9617 175.117 27.2908 175.026 27.5745C174.935 27.8582 174.754 28.3915 174.629 28.7546C174.493 29.1291 174.391 29.4695 174.391 29.5262C174.391 29.583 175.264 29.6057 176.341 29.5943L178.291 29.5603L178.552 28.9362ZM197.952 29.4808C198.008 29.4014 198.689 28.1078 199.448 26.6099C200.208 25.1121 200.877 23.8411 200.934 23.7844C200.99 23.7163 201.036 23.5688 201.036 23.444C201.036 23.3078 200.344 18.5418 199.482 12.8567L197.929 2.49645H193.825L193.972 3.49504C194.051 4.03972 194.153 4.98156 194.187 5.59433L194.267 6.69504H191.863C190.548 6.69504 189.471 6.72908 189.471 6.78582C189.471 6.83121 189.573 7.58014 189.698 8.4539C189.822 9.32766 189.924 10.0766 189.924 10.122C189.924 10.1674 191.047 10.2128 192.419 10.2128C194.142 10.2128 194.913 10.2468 194.913 10.3376C194.913 10.4057 195.14 11.9716 195.412 13.8213C196.217 19.1433 196.727 22.9447 196.727 23.5234C196.727 23.966 196.557 24.3972 195.752 26.0085C195.208 27.0865 194.607 28.3461 194.392 28.8L194.017 29.617H195.922C197.317 29.617 197.861 29.583 197.952 29.4808ZM224.868 23.444L224.12 19.5177H209.743L209.811 19.8355C210.004 20.7433 210.333 23.0922 210.333 23.5121C210.333 23.8298 210.22 24.1929 210.004 24.5674C209.834 24.8851 209.517 25.4411 209.312 25.8156C209.108 26.1901 208.904 26.5532 208.859 26.6099C208.78 26.7121 208.655 26.939 207.895 28.3121C207.725 28.6298 207.487 29.0496 207.362 29.2539L207.136 29.617L213.984 29.5943L220.821 29.5603L224.868 23.444ZM122.803 16.3631C122.803 15.0014 122.769 12.2667 122.723 10.2922L122.655 6.69504H118.494V18.8369H122.803V16.3631ZM143.053 18.3603C143.019 18.0879 142.883 15.3532 142.735 12.2894L142.486 6.69504H138.336V7.35319C138.336 8.38582 138.665 16.8624 138.744 17.9064L138.812 18.8369H143.109L143.053 18.3603ZM207.827 12.8567C207.272 9.55461 206.818 6.83121 206.818 6.78582C206.818 6.72908 205.9 6.69504 204.777 6.69504C203.008 6.69504 202.736 6.71773 202.736 6.8766C202.736 7.05816 203.292 10.7461 203.916 14.6383C204.131 15.9773 204.369 17.4752 204.448 17.9631L204.585 18.8369H208.825L207.827 12.8567ZM229.041 18.7915C229.041 18.7688 228.905 18.0879 228.746 17.2823C228.576 16.4879 228.417 15.6936 228.394 15.5234L228.338 15.2057H226.252C225.106 15.2057 224.165 15.2284 224.165 15.2624C224.165 15.3872 224.744 18.4511 224.8 18.644C224.857 18.8142 225.061 18.8369 226.955 18.8369C228.1 18.8369 229.041 18.8142 229.041 18.7915ZM135.615 15.2057H124.844V16.9078H135.615V15.2057ZM216.671 16.8284C216.671 16.7716 216.603 16.4085 216.523 16L216.387 15.2624L213.598 15.2284L210.82 15.2057L210.922 15.7957C210.968 16.1248 211.047 16.5106 211.07 16.6582L211.127 16.9078H213.904C215.435 16.9078 216.682 16.8738 216.671 16.8284ZM19.0707 14.0709C19.1727 13.5376 19.5129 11.461 19.5582 11.1546L19.5922 10.8936H17.5173C15.4538 10.8936 15.4311 10.8936 15.3858 11.1546C15.3518 11.2908 15.2157 11.9943 15.091 12.7092C14.9549 13.4241 14.8189 14.1277 14.7849 14.2752L14.7282 14.5248L16.8597 14.5021L18.9913 14.4681L19.0707 14.0709ZM161.205 13.8213C161.16 13.4241 161.103 12.6071 161.058 12.0057L160.978 10.8936H156.783L156.851 12.4028C156.896 13.2199 156.965 14.0369 156.999 14.2184L157.067 14.5248H161.273L161.205 13.8213ZM189.698 14.5021C189.698 14.4794 189.596 13.7078 189.471 12.7773C189.346 11.8582 189.244 11.0525 189.244 10.9957C189.244 10.939 188.303 10.8936 187.147 10.8936H185.038L185.106 11.6085C185.162 12.244 185.253 12.8567 185.446 14.105L185.514 14.5248H187.6C188.757 14.5248 189.698 14.5135 189.698 14.5021ZM86.2262 9.22553C86.2715 8.6695 86.3282 7.88653 86.3622 7.46667L86.4189 6.69504H82.2352L82.1671 7.23972C82.1331 7.53475 82.0764 8.31773 82.0311 8.99858L81.9631 10.2128H86.1581L86.2262 9.22553ZM227.102 9.16879C227 8.59007 226.83 7.80709 226.75 7.43262L226.603 6.75177L224.54 6.71773C222.907 6.69504 222.476 6.71773 222.521 6.83121C222.544 6.91064 222.703 7.70496 222.873 8.60142L223.168 10.2128H227.306L227.102 9.16879ZM53.4591 5.74184C53.4931 5.58298 53.5838 4.93617 53.6405 4.28936C53.7085 3.64255 53.7879 2.9844 53.8219 2.81418L53.8899 2.49645H46.917C40.6697 2.49645 39.9441 2.51915 39.8761 2.67801C39.842 2.76879 39.7513 3.30213 39.6947 3.83546C39.6266 4.38014 39.5246 5.04965 39.4679 5.33333C39.4112 5.61702 39.3658 5.87801 39.3545 5.93475C39.3545 5.98014 42.5178 6.01418 46.3728 6.01418H53.3911L53.4591 5.74184ZM137.463 4.40284C137.429 3.50638 137.395 2.71206 137.372 2.64397C137.327 2.5305 135.83 2.49645 130.343 2.49645H123.37V6.01418H137.497L137.463 4.40284ZM221.524 5.93475C221.49 5.87801 221.388 5.33333 221.274 4.70922C221.172 4.08511 221.036 3.33617 220.968 3.04113L220.855 2.49645H213.893C210.061 2.49645 206.931 2.5078 206.931 2.5305C206.931 2.55319 207.056 3.32482 207.215 4.24397C207.374 5.16312 207.498 5.93475 207.498 5.96879C207.498 5.99149 210.662 6.01418 214.539 6.01418C218.406 6.01418 221.546 5.98014 221.524 5.93475Z" fill="black"/>
<path d="M93.9701 20.1305C93.9247 20.0851 93.8907 19.7787 93.8907 19.4383C93.8907 18.8823 93.9134 18.8369 94.1628 18.8369C94.3102 18.8369 94.4576 18.9163 94.503 19.0071C94.537 19.0979 94.6504 19.1773 94.7411 19.1773C94.8885 19.1773 94.9111 19.2794 94.8885 19.6652C94.8545 20.1191 94.8431 20.1418 94.4576 20.1759C94.2309 20.1986 94.0154 20.1759 93.9701 20.1305ZM177.713 17.5092C175.105 17.4638 175.344 17.5887 175.242 16.2837C175.208 15.8525 175.105 14.9333 175.015 14.2411C174.935 13.5603 174.822 12.6411 174.788 12.1986C174.675 11.0752 174.652 10.7234 174.459 8.85106C174.425 8.56738 174.38 8.18156 174.346 8C174.312 7.80709 174.266 7.3305 174.221 6.92199C174.153 6.15035 174.096 5.58298 173.994 4.53901C173.949 4.19858 173.904 3.68794 173.87 3.40425C173.847 3.12057 173.79 2.80284 173.756 2.70071C173.7 2.5078 173.87 2.49645 176.183 2.49645H178.666L178.756 3.21135C178.813 3.59716 178.858 4.01702 178.87 4.14184C178.881 4.26667 178.926 4.69787 178.983 5.10638C179.028 5.51489 179.074 5.93475 179.062 6.05957C179.062 6.17305 179.142 6.28652 179.267 6.32057C179.38 6.35461 179.505 6.44539 179.539 6.53617C179.584 6.66099 180.026 6.69503 181.852 6.69503H184.108L184.199 7.39858C184.244 7.79574 184.301 8.19291 184.312 8.28369C184.323 8.37447 184.38 8.78298 184.425 9.19149C184.516 9.99716 184.561 10.3376 184.584 10.4738C184.584 10.5191 184.675 10.5532 184.766 10.5532C184.856 10.5532 184.936 10.6326 184.936 10.7234C184.936 10.8709 185.253 10.8936 187.101 10.8936C188.983 10.8936 189.255 10.8709 189.199 10.7234C189.153 10.6099 189.21 10.5532 189.357 10.5532C189.482 10.5532 189.584 10.6213 189.596 10.7007C189.596 10.7688 189.618 10.9617 189.641 11.1206C189.664 11.2794 189.743 11.8355 189.8 12.3688C189.868 12.9021 189.947 13.4582 189.981 13.617C190.004 13.7759 190.049 14.1163 190.083 14.3887L190.14 14.8652H185.174L185.106 14.4454C185.072 14.2071 184.992 13.7305 184.936 13.3901C184.879 13.0496 184.8 12.4369 184.766 12.0284C184.732 11.6199 184.675 11.1887 184.652 11.0638C184.629 10.939 184.607 10.7688 184.607 10.7007C184.595 10.5872 184.017 10.5532 182.101 10.5532H179.607L179.663 11.0411C179.697 11.3021 179.754 11.8014 179.788 12.1418C179.811 12.4823 179.89 13.1972 179.958 13.7305C180.026 14.2638 180.106 14.922 180.128 15.1943C180.151 15.4667 180.208 15.8752 180.23 16.1021C180.423 17.5546 180.423 17.5887 180.208 17.566C180.094 17.5433 178.972 17.5206 177.713 17.5092ZM197.895 17.5092C195.355 17.4638 195.548 17.5319 195.423 16.6241C195.389 16.3745 195.344 15.9887 195.31 15.773C195.276 15.5574 195.106 14.3433 194.913 13.0837C194.732 11.8241 194.573 10.7348 194.573 10.6667C194.573 10.5986 193.734 10.5532 192.079 10.5532C190.707 10.5532 189.584 10.5191 189.573 10.4738C189.562 10.2355 189.459 9.5773 189.414 9.31631C189.38 9.15745 189.323 8.71489 189.289 8.34043C189.255 7.96596 189.176 7.44397 189.131 7.18298L189.051 6.69503H191.296C193.224 6.69503 193.553 6.67234 193.553 6.52482C193.553 6.43404 193.632 6.35461 193.734 6.35461C193.893 6.35461 193.904 6.24113 193.847 5.53759C193.802 5.08369 193.745 4.69787 193.734 4.66383C193.711 4.61844 193.666 4.3461 193.621 4.02837C193.587 3.72199 193.53 3.24539 193.485 2.97305L193.416 2.49645L195.888 2.51915C198.666 2.55319 198.349 2.43972 198.485 3.51773C198.519 3.80142 198.598 4.35745 198.666 4.76596C198.734 5.17447 198.802 5.60567 198.825 5.7305C198.836 5.85532 198.881 6.1844 198.927 6.46808C198.961 6.75177 199.029 7.18298 199.074 7.43262C199.108 7.68227 199.154 7.96596 199.165 8.05674C199.244 8.59007 199.369 9.39574 199.403 9.58865C199.426 9.70213 199.471 10.0085 199.505 10.2695C199.55 10.5191 199.596 10.8596 199.63 11.0184C199.652 11.1887 199.698 11.5518 199.732 11.8128C199.766 12.0851 199.811 12.4369 199.845 12.5957C199.936 13.0723 200.015 13.5716 200.072 14.0823C200.106 14.3546 200.185 14.9106 200.253 15.3191C200.378 16.0908 200.401 16.1929 200.525 17.0553C200.593 17.5319 200.582 17.5887 200.389 17.566C200.276 17.5433 199.154 17.5206 197.895 17.5092ZM3.75291 17.4184C3.75291 17.3844 4.24045 14.922 4.84136 11.9376C5.44228 8.96454 5.94116 6.42269 5.96384 6.29787C5.98651 6.17305 6.17926 5.26525 6.38334 4.28936L6.7575 2.49645H9.22921C11.5308 2.49645 11.7009 2.5078 11.6442 2.70071C11.6102 2.80284 11.5082 3.30213 11.4061 3.80142C11.066 5.61702 10.9979 5.9234 10.9413 6.1617C10.8959 6.29787 10.9413 6.35461 11.1113 6.35461C11.2701 6.35461 11.3268 6.41135 11.2814 6.52482C11.2247 6.67234 11.5082 6.69503 13.5037 6.69503H15.794L15.7146 7.17163C15.6692 7.44397 15.5105 8.29504 15.3631 9.05532C15.2157 9.82695 15.091 10.4851 15.091 10.5078C15.091 10.5305 13.9685 10.5532 12.5966 10.5532C11.2247 10.5532 10.1022 10.5986 10.1022 10.6553C10.1022 10.7121 9.97752 11.3589 9.83012 12.0965C9.67139 12.8454 9.38794 14.2638 9.19519 15.2624C9.00244 16.261 8.82103 17.1688 8.78702 17.2823C8.73033 17.4525 8.51491 17.4752 6.23595 17.4752C4.87538 17.4752 3.75291 17.4525 3.75291 17.4184ZM23.9347 17.3844C23.9347 17.2936 24.8871 11.5177 25.0005 10.8709L25.0685 10.5532H20.1024L20.0344 10.8255C20.0004 10.9617 19.9437 11.2908 19.9097 11.5291C19.8757 11.7674 19.7736 12.3801 19.6829 12.8794C19.5922 13.3787 19.4788 14.0142 19.4221 14.2979L19.3314 14.8085L16.8144 14.8426L14.2973 14.8652L14.354 14.5021C14.4334 14.0028 14.9663 11.1319 15.0456 10.8142C15.1023 10.5305 15.4311 10.4511 15.4311 10.7234C15.4311 10.8709 15.7486 10.8936 17.5854 10.8936C19.4221 10.8936 19.7396 10.8709 19.7396 10.7234C19.7396 10.6326 19.8076 10.5532 19.8983 10.5532C20.0571 10.5532 20.1705 10.0879 20.4766 8.17021C20.5786 7.58014 20.6807 7.00142 20.7147 6.89929C20.7714 6.71773 20.9755 6.69503 23.039 6.69503C24.9665 6.69503 25.2953 6.67234 25.2953 6.52482C25.2953 6.43404 25.386 6.35461 25.5107 6.35461C25.7261 6.35461 25.8055 6.13901 25.9302 5.16312C25.9642 4.91347 26.0323 4.52766 26.0889 4.31206C26.1456 4.09645 26.225 3.63121 26.259 3.29078C26.3044 2.95035 26.3611 2.63262 26.3951 2.58723C26.4178 2.5305 27.5402 2.49645 28.8781 2.49645H31.3045L31.2364 2.9844C31.2024 3.24539 31.1231 3.72199 31.0777 4.02837C31.021 4.3461 30.9416 4.82269 30.9076 5.10638C30.8623 5.39007 30.6355 6.84255 30.3974 8.34043C30.1593 9.8383 29.8985 11.4723 29.8305 11.9716C29.6378 13.3333 29.0368 17.044 28.9688 17.2823C28.9121 17.4525 28.6967 17.4752 26.4177 17.4752C25.0572 17.4752 23.9347 17.4298 23.9347 17.3844ZM32.3702 17.1121C32.4043 16.9078 32.4836 16.3858 32.5517 15.9433C32.6083 15.5121 32.6877 15.0468 32.7104 14.922C32.7331 14.7972 32.7898 14.4454 32.8238 14.1277C32.8691 13.8213 32.9485 13.2766 33.0052 12.9362C33.0619 12.5957 33.1639 11.9603 33.2319 11.5177C33.3907 10.3943 33.9122 6.76312 33.9122 6.72908C33.9122 6.70638 35.0347 6.69503 36.4066 6.69503H38.901L38.8556 7.01277C38.8216 7.18298 38.6969 8.11347 38.5608 9.07801C38.3001 11.0184 38.0166 13.0723 37.9486 13.5149C37.7558 14.7291 37.7558 14.8652 37.9259 14.8652C38.028 14.8652 38.1073 14.9447 38.1073 15.0355C38.1073 15.183 38.9804 15.2057 45.2503 15.2057C51.5203 15.2057 52.3933 15.183 52.3933 15.0355C52.3933 14.9447 52.4954 14.8652 52.6201 14.8652C52.7561 14.8652 52.8468 14.7858 52.8582 14.6723C52.8582 14.434 52.9035 14.0028 53.1416 11.9376C53.2323 11.1206 53.3344 10.3376 53.3571 10.2014C53.3797 10.0766 53.4591 9.35035 53.5271 8.59007C53.7199 6.44539 53.3797 6.69503 56.1802 6.69503C57.5068 6.69503 58.6179 6.71773 58.6406 6.75177C58.6746 6.77447 58.6066 7.58014 58.5045 8.53333C58.4025 9.48652 58.2778 10.6553 58.2438 11.1206C58.1984 11.5858 58.1417 12.1305 58.119 12.3121C58.0964 12.505 58.051 13.0156 58.0057 13.4468C57.9717 13.8894 57.8923 14.6496 57.8243 15.1489C57.7676 15.6482 57.6882 16.3177 57.6542 16.6241C57.6202 16.9418 57.5748 17.2596 57.5521 17.339C57.5068 17.4411 54.8877 17.4752 44.9102 17.4752H32.3136L32.3702 17.1121ZM60.9422 17.1121C61.0103 16.6922 61.101 15.8071 61.1917 14.8085C61.2143 14.434 61.3617 12.9248 61.5205 11.461C61.6679 9.99716 61.872 7.93191 61.974 6.86525C62.076 5.80993 62.1781 4.76596 62.2121 4.5617C62.2348 4.3461 62.2915 3.83546 62.3255 3.42695C62.3708 3.00709 62.4162 2.63262 62.4502 2.58723C62.4729 2.5305 66.8947 2.49645 72.2803 2.49645H82.0651L82.0311 2.9844C82.0197 3.24539 81.9744 4.02837 81.929 4.70922C81.895 5.40142 81.827 6.04823 81.8043 6.1617C81.7476 6.34326 81.2941 6.35461 74.3892 6.35461H67.0421L66.9741 6.72908C66.9401 6.92199 66.8607 7.68227 66.7927 8.39716C66.736 9.11206 66.6566 9.87234 66.6226 10.0879C66.5886 10.3943 66.6226 10.4738 66.7927 10.5191C66.9174 10.5532 67.0194 10.6553 67.0194 10.7348C67.0194 10.8709 68.1533 10.8936 74.1058 10.8936C80.0583 10.8936 81.1921 10.8709 81.1921 10.7348C81.1921 10.6553 81.2828 10.5532 81.4075 10.5191C81.5662 10.4851 81.6229 10.3716 81.6116 10.0879C81.6116 9.44113 81.759 7.10355 81.827 6.89929C81.8837 6.71773 82.0991 6.69503 84.3214 6.69503H86.7591L86.6797 8.09078C86.6457 8.85106 86.589 9.63404 86.5777 9.8156C86.555 10.0085 86.5436 10.2468 86.5323 10.3603C86.521 10.5418 86.3169 10.5532 84.0266 10.5532H81.5322L81.5209 11.2681C81.5209 11.6539 81.4982 12.0511 81.4868 12.1418C81.3621 12.7773 81.3054 14.8652 81.4075 14.8652C81.4755 14.8652 81.5322 14.9447 81.5322 15.0355C81.5322 15.183 81.8723 15.2057 83.9132 15.2057H86.3055L86.2488 15.9206C86.2148 16.3064 86.1922 16.817 86.1922 17.0553L86.1808 17.4752H81.1581L81.2147 16.1702L81.2601 14.8652H66.2485L66.1804 15.1262C66.1464 15.2624 66.1124 15.5801 66.1124 15.8298C66.1124 16.0794 66.0784 16.556 66.0444 16.8851L65.965 17.4752H60.8855L60.9422 17.1121ZM89.5709 17.3957C89.5596 17.2142 89.6049 15.5801 89.6389 15.0922C89.6616 14.8085 89.707 13.7872 89.741 12.8227C89.7863 11.8582 89.843 10.8369 89.8657 10.5532C89.8997 10.2695 89.9451 9.40709 89.9791 8.62411C90.0584 6.47943 90.1718 4.18723 90.2058 3.74468C90.2285 3.52908 90.2512 3.15461 90.2512 2.92766L90.2625 2.49645H95.1606L95.0812 4.57305C95.0472 5.7078 94.9905 7.12624 94.9678 7.71631C94.9111 8.80567 94.8545 10.3035 94.7297 13.7305C94.6957 14.7631 94.6504 15.8638 94.6277 16.1702C94.605 16.4879 94.5823 16.9078 94.5823 17.1121L94.571 17.4752H92.0766C90.7047 17.4752 89.5823 17.4411 89.5709 17.3957ZM118.143 14.5589C118.132 12.9475 118.12 10.5191 118.109 9.16879L118.098 6.69503H123.086V8.9305C123.098 10.1674 123.109 12.5277 123.132 14.1844C123.143 15.8411 123.154 17.2596 123.154 17.339C123.143 17.4411 122.565 17.4752 120.649 17.4752H118.154L118.143 14.5589ZM138.325 17.1121C138.325 16.9078 138.302 16.4539 138.279 16.1135C138.257 15.773 138.211 14.6496 138.177 13.617C138.132 12.5844 138.075 10.9277 138.041 9.92908C137.973 8.31773 137.962 7.28511 137.985 6.84255C137.996 6.72908 138.563 6.69503 140.434 6.69503H142.871L142.883 7.12624C142.894 7.35319 142.917 7.82979 142.928 8.17021C142.939 8.51064 142.985 9.56596 143.041 10.4965C143.132 12.3574 143.132 12.4028 143.257 15.4099L143.347 17.4752H138.336L138.325 17.1121ZM146.715 16.9986C146.715 16.7262 146.692 16.4312 146.67 16.3291C146.658 16.2269 146.602 15.2851 146.556 14.2298C146.511 13.1745 146.465 11.983 146.443 11.5745C146.409 11.166 146.363 10.2809 146.329 9.58865C146.295 8.9078 146.239 8.09078 146.216 7.77305C146.171 7.22837 146.091 5.71915 145.989 3.55177L145.944 2.49645H150.887L150.876 2.87092C150.876 3.06383 150.91 3.82411 150.967 4.53901C151.103 6.46808 151.125 6.88794 151.318 9.92908C151.398 11.3021 151.522 13.1404 151.545 13.5035C151.556 13.7191 151.579 14.1163 151.59 14.3887C151.602 14.7858 151.636 14.8652 151.828 14.8652C151.953 14.8652 152.055 14.9447 152.055 15.0355C152.055 15.183 152.361 15.2057 154.153 15.2057C155.944 15.2057 156.25 15.183 156.25 15.0355C156.25 14.9447 156.318 14.8652 156.409 14.8652C156.647 14.8652 156.681 14.6496 156.579 13.9007C156.534 13.5262 156.466 12.6979 156.443 12.0624L156.386 10.8936H161.352L161.364 11.1546C161.375 11.2908 161.398 11.5064 161.409 11.6312C161.42 11.756 161.477 12.3461 161.522 12.9362C161.613 14.105 161.658 14.5702 161.681 14.7518C161.681 14.8199 161.772 14.8652 161.863 14.8652C161.953 14.8652 162.033 14.9447 162.033 15.0355C162.033 15.183 162.35 15.2057 164.187 15.2057C166.024 15.2057 166.341 15.183 166.341 15.0355C166.341 14.9447 166.42 14.8652 166.523 14.8652C166.67 14.8652 166.681 14.7404 166.636 13.9915C166.591 13.5035 166.545 12.9248 166.523 12.7092C166.489 12.4936 166.443 11.9603 166.398 11.5177C166.364 11.0865 166.318 10.4738 166.284 10.156C166.262 9.84964 166.205 9.25957 166.171 8.85106C166.137 8.44255 166.08 7.98865 166.058 7.82979C166.035 7.67092 165.978 7.13759 165.944 6.6383C165.91 6.13901 165.854 5.52624 165.831 5.2766C165.763 4.67518 165.615 2.93901 165.604 2.7234C165.604 2.57589 165.967 2.55319 168.076 2.51915L170.536 2.49645L170.548 2.80284C170.548 2.9844 170.57 3.27943 170.593 3.46099C170.616 3.6539 170.661 4.1305 170.706 4.53901C170.797 5.4922 170.865 6.17305 170.933 6.80851C170.967 7.0922 171.012 7.62553 171.046 8C171.092 8.62411 171.148 9.15745 171.273 10.383C171.296 10.6326 171.353 11.2227 171.387 11.6879C171.421 12.1532 171.477 12.6638 171.5 12.8227C171.534 12.9816 171.591 13.4355 171.625 13.844C171.67 14.2525 171.715 14.7064 171.727 14.8652C171.749 15.0241 171.795 15.6709 171.84 16.3177L171.919 17.4752L166.897 17.4525L161.863 17.4184L161.84 16.9645C161.829 16.7149 161.795 16.261 161.761 15.9433C161.738 15.6369 161.704 15.2624 161.704 15.1149L161.693 14.8652L159.175 14.8879C157.543 14.9106 156.658 14.9674 156.67 15.0355C156.681 15.1035 156.715 15.6709 156.749 16.3177L156.828 17.4752H146.726L146.715 16.9986ZM203.972 17.4525C203.916 17.2255 203.757 16.261 203.689 15.6596C203.655 15.3759 203.609 15.0695 203.587 14.9787C203.553 14.8879 203.507 14.6043 203.473 14.3546C203.439 14.105 203.36 13.6511 203.303 13.3333C203.247 13.0269 203.167 12.5163 203.133 12.2213C203.088 11.9149 203.043 11.5631 203.008 11.4269C202.986 11.2908 202.94 10.9844 202.906 10.7234C202.793 9.97447 202.725 9.52057 202.668 9.25957C202.646 9.13475 202.6 8.79433 202.566 8.51064C202.532 8.22695 202.476 7.89787 202.453 7.7617C202.419 7.62553 202.374 7.3305 202.34 7.10355L202.272 6.69503L204.743 6.71773L207.215 6.75177L207.294 7.20567C207.34 7.45532 207.396 7.84113 207.442 8.05674C207.476 8.28369 207.521 8.59007 207.555 8.73759C207.589 8.88511 207.634 9.19149 207.668 9.41844C207.702 9.64539 207.748 9.95177 207.782 10.0993C207.816 10.2468 207.861 10.5532 207.895 10.7801C207.929 11.0071 207.975 11.3135 208.009 11.461C208.043 11.6085 208.088 11.9376 208.122 12.1986C208.156 12.4482 208.247 12.9589 208.315 13.3333C208.371 13.7078 208.451 14.173 208.485 14.3546C208.519 14.6496 208.598 15.0582 208.825 16.3972C208.859 16.5901 208.893 16.8965 208.904 17.078L208.916 17.4184L206.455 17.4525C205.095 17.4638 203.984 17.4638 203.972 17.4525ZM224.154 17.4525C224.109 17.2936 223.939 16.4199 223.871 16C223.837 15.7844 223.791 15.5121 223.757 15.4099C223.701 15.217 223.871 15.2057 226.24 15.2057C228.19 15.2057 228.78 15.2397 228.78 15.3532C228.78 15.4213 228.871 15.8865 228.973 16.3631C229.086 16.8397 229.143 17.2936 229.097 17.3617C229.052 17.4298 228.168 17.4752 226.592 17.4752C225.254 17.4752 224.165 17.4638 224.154 17.4525ZM222.793 10.4738C222.782 10.3035 222.657 9.64539 222.17 7.16028C222.136 7.00142 222.091 6.84255 222.056 6.78581C222.022 6.74042 223.122 6.69503 224.494 6.69503C226.773 6.69503 226.989 6.71773 227.045 6.89929C227.079 7.00142 227.215 7.62553 227.34 8.28369C227.476 8.94184 227.612 9.5773 227.635 9.70213C227.658 9.82695 227.703 10.0652 227.737 10.2468L227.794 10.5532H225.299C223.927 10.5532 222.805 10.5191 222.793 10.4738ZM38.5608 6.46808C38.5608 6.41135 38.6402 6.35461 38.7309 6.35461C38.8216 6.35461 38.9237 6.24113 38.9463 6.10496C39.0257 5.7078 39.2525 4.30071 39.3092 3.85816C39.3318 3.64255 39.3772 3.24539 39.4112 2.9844L39.4792 2.49645H54.2301L54.1621 3.14326C54.1167 3.50638 54.06 4.1078 54.026 4.48227C53.9806 4.85674 53.9126 5.39007 53.8673 5.67376C53.7879 6.04823 53.8106 6.21844 53.9126 6.29787C54.0147 6.3773 51.5543 6.4 46.4748 6.3773C41.35 6.35461 38.901 6.38865 38.901 6.46808C38.901 6.52482 38.8216 6.58156 38.7309 6.58156C38.6402 6.58156 38.5608 6.53617 38.5608 6.46808ZM122.837 6.3773C123.007 6.34326 123.03 6.12766 123.03 4.41418V2.49645H137.769L137.78 3.15461C137.78 3.50638 137.792 4.1078 137.814 4.48227C137.826 4.85674 137.848 5.42411 137.86 5.75319C137.883 6.19574 137.928 6.34326 138.075 6.3773C138.177 6.4 134.753 6.41135 130.456 6.41135C126.159 6.41135 122.735 6.4 122.837 6.3773ZM206.965 6.3773C207.158 6.34326 207.158 6.26383 206.988 5.33333C206.954 5.17447 206.909 4.90213 206.886 4.70922C206.852 4.52766 206.773 4.02837 206.705 3.60851C206.648 3.18865 206.557 2.76879 206.523 2.67801C206.455 2.51915 207.204 2.49645 213.87 2.49645H221.297L221.444 3.31347C221.524 3.76738 221.603 4.22128 221.614 4.31206C221.864 5.76454 221.954 6.17305 222.068 6.28652C222.17 6.3773 220.265 6.41135 214.483 6.41135C210.242 6.41135 206.863 6.4 206.965 6.3773Z" fill="#7CE475"/>
<path fill-rule="evenodd" clip-rule="evenodd" d="M2.6191 23.773C2.51706 23.6482 2.6191 22.922 3.17466 20.1872C3.56016 18.2922 3.88896 16.7262 3.92298 16.7035C3.95699 16.6695 3.97967 16.7603 3.97967 16.8965C3.97967 17.1348 3.97967 17.1348 6.22461 17.1121C8.44688 17.078 8.45822 17.078 8.49223 16.8284C8.51491 16.6809 8.61695 16.5674 8.71899 16.556C8.84371 16.556 8.85505 16.522 8.77568 16.4879C8.5716 16.4085 8.59427 16.1135 8.79836 16.1135C8.88906 16.1135 8.96843 16.0681 8.96843 16C8.96843 15.9433 8.92308 15.8865 8.85505 15.8865C8.79836 15.8865 8.74167 15.7844 8.74167 15.6596C8.74167 15.5121 8.82103 15.4326 8.94575 15.4326C9.1385 15.4326 9.09315 15.7163 8.49223 18.8709C7.66455 23.183 7.60786 23.5801 7.68722 23.773C7.77793 24.0227 2.82318 24.0227 2.6191 23.773ZM22.9823 23.6823C22.9483 23.5347 22.9596 23.1716 23.0163 22.8539C23.073 22.5475 23.2771 21.2993 23.4698 20.0851C24.0141 16.8284 24.1388 16.1929 24.1501 16.7149L24.1615 17.1348L26.4064 17.1121C28.6287 17.078 28.64 17.078 28.674 16.8284C28.6967 16.6809 28.7874 16.5674 28.8781 16.5674C28.9688 16.5674 29.0368 16.522 29.0368 16.4539C29.0368 16.3972 28.9915 16.3404 28.9235 16.3404C28.8668 16.3404 28.8101 16.2383 28.8101 16.1135C28.8101 15.9887 28.8895 15.8865 28.9802 15.8865C29.0709 15.8865 29.1502 15.8071 29.1502 15.7163C29.1502 15.6255 29.1049 15.5461 29.0368 15.5461C28.8328 15.5461 28.9121 15.2397 29.1276 15.183C29.3203 15.1262 29.3316 15.1716 29.2409 15.705C29.1842 16.0227 29.0482 16.9532 28.9121 17.7589C28.7874 18.5759 28.5606 20.017 28.4133 20.9702C28.2545 21.9234 28.1185 22.9787 28.0958 23.3191L28.0731 23.9433H23.0503L22.9823 23.6823ZM31.4972 23.6823C31.4292 23.444 31.4745 23.0809 31.758 21.2766C31.826 20.8454 32.0528 19.3362 32.2682 17.9291C32.4836 16.522 32.631 15.773 32.5857 16.261L32.529 17.1348L57.212 17.078L57.246 16.8284C57.2687 16.6809 57.3594 16.5674 57.4614 16.5674C57.6088 16.5674 57.6202 16.6809 57.5635 17.2823C57.3934 19.1319 57.2687 20.4142 57.212 20.9362C57.0192 22.4567 56.9852 22.9106 56.9852 23.4099L56.9966 23.9433H54.4795C52.0078 23.9433 51.9625 23.9433 51.9058 23.705C51.8491 23.4894 51.9171 22.6723 52.1099 21.1064C52.1325 20.8908 52.1892 20.3688 52.2346 19.9376L52.3139 19.1773L44.7288 19.2L37.1436 19.234L36.9508 20.4255C36.7354 21.7532 36.5767 23.1603 36.588 23.6369L36.5994 23.9433H31.5539L31.4972 23.6823ZM60.4093 23.8638C60.3186 23.7163 60.4887 21.4468 60.6701 20.1418C60.7268 19.7674 60.8062 19.0071 60.8515 18.4397C60.8855 17.8837 60.9649 17.0894 61.0103 16.6809L61.0896 15.9433L61.1123 16.5447L61.1236 17.1348H63.3913C65.5795 17.1348 65.6589 17.1234 65.6589 16.9078C65.6589 16.783 65.7382 16.6809 65.8289 16.6809C65.931 16.6809 65.999 16.5787 65.999 16.3972C65.999 16.2383 65.9537 16.1135 65.8856 16.1135C65.8289 16.1135 65.7723 15.966 65.7723 15.773C65.7723 15.5461 65.8289 15.4326 65.9423 15.4326C66.1464 15.4326 66.1578 15.8638 66.0104 17.1915C65.9537 17.6908 65.863 18.5872 65.8289 19.1773C65.7836 19.7674 65.7382 20.278 65.7156 20.3121C65.6702 20.3915 65.5228 22.4908 65.5001 23.2851L65.4888 23.9433H62.9717C61.5885 23.9433 60.432 23.9092 60.4093 23.8638ZM80.7952 22.956C80.8406 21.9007 80.9313 20.3915 81.0333 18.8936C81.0787 18.3943 81.1467 17.4752 81.1921 16.8511C81.2601 15.9092 81.2714 15.8411 81.2941 16.4312L81.3054 17.1348H85.8407V16.8511C85.8407 16.6695 85.9087 16.5674 86.0221 16.5674C86.1921 16.5674 86.2035 16.7149 86.1355 17.8496C85.9881 20.7092 85.9314 22.105 85.9087 23.0014L85.8974 23.9433H80.7612L80.7952 22.956ZM89.3101 23.8411C89.2648 23.7844 89.2648 23.183 89.2988 22.5021C89.3328 21.8326 89.3782 20.8227 89.4122 20.2553C89.4348 19.6993 89.4915 18.417 89.5369 17.4184C89.6162 15.5121 89.6956 14.9447 89.6956 16.3177V17.1348H91.9632C93.9021 17.1348 94.2309 17.1121 94.2309 16.9645C94.2309 16.8738 94.3102 16.7943 94.4123 16.7943C94.571 16.7943 94.5823 16.9532 94.5483 17.9518C94.5143 18.9957 94.537 19.1206 94.7184 19.1546C94.8204 19.1773 94.9111 19.2908 94.9111 19.4156C94.9111 19.6312 95.1152 19.6312 104.832 19.6312H114.753V23.9433H102.065C94.5483 23.9433 89.3441 23.8979 89.3101 23.8411ZM94.571 19.4496C94.571 19.2794 94.503 19.1773 94.4009 19.1773C94.2309 19.1773 94.1628 19.6312 94.2989 19.7787C94.4349 19.9035 94.571 19.7447 94.571 19.4496ZM123.245 22.3319C123.245 21.4355 123.211 20.4709 123.188 20.1759L123.132 19.6312H138.449L138.461 20.4028C138.461 20.8227 138.483 21.7872 138.517 22.5589L138.563 23.9433H123.256L123.245 22.3319ZM147.055 23.4099C147.021 22.4681 146.987 21.6511 146.908 20.3688C146.874 19.6879 146.806 18.5305 146.772 17.8156C146.738 17.1007 146.681 16.4766 146.658 16.4312C146.636 16.3972 146.658 16.3291 146.726 16.2837C146.794 16.2383 146.84 16.3858 146.84 16.6695V17.1348H151.658C156.398 17.1348 156.477 17.1348 156.477 16.9078C156.477 16.783 156.556 16.6809 156.647 16.6809C156.772 16.6809 156.817 16.8057 156.817 17.1121C156.828 17.339 156.851 17.9064 156.885 18.3603L156.942 19.1773H151.919L151.987 20.4596C152.032 21.1518 152.089 22.2298 152.123 22.8426L152.191 23.9433H147.066L147.055 23.4099ZM167.464 23.5234C167.452 23.1035 167.43 22.7631 167.316 21.617C167.282 21.3106 167.225 20.6752 167.191 20.2099C167.157 19.7447 167.101 19.3248 167.067 19.2681C167.033 19.2227 165.888 19.1773 164.516 19.1773C162.611 19.1773 162.033 19.1433 162.021 19.0411C162.01 18.9617 161.987 18.6667 161.976 18.383C161.953 18.0993 161.908 17.6908 161.874 17.4752C161.84 17.2596 161.863 16.9986 161.919 16.9078C162.01 16.7603 162.033 16.7716 162.033 16.9418C162.033 17.1234 162.339 17.1348 166.795 17.1348H171.557V16.6809C171.557 16.3518 171.602 16.2269 171.727 16.2269C171.84 16.2269 171.897 16.3404 171.908 16.5447C171.908 16.7149 171.931 17.0099 171.953 17.1915C171.976 17.3844 172.021 17.861 172.067 18.2695C172.101 18.678 172.158 19.1887 172.18 19.4043C172.294 20.4369 172.384 21.4128 172.532 22.9106C172.634 24.0113 172.804 23.9433 169.958 23.9433H167.475L167.464 23.5234ZM175.91 23.2851C175.91 22.9333 175.865 22.3319 175.82 21.9574C175.684 20.6979 175.65 20.3688 175.582 19.7447C175.548 19.4043 175.502 18.8709 175.468 18.5532C175.434 18.2468 175.389 17.7135 175.355 17.3731C175.321 17.044 175.264 16.7262 175.242 16.6695C175.207 16.6241 175.23 16.556 175.287 16.522C175.344 16.4766 175.412 16.5901 175.434 16.7603L175.468 17.078L177.713 17.1121C179.062 17.1234 179.947 17.1007 179.947 17.0326C179.947 16.9759 180.038 16.8965 180.151 16.8738C180.332 16.8284 180.332 16.817 180.151 16.8057C180.015 16.7943 179.947 16.7035 179.947 16.5106C179.947 16.1475 180.287 16.1248 180.298 16.4879C180.298 16.7603 180.344 17.1574 180.446 17.8723C180.48 18.122 180.536 18.6326 180.582 19.0071C180.718 20.3461 180.854 21.4922 180.922 22.0142C181.047 23.0128 181.081 23.5461 181.013 23.739C180.956 23.9319 180.763 23.9433 178.439 23.9433H175.922L175.91 23.2851ZM196.319 23.3986C196.308 22.9333 196.206 21.9915 196.104 21.4582C196.07 21.2879 195.99 20.6979 195.865 19.7447C195.786 19.166 195.707 18.6099 195.65 18.156C195.616 17.9404 195.559 17.5546 195.537 17.3163C195.503 17.078 195.446 16.8397 195.423 16.783C195.389 16.7376 195.412 16.6695 195.469 16.6355C195.525 16.5901 195.593 16.6809 195.616 16.817C195.65 17.078 195.661 17.078 197.895 17.1121L200.129 17.1348V16.7943C200.129 16.4312 200.457 16.2837 200.48 16.6582C200.491 16.8851 200.514 17.1121 200.639 17.8156C200.684 18.0993 200.73 18.4511 200.752 18.6099C200.775 18.7688 200.82 19.0525 200.854 19.2454C200.888 19.4383 200.945 19.7674 200.968 19.983C201.002 20.1986 201.047 20.5277 201.081 20.7092C201.16 21.1858 201.262 21.8894 201.319 22.3546C201.353 22.5702 201.398 22.8766 201.432 23.0355C201.467 23.1943 201.467 23.4553 201.421 23.6369L201.353 23.9433H196.33L196.319 23.3986ZM209.925 23.4667C209.913 23.1943 209.879 22.7518 209.834 22.4681C209.789 22.1844 209.721 21.7872 209.698 21.5716C209.664 21.3674 209.619 21.0837 209.585 20.9589C209.562 20.8227 209.517 20.5163 209.471 20.2667C209.437 20.017 209.38 19.7674 209.358 19.722C209.324 19.6652 212.714 19.6312 216.898 19.6312C221.07 19.6312 224.517 19.6766 224.551 19.722C224.608 19.8128 224.653 20.0057 224.789 20.8227C224.846 21.1177 224.891 21.3901 225.129 22.5816C225.288 23.3532 225.299 23.5348 225.242 23.7277C225.174 23.9319 224.925 23.9433 217.544 23.9433H209.925V23.4667ZM123.166 19.3816C123.234 19.1773 123.483 19.1433 123.483 19.3362C123.483 19.4383 123.404 19.5177 123.302 19.5177C123.2 19.5177 123.143 19.461 123.166 19.3816ZM137.996 19.3362C137.996 19.234 138.075 19.1773 138.189 19.2C138.472 19.2567 138.506 19.5177 138.234 19.5177C138.098 19.5177 137.996 19.4496 137.996 19.3362ZM209.312 19.3475C209.312 19.2 208.95 19.1773 206.761 19.1773C204.8 19.1773 204.21 19.1433 204.199 19.0411C204.199 18.9617 204.176 18.8142 204.154 18.7234C204.142 18.6326 204.086 18.3262 204.04 18.0426C203.87 16.8851 203.848 16.7376 203.802 16.6582C203.779 16.6128 203.802 16.556 203.859 16.522C203.916 16.4879 203.984 16.6128 204.029 16.8057L204.097 17.1574L206.535 17.1121C208.644 17.078 208.972 17.1007 208.984 17.2482C208.984 17.339 209.006 17.4979 209.029 17.5887C209.097 17.9177 209.233 18.7801 209.233 18.939C209.233 19.0298 209.335 19.1206 209.449 19.1546C209.698 19.2113 209.721 19.5177 209.483 19.5177C209.392 19.5177 209.312 19.4383 209.312 19.3475ZM224.052 19.3589C224.052 19.2794 224.143 19.1773 224.267 19.1433C224.46 19.0979 224.46 19.0525 224.324 18.3716C224.245 17.9745 224.143 17.4752 224.109 17.2596C224.075 17.0553 224.018 16.8397 223.995 16.7943C223.961 16.7376 223.984 16.6695 224.041 16.6355C224.097 16.6014 224.177 16.6922 224.211 16.8511L224.279 17.1348L226.467 17.1234C227.658 17.1234 228.746 17.078 228.871 17.0213C229.063 16.9418 229.063 16.9191 228.905 16.9191C228.667 16.9078 228.621 16.4993 228.848 16.4199C228.927 16.3858 228.905 16.3518 228.791 16.3518C228.667 16.3404 228.587 16.2496 228.587 16.1135C228.587 15.8298 228.927 15.8071 228.939 16.0908C228.939 16.1929 228.961 16.3631 228.984 16.4539C229.086 16.8851 229.494 19.0184 229.494 19.0979C229.494 19.1433 228.372 19.1773 227 19.1773C224.857 19.1773 224.506 19.2 224.506 19.3475C224.506 19.4383 224.403 19.5177 224.279 19.5177C224.154 19.5177 224.052 19.4496 224.052 19.3589ZM118.177 15.4667C118.2 12.0851 118.211 11.9943 118.234 14.4454L118.268 17.1348H120.535C121.975 17.1348 122.803 17.0894 122.803 17.0213C122.803 16.8511 123.143 16.8851 123.154 17.0553C123.166 17.1915 123.166 18.156 123.154 18.8142L123.143 19.1773H118.154L118.177 15.4667ZM138.37 18.7007C138.37 18.4284 138.359 17.8383 138.336 17.3844C138.313 16.9418 138.336 16.5333 138.37 16.4879C138.415 16.4539 138.449 16.5787 138.449 16.7716V17.1348H142.985V16.3972C142.985 15.8184 143.019 15.6596 143.155 15.6596C143.279 15.6596 143.325 15.7957 143.336 16.1475C143.336 16.4085 143.37 17.2028 143.393 17.9064L143.449 19.1773H138.37V18.7007ZM208.723 16.8284C208.485 16.7716 208.451 16.3404 208.678 16.3404C208.757 16.3404 208.859 16.4652 208.882 16.6241C208.916 16.783 208.938 16.8965 208.927 16.8965C208.927 16.8851 208.825 16.8624 208.723 16.8284ZM161.795 16.3177C161.783 16.1135 161.761 15.773 161.738 15.5801C161.715 15.2738 161.749 15.2057 161.931 15.2057C162.044 15.2057 162.146 15.2851 162.146 15.3759C162.146 15.4667 162.067 15.5461 161.976 15.5461C161.851 15.5461 161.829 15.6596 161.885 16.1135C161.919 16.4312 161.919 16.6809 161.874 16.6809C161.84 16.6809 161.795 16.5106 161.795 16.3177ZM195.344 16.1702C195.31 16.0113 195.333 15.8525 195.378 15.8184C195.435 15.7844 195.48 15.9206 195.48 16.1021C195.48 16.5333 195.412 16.556 195.344 16.1702ZM223.927 16.3745C223.916 16.2723 223.859 15.9546 223.78 15.5234C223.723 15.2397 223.757 15.2057 223.995 15.2057C224.177 15.2057 224.279 15.2738 224.279 15.3759C224.279 15.4667 224.199 15.5461 224.097 15.5461C223.95 15.5461 223.927 15.6255 223.995 16C224.041 16.2496 224.041 16.4539 224.007 16.4539C223.973 16.4539 223.939 16.4199 223.927 16.3745ZM57.5295 16.1589C57.3254 15.9546 57.3481 15.5461 57.5521 15.5461C57.6542 15.5461 57.7222 15.444 57.7222 15.2624C57.7222 15.1035 57.6769 14.9787 57.6088 14.9787C57.5521 14.9787 57.4954 14.8766 57.4954 14.7518C57.4954 14.627 57.5748 14.5248 57.6655 14.5248C57.7676 14.5248 57.8356 14.4227 57.8356 14.2411C57.8356 14.0823 57.7902 13.9574 57.7222 13.9574C57.6655 13.9574 57.6088 13.8553 57.6088 13.7305C57.6088 13.6057 57.6769 13.5035 57.7676 13.5035C57.8583 13.5035 57.9603 13.4355 57.983 13.3674C58.017 13.2879 58.0283 13.3787 58.0057 13.5603C57.9716 13.7532 57.9036 14.434 57.8243 15.0922C57.7562 15.7504 57.6995 16.295 57.6882 16.295C57.6769 16.3064 57.5975 16.2496 57.5295 16.1589ZM203.723 16.1135C203.689 15.9887 203.711 15.8525 203.768 15.8184C203.825 15.7844 203.87 15.8865 203.87 16.0454C203.87 16.3972 203.802 16.4312 203.723 16.1135ZM175.219 15.8298C175.219 15.5801 175.242 15.4894 175.264 15.6369C175.287 15.773 175.287 15.9773 175.264 16.0908C175.23 16.1929 175.207 16.0794 175.219 15.8298ZM200.219 16.1475C199.981 16.0908 199.947 15.6596 200.174 15.6596C200.253 15.6596 200.355 15.7844 200.378 15.9433C200.412 16.1021 200.435 16.2156 200.423 16.2156C200.423 16.2043 200.321 16.1816 200.219 16.1475ZM208.61 16.1475C208.371 16.0908 208.337 15.6596 208.564 15.6596C208.644 15.6596 208.746 15.7844 208.768 15.9433C208.802 16.1021 208.825 16.2156 208.814 16.2156C208.814 16.2043 208.712 16.1816 208.61 16.1475ZM61.1463 15.5461C61.1463 15.3305 61.169 15.2397 61.203 15.3532C61.2257 15.4553 61.2257 15.6369 61.203 15.7504C61.169 15.8525 61.1463 15.7617 61.1463 15.5461ZM94.5823 15.7504C94.5823 15.6369 94.5257 15.5461 94.4576 15.5461C94.3896 15.5461 94.3442 15.2284 94.3442 14.8199C94.3442 14.2184 94.3783 14.0936 94.5483 14.0482C94.7297 14.0028 94.7411 14.0709 94.7071 14.7972C94.673 15.6369 94.605 16.1135 94.5823 15.7504ZM122.803 13.5716C122.803 11.6199 122.826 11.2454 122.973 11.1887C123.12 11.1319 123.143 11.4383 123.143 13.5035C123.143 15.5461 123.12 15.8865 122.973 15.8865C122.826 15.8865 122.803 15.5574 122.803 13.5716ZM156.364 15.7163C156.364 15.6255 156.284 15.5461 156.194 15.5461C156.103 15.5461 156.023 15.4667 156.023 15.3759C156.023 15.2624 156.137 15.2057 156.364 15.2057C156.67 15.2057 156.704 15.2397 156.704 15.5461C156.704 15.773 156.647 15.8865 156.534 15.8865C156.443 15.8865 156.364 15.8071 156.364 15.7163ZM179.833 15.4894C179.833 15.3078 179.901 15.2057 180.004 15.2057C180.106 15.2057 180.174 15.3078 180.174 15.4894C180.174 15.6709 180.106 15.773 180.004 15.773C179.901 15.773 179.833 15.6709 179.833 15.4894ZM81.2261 15.217C81.2487 14.8312 81.2374 14.8085 80.9086 14.8312C80.7272 14.8426 80.6592 14.8199 80.7726 14.7972C80.8973 14.7518 80.9653 14.627 80.9653 14.4C80.9653 14.1844 81.022 14.0709 81.1354 14.0709C81.2487 14.0709 81.3054 14.1957 81.3054 14.4681C81.3054 14.7404 81.3621 14.8652 81.4755 14.8652C81.7476 14.8652 81.7023 15.5007 81.4188 15.5801C81.2261 15.6255 81.2034 15.5801 81.2261 15.217ZM171.443 15.3759C171.443 15.1943 171.511 15.0922 171.613 15.0922C171.715 15.0922 171.783 15.1943 171.783 15.3759C171.783 15.5574 171.715 15.6596 171.613 15.6596C171.511 15.6596 171.443 15.5574 171.443 15.3759ZM138.2 14.6383C138.177 14.139 138.2 13.7305 138.257 13.7305C138.302 13.7305 138.336 14.139 138.336 14.6383C138.336 15.1376 138.313 15.5461 138.291 15.5461C138.257 15.5461 138.223 15.1376 138.2 14.6383ZM146.635 15.0355C146.624 14.7858 146.579 14.4567 146.545 14.2979C146.488 14.0596 146.499 14.0482 146.613 14.2184C146.681 14.3206 146.715 14.661 146.692 14.956C146.658 15.478 146.658 15.478 146.635 15.0355ZM9.00244 15.2397C8.79836 15.1716 8.82103 14.9787 9.02512 14.9787C9.11582 14.9787 9.19519 14.8993 9.19519 14.8085C9.19519 14.7177 9.14984 14.6383 9.08181 14.6383C9.02512 14.6383 8.96843 14.5929 8.96843 14.5248C8.96843 14.4681 9.0478 14.4113 9.1385 14.4113C9.22921 14.4113 9.30857 14.3319 9.30857 14.2411C9.30857 14.1504 9.26322 14.0709 9.19519 14.0709C9.1385 14.0709 9.08181 14.0255 9.08181 13.9574C9.08181 13.9007 9.16118 13.844 9.25188 13.844C9.36526 13.844 9.42195 13.9461 9.41061 14.1617C9.39928 14.661 9.14984 15.2965 9.00244 15.2397ZM199.902 15.0922C199.902 14.9674 199.981 14.8652 200.072 14.8652C200.163 14.8652 200.242 14.9674 200.242 15.0922C200.242 15.217 200.163 15.3191 200.072 15.3191C199.981 15.3191 199.902 15.217 199.902 15.0922ZM208.292 15.1489C208.292 15.0582 208.371 14.9787 208.462 14.9787C208.553 14.9787 208.632 15.0582 208.632 15.1489C208.632 15.2397 208.553 15.3191 208.462 15.3191C208.371 15.3191 208.292 15.2397 208.292 15.1489ZM66.1237 15.0695C66.1237 14.956 66.0557 14.8652 65.9763 14.8652C65.8856 14.8652 65.8743 14.8312 65.965 14.7404C66.0444 14.661 66.2031 14.661 66.4639 14.7291C66.8267 14.8312 66.8267 14.8426 66.5432 14.8539C66.3618 14.8652 66.2258 14.9447 66.1918 15.0695C66.1464 15.2511 66.1351 15.2511 66.1237 15.0695ZM156.25 14.9787C156.25 14.922 156.352 14.8652 156.488 14.8652C156.613 14.8652 156.681 14.922 156.647 14.9787C156.613 15.0468 156.5 15.0922 156.409 15.0922C156.318 15.0922 156.25 15.0468 156.25 14.9787ZM166.341 14.9787C166.341 14.922 166.42 14.8652 166.511 14.8652C166.602 14.8652 166.681 14.922 166.681 14.9787C166.681 15.0468 166.602 15.0922 166.511 15.0922C166.42 15.0922 166.341 15.0468 166.341 14.9787ZM175.094 14.7518C175.094 14.5362 175.117 14.4454 175.151 14.5589C175.173 14.661 175.173 14.8426 175.151 14.956C175.117 15.0582 175.094 14.9674 175.094 14.7518ZM29.1842 14.8993C28.9802 14.8312 29.0028 14.5248 29.2069 14.5248C29.2976 14.5248 29.377 14.4227 29.377 14.2979C29.377 14.173 29.3316 14.0709 29.2636 14.0709C29.0709 14.0709 29.1389 13.878 29.3543 13.8213C29.5471 13.7645 29.5584 13.8099 29.479 14.3319C29.377 14.9674 29.377 14.9674 29.1842 14.8993ZM195.163 14.6383C195.163 14.4227 195.185 14.3319 195.219 14.4454C195.242 14.5475 195.242 14.7291 195.219 14.8426C195.185 14.9447 195.163 14.8539 195.163 14.6383ZM89.7296 13.9574C89.7296 13.4922 89.7523 13.2993 89.775 13.5376C89.7977 13.7645 89.7977 14.1504 89.775 14.3887C89.7523 14.6156 89.7296 14.4227 89.7296 13.9574ZM151.261 14.2865C151.261 13.6965 151.534 13.7418 151.579 14.3319C151.602 14.6496 151.568 14.7518 151.443 14.7518C151.307 14.7518 151.261 14.627 151.261 14.2865ZM166.659 14.4681C166.625 14.3092 166.647 14.1844 166.693 14.1844C166.749 14.1844 166.795 14.3092 166.795 14.4681C166.795 14.627 166.772 14.7518 166.749 14.7518C166.727 14.7518 166.681 14.627 166.659 14.4681ZM37.427 14.5248C37.427 14.4681 37.5064 14.4113 37.5971 14.4113C37.6878 14.4113 37.7672 14.3092 37.7672 14.1844C37.7672 14.0596 37.7218 13.9574 37.6538 13.9574C37.5971 13.9574 37.5404 13.878 37.5404 13.7872C37.5404 13.6965 37.6198 13.617 37.7105 13.617C37.8919 13.617 37.9486 14.105 37.8125 14.4567C37.7332 14.6496 37.427 14.7064 37.427 14.5248ZM61.271 14.1277C61.271 13.8213 61.2937 13.6965 61.3164 13.878C61.3391 14.0482 61.3391 14.2979 61.3164 14.4454C61.2937 14.5816 61.271 14.4454 61.271 14.1277ZM179.72 14.4113C179.72 14.2865 179.799 14.1844 179.89 14.1844C179.981 14.1844 180.06 14.2865 180.06 14.4113C180.06 14.5362 179.981 14.6383 179.89 14.6383C179.799 14.6383 179.72 14.5362 179.72 14.4113ZM208.179 14.4681C208.179 14.3773 208.258 14.2979 208.349 14.2979C208.439 14.2979 208.519 14.3773 208.519 14.4681C208.519 14.5589 208.439 14.6383 208.349 14.6383C208.258 14.6383 208.179 14.5589 208.179 14.4681ZM19.2067 14.4454C19.0026 14.3773 19.0253 14.1844 19.2294 14.1844C19.3201 14.1844 19.3995 14.1277 19.3995 14.0482C19.3995 13.9801 19.4221 13.9461 19.4562 13.9801C19.5695 14.0936 19.3428 14.4908 19.2067 14.4454ZM171.33 14.2298C171.33 13.878 171.591 13.9121 171.647 14.2752C171.67 14.4454 171.625 14.5248 171.511 14.5248C171.387 14.5248 171.33 14.4227 171.33 14.2298ZM199.788 14.3546C199.788 14.2638 199.868 14.1844 199.959 14.1844C200.049 14.1844 200.129 14.2638 200.129 14.3546C200.129 14.4454 200.049 14.5248 199.959 14.5248C199.868 14.5248 199.788 14.4454 199.788 14.3546ZM142.871 13.844C142.871 13.4128 142.917 13.2766 143.041 13.2766C143.166 13.2766 143.211 13.4128 143.211 13.844C143.211 14.2752 143.166 14.4113 143.041 14.4113C142.917 14.4113 142.871 14.2752 142.871 13.844ZM156.602 14.0596C156.602 13.8894 156.568 13.583 156.534 13.3787L156.477 12.9929L156.602 13.3787C156.658 13.583 156.692 13.8894 156.67 14.0596L156.624 14.3546L156.602 14.0596ZM174.901 13.3333C174.856 12.8567 174.845 12.4482 174.867 12.4142C174.901 12.3915 174.958 12.7546 175.003 13.2312C175.049 13.7078 175.06 14.1163 175.026 14.1504C175.003 14.173 174.947 13.8099 174.901 13.3333ZM194.97 13.5376C194.936 13.1745 194.868 12.7546 194.845 12.5957C194.8 12.3461 194.811 12.3461 194.902 12.539C195.015 12.8 195.185 14.1844 195.106 14.1844C195.072 14.1844 195.015 13.8894 194.97 13.5376ZM189.698 13.9007C189.698 13.8099 189.777 13.7305 189.868 13.7305C189.958 13.7305 190.038 13.8099 190.038 13.9007C190.038 13.9915 189.958 14.0709 189.868 14.0709C189.777 14.0709 189.698 13.9915 189.698 13.9007ZM208.065 13.7759C208.065 13.6738 208.122 13.617 208.201 13.6397C208.405 13.7078 208.439 13.9574 208.247 13.9574C208.145 13.9574 208.065 13.878 208.065 13.7759ZM19.3201 13.7645C19.116 13.6851 19.1387 13.5035 19.3428 13.5035C19.4335 13.5035 19.5129 13.583 19.5129 13.6738C19.5129 13.7645 19.5015 13.844 19.4902 13.8326C19.4675 13.8326 19.3881 13.7986 19.3201 13.7645ZM161.239 13.5489C161.239 13.1972 161.5 13.2312 161.556 13.5943C161.579 13.7645 161.534 13.844 161.42 13.844C161.296 13.844 161.239 13.7418 161.239 13.5489ZM9.34259 13.5603C9.14984 13.3447 9.16118 13.2766 9.36526 13.2766C9.45597 13.2766 9.53533 13.3787 9.53533 13.5035C9.53533 13.7645 9.524 13.7759 9.34259 13.5603ZM52.9942 13.3333C52.9942 13.0837 53.0169 12.9929 53.0396 13.1404C53.0623 13.2766 53.0623 13.4809 53.0396 13.5943C53.0056 13.6965 52.9829 13.583 52.9942 13.3333ZM199.675 13.5603C199.675 13.4695 199.754 13.3901 199.845 13.3901C199.936 13.3901 200.015 13.4695 200.015 13.5603C200.015 13.6511 199.936 13.7305 199.845 13.7305C199.754 13.7305 199.675 13.6511 199.675 13.5603ZM146.533 12.9929C146.533 12.6184 146.556 12.4823 146.579 12.6865C146.601 12.8908 146.601 13.1972 146.579 13.3674C146.556 13.5376 146.533 13.3674 146.533 12.9929ZM166.591 13.2766C166.591 13.061 166.613 12.9702 166.647 13.0837C166.67 13.1858 166.67 13.3674 166.647 13.4809C166.613 13.583 166.591 13.4922 166.591 13.2766ZM179.607 13.3901C179.607 13.2652 179.686 13.1631 179.777 13.1631C179.867 13.1631 179.947 13.2652 179.947 13.3901C179.947 13.5149 179.867 13.617 179.777 13.617C179.686 13.617 179.607 13.5149 179.607 13.3901ZM203.315 13.4468C203.303 13.322 203.269 13.095 203.247 12.9362L203.179 12.6525L203.303 12.9362C203.371 13.0837 203.405 13.3106 203.383 13.4468C203.337 13.6624 203.337 13.6624 203.315 13.4468ZM29.411 13.4241C29.2069 13.356 29.2296 13.1631 29.4337 13.1631C29.5244 13.1631 29.6038 13.061 29.6038 12.9362C29.6038 12.8113 29.5584 12.7092 29.4904 12.7092C29.4337 12.7092 29.377 12.6638 29.377 12.5957C29.377 12.539 29.4564 12.4823 29.5471 12.4823C29.6604 12.4823 29.7171 12.5844 29.7058 12.8C29.6945 13.2199 29.5697 13.4809 29.411 13.4241ZM184.89 13.095C184.845 12.8681 184.834 12.6638 184.856 12.6411C184.89 12.6071 184.947 12.766 184.981 13.0043C185.026 13.2312 185.038 13.4355 185.015 13.4582C184.981 13.4922 184.924 13.3333 184.89 13.095ZM19.4335 13.2085C19.2407 13.0156 19.2521 12.9362 19.4562 12.9362C19.5469 12.9362 19.6262 12.8567 19.6262 12.7433C19.6262 12.6411 19.6602 12.5844 19.6943 12.6184C19.7283 12.6525 19.7169 12.834 19.6602 13.0269C19.5809 13.3106 19.5469 13.3447 19.4335 13.2085ZM37.8012 13.2085C37.6084 13.0043 37.6198 12.8227 37.8239 12.8227C37.9146 12.8227 37.9939 12.7433 37.9939 12.6298C37.9939 12.5277 38.0166 12.4709 38.0506 12.505C38.0846 12.539 38.0733 12.7433 38.028 12.9589C37.9486 13.2879 37.9146 13.3333 37.8012 13.2085ZM171.216 13.0496C171.216 12.9248 171.296 12.8227 171.387 12.8227C171.477 12.8227 171.557 12.9248 171.557 13.0496C171.557 13.1745 171.477 13.2766 171.387 13.2766C171.296 13.2766 171.216 13.1745 171.216 13.0496ZM9.45597 12.9816C9.26322 12.7887 9.27456 12.7092 9.47864 12.7092C9.56935 12.7092 9.64871 12.6525 9.64871 12.573C9.64871 12.505 9.67139 12.4709 9.7054 12.4936C9.72808 12.5277 9.71674 12.6865 9.67139 12.8454C9.60336 13.0837 9.56935 13.1064 9.45597 12.9816ZM57.9603 13.0269C57.9603 12.9135 57.9036 12.8227 57.8356 12.8227C57.7789 12.8227 57.7222 12.7433 57.7222 12.6525C57.7222 12.5617 57.8016 12.4823 57.8923 12.4823C57.983 12.4823 58.0624 12.4255 58.0624 12.3461C58.0624 12.278 58.085 12.244 58.1077 12.2667C58.1304 12.2894 58.1077 12.5163 58.0624 12.766C58.017 13.0156 57.9716 13.1291 57.9603 13.0269ZM81.2261 13.0837C81.0107 13.0043 81.0333 12.3688 81.2487 12.3688C81.3621 12.3688 81.4188 12.4936 81.4188 12.766C81.4188 12.9816 81.4075 13.1631 81.3961 13.1518C81.3735 13.1518 81.2941 13.1177 81.2261 13.0837ZM189.584 13.0496C189.584 12.9929 189.664 12.9362 189.754 12.9362C189.845 12.9362 189.924 12.9929 189.924 13.0496C189.924 13.1177 189.845 13.1631 189.754 13.1631C189.664 13.1631 189.584 13.1177 189.584 13.0496ZM207.952 13.0496C207.952 12.9929 208.031 12.9362 208.122 12.9362C208.213 12.9362 208.292 12.9929 208.292 13.0496C208.292 13.1177 208.213 13.1631 208.122 13.1631C208.031 13.1631 207.952 13.1177 207.952 13.0496ZM151.148 12.6071C151.148 12.4255 151.216 12.2553 151.318 12.2099C151.454 12.1645 151.488 12.244 151.488 12.539C151.488 12.8113 151.432 12.9362 151.318 12.9362C151.205 12.9362 151.148 12.8227 151.148 12.6071ZM199.562 12.7546C199.562 12.5617 199.811 12.5957 199.879 12.8C199.902 12.8794 199.845 12.9362 199.743 12.9362C199.641 12.9362 199.562 12.8567 199.562 12.7546ZM94.4576 11.9149C94.4576 11.4837 94.503 11.3475 94.6277 11.3475C94.7524 11.3475 94.7978 11.4837 94.7978 11.9149C94.7978 12.3461 94.7524 12.4823 94.6277 12.4823C94.503 12.4823 94.4576 12.3461 94.4576 11.9149ZM19.5355 12.3007C19.6376 12.2667 19.751 12.1532 19.785 12.0511C19.819 11.9149 19.8303 11.9149 19.819 12.0851C19.8076 12.2213 19.7056 12.3234 19.5695 12.3348C19.3995 12.3461 19.3995 12.3348 19.5355 12.3007ZM161.126 12.1532C161.126 12.0397 161.205 11.9149 161.296 11.8695C161.42 11.8241 161.466 11.8809 161.466 12.0851C161.466 12.2667 161.398 12.3688 161.296 12.3688C161.205 12.3688 161.126 12.2667 161.126 12.1532ZM89.843 11.6879C89.843 11.3475 89.8657 11.2 89.8884 11.3816C89.911 11.5518 89.911 11.8241 89.8884 12.0057C89.8657 12.1759 89.843 12.0284 89.843 11.6879ZM138.143 11.6879C138.143 11.4043 138.166 11.2908 138.189 11.4383C138.211 11.5745 138.211 11.8014 138.189 11.9489C138.166 12.0851 138.143 11.9716 138.143 11.6879ZM171.103 11.9262C171.103 11.8695 171.182 11.8014 171.273 11.756C171.375 11.722 171.443 11.756 171.443 11.8582C171.443 11.9489 171.364 12.0284 171.273 12.0284C171.182 12.0284 171.103 11.983 171.103 11.9262ZM142.758 11.5745C142.758 11.3475 142.815 11.234 142.928 11.234C143.041 11.234 143.098 11.3475 143.098 11.5745C143.098 11.8014 143.041 11.9149 142.928 11.9149C142.815 11.9149 142.758 11.8014 142.758 11.5745ZM57.8356 11.5745C57.8356 11.5177 57.915 11.461 58.0057 11.461C58.0964 11.461 58.1757 11.5177 58.1757 11.5745C58.1757 11.6426 58.0964 11.6879 58.0057 11.6879C57.915 11.6879 57.8356 11.6426 57.8356 11.5745ZM184.652 11.1206C184.607 11.0525 184.709 11.0071 184.868 11.0071C185.026 11.0071 185.162 11.0638 185.162 11.1206C185.162 11.1887 185.06 11.234 184.947 11.234C184.822 11.234 184.686 11.1887 184.652 11.1206ZM10.0455 10.4397C9.96618 10.3149 10.1476 10.3149 10.5558 10.4397C10.8279 10.5305 10.8279 10.5305 10.4764 10.5418C10.2836 10.5532 10.0796 10.5078 10.0455 10.4397ZM24.3882 10.5078C24.3882 10.4851 24.5129 10.4397 24.6717 10.417C24.8304 10.383 24.9551 10.4057 24.9551 10.4511C24.9551 10.5078 24.8304 10.5532 24.6717 10.5532C24.5129 10.5532 24.3882 10.5305 24.3882 10.5078ZM179.55 10.4397C179.471 10.3149 179.652 10.3149 180.06 10.4397C180.332 10.5305 180.332 10.5305 179.981 10.5418C179.788 10.5532 179.584 10.5078 179.55 10.4397ZM193.893 10.5078C193.893 10.4851 194.017 10.4397 194.176 10.417C194.335 10.383 194.46 10.4057 194.46 10.4511C194.46 10.5078 194.335 10.5532 194.176 10.5532C194.017 10.5532 193.893 10.5305 193.893 10.5078ZM66.9287 6.6383C66.8947 6.11631 66.6906 6.12766 74.4686 6.10496C80.3304 6.08227 81.827 6.10496 81.793 6.20709C81.7476 6.32057 80.1603 6.35461 74.3892 6.35461L67.0308 6.35461L66.9854 6.6156C66.9401 6.83121 66.9401 6.83121 66.9287 6.6383ZM38.5608 6.55887C38.5608 6.15035 39.0257 6.12766 46.3841 6.12766C51.9171 6.12766 53.6632 6.1617 53.9013 6.27518C54.2528 6.43404 54.3094 6.69504 53.9806 6.69504C53.8559 6.69504 53.7539 6.6156 53.7539 6.52482C53.7539 6.37731 52.8582 6.35461 46.3274 6.35461C39.7967 6.35461 38.901 6.37731 38.901 6.52482C38.901 6.6156 38.8216 6.69504 38.7309 6.69504C38.6402 6.69504 38.5608 6.62695 38.5608 6.55887ZM81.8723 6.52482C81.8723 6.43404 81.9517 6.35461 82.0424 6.35461C82.1445 6.35461 82.1785 6.4227 82.1445 6.52482C82.0991 6.6156 82.0311 6.69504 81.9744 6.69504C81.9177 6.69504 81.8723 6.6156 81.8723 6.52482ZM122.689 6.52482C122.689 6.43404 122.769 6.35461 122.86 6.35461C122.95 6.35461 123.03 6.30922 123.03 6.24114C123.03 6.1617 125.581 6.12766 130.456 6.12766C135.331 6.12766 137.883 6.1617 137.883 6.24114C137.883 6.30922 137.962 6.35461 138.053 6.35461C138.143 6.35461 138.223 6.43404 138.223 6.52482C138.223 6.6156 138.143 6.69504 138.053 6.69504C137.962 6.69504 137.883 6.6156 137.883 6.52482C137.883 6.37731 136.975 6.35461 130.445 6.35461C123.88 6.35461 123.018 6.37731 123.075 6.52482C123.12 6.6383 123.064 6.69504 122.916 6.69504C122.792 6.69504 122.689 6.6156 122.689 6.52482ZM206.773 6.52482C206.727 6.41135 206.784 6.35461 206.943 6.35461C207.09 6.35461 207.158 6.29787 207.124 6.21844C207.09 6.10496 208.609 6.08227 214.539 6.10496C219.358 6.11631 222.011 6.17305 222.011 6.24114C222.011 6.30922 222.09 6.35461 222.181 6.35461C222.272 6.35461 222.351 6.43404 222.351 6.52482C222.351 6.74043 222.136 6.74043 222.056 6.52482C222 6.37731 221.059 6.35461 214.562 6.35461C208.009 6.35461 207.147 6.37731 207.204 6.52482C207.238 6.6383 207.192 6.69504 207.056 6.69504C206.943 6.69504 206.818 6.6156 206.773 6.52482Z" fill="#6DD16B"/>
<path d="M6.84821 29.8667C6.74616 29.7986 3.40143 25.0099 2.69847 23.9092L2.50572 23.6028H7.58518L9.62604 26.7007C10.7372 28.3915 11.6329 29.8213 11.6102 29.878C11.5535 29.9801 7.02962 29.9801 6.84821 29.8667ZM26.4064 29.7645C26.259 29.583 25.9302 29.0156 25.1706 27.6312C25.0685 27.4496 24.547 26.5191 24.0027 25.5773C23.4698 24.6355 23.0277 23.8071 23.0277 23.7277C23.0277 23.6369 23.7306 23.6028 25.5107 23.6028H27.9937L29.0482 25.5546C30.4881 28.244 31.3045 29.8099 31.3045 29.8894C31.3045 29.9234 30.2387 29.9574 28.9461 29.9574C26.8259 29.9574 26.5651 29.9347 26.4064 29.7645ZM34.6265 29.8213C34.4338 29.5716 31.5312 23.8638 31.5312 23.7277C31.5312 23.6369 32.2342 23.6028 34.0143 23.6028H36.4973L37.1436 24.9418C38.935 28.5957 39.4679 29.7532 39.4112 29.8553C39.2978 30.0255 34.7626 29.9915 34.6265 29.8213ZM54.2188 29.7078C53.6065 28.1305 52.6654 25.7248 52.3366 24.9191C52.1212 24.3631 51.9398 23.8298 51.9398 23.7504C51.9398 23.6255 52.4047 23.6028 54.4455 23.6255L56.9626 23.6596L58.0624 26.7234C58.6746 28.4142 59.1508 29.8213 59.1168 29.878C59.0941 29.9234 57.9943 29.9574 56.6905 29.9574C54.3321 29.9574 54.3095 29.9574 54.2188 29.7078ZM62.5069 29.8213C62.4502 29.7418 61.9853 28.4709 61.4865 27.0071C60.9876 25.5433 60.5227 24.2043 60.466 24.0454C60.398 23.8752 60.3753 23.705 60.4093 23.6709C60.4547 23.6369 61.5885 23.6028 62.9491 23.6028H65.4208L65.9877 25.3844C66.9287 28.3688 67.3369 29.7872 67.2802 29.878C67.2575 29.9234 66.1918 29.9574 64.9332 29.9574C63.2212 29.9574 62.5976 29.9234 62.5069 29.8213ZM82.0991 29.7078C82.0084 29.4695 81.793 28.5504 81.3621 26.4965C81.2828 26.122 81.1354 25.4071 81.022 24.9078C80.9199 24.4085 80.8292 23.9773 80.8292 23.9433C80.8066 23.6142 80.8859 23.6028 83.335 23.6028C86.1128 23.6028 85.8634 23.5234 86.0107 24.4539C86.0561 24.7035 86.2148 25.5433 86.3622 26.3262C86.5096 27.1092 86.657 27.9262 86.691 28.1418C86.7251 28.3574 86.8044 28.7433 86.8611 28.9929C86.9178 29.2426 86.9745 29.5603 86.9745 29.7078V29.9574H84.5935C82.2238 29.9574 82.2011 29.9574 82.0991 29.7078ZM90.3306 29.8667C90.2852 29.7872 90.0471 28.4482 89.7523 26.6667C89.7296 26.5078 89.673 26.2014 89.6389 25.9858C89.5596 25.4752 89.4689 24.9872 89.4122 24.6241C89.3895 24.4652 89.3328 24.1702 89.2988 23.9773L89.2421 23.6028H114.719L114.787 25.3277C114.9 27.8128 114.889 29.4922 114.753 29.7418C114.639 29.9574 114.379 29.9574 102.508 29.9574C95.8409 29.9574 90.3646 29.9121 90.3306 29.8667ZM123.075 29.8326C122.996 29.6965 123.098 26.0879 123.222 24.4879L123.29 23.6028H130.921C137.1 23.6028 138.563 23.6255 138.563 23.7504C138.563 24 137.769 29.6624 137.712 29.8213C137.644 30.0142 123.2 30.0255 123.075 29.8326ZM146.001 29.8553C145.967 29.7986 146.193 28.3915 146.499 26.7121C146.817 25.044 147.066 23.6596 147.066 23.6369C147.066 23.6142 148.212 23.6028 149.617 23.6028C151.023 23.6028 152.169 23.6369 152.169 23.6709C152.169 23.7163 151.919 24.8965 151.613 26.3149C151.307 27.722 151.012 29.061 150.978 29.2766C150.842 29.9688 150.876 29.9574 148.359 29.9574C147.1 29.9574 146.035 29.9121 146.001 29.8553ZM165.615 29.8667C165.593 29.8213 165.661 29.5035 165.763 29.1631C165.876 28.8227 166.103 28.0851 166.273 27.5177C166.443 26.9617 166.647 26.2922 166.727 26.0426C166.817 25.7929 167.021 25.1461 167.203 24.6014L167.52 23.6028H170.037C172.01 23.6028 172.566 23.6369 172.52 23.739C171.817 26.0199 170.582 29.6057 170.445 29.7645C170.298 29.9347 170.026 29.9574 167.974 29.9574C166.704 29.9574 165.649 29.9234 165.615 29.8667ZM173.858 29.7872C173.824 29.6851 173.847 29.4922 173.926 29.356C174.062 29.095 174.402 28.1305 174.697 27.1773C174.788 26.8709 174.913 26.5645 174.958 26.4965C175.003 26.4397 175.128 26.1333 175.23 25.8156C175.332 25.5092 175.525 24.8965 175.684 24.4539L175.944 23.6596L178.507 23.6255L181.069 23.6028L180.979 23.9092C180.888 24.2156 179.414 28.0057 178.892 29.2766L178.632 29.9007L176.285 29.9347C174.221 29.9574 173.926 29.9348 173.858 29.7872ZM193.496 29.844C193.462 29.7872 194.097 28.3574 194.924 26.6667L196.432 23.6028H198.904C201.206 23.6028 201.376 23.6142 201.376 23.8071C201.376 23.9206 201.33 24.0567 201.274 24.1135C201.217 24.1816 200.548 25.4525 199.788 26.9504C199.029 28.4482 198.349 29.7418 198.292 29.8213C198.144 29.9915 193.609 30.0255 193.496 29.844ZM206.591 29.8326C206.591 29.7078 206.807 29.2993 207.646 27.8014C207.771 27.5858 207.997 27.1773 208.156 26.8936C208.303 26.6099 208.473 26.3376 208.519 26.2695C208.564 26.2128 208.768 25.8496 208.972 25.4752C209.176 25.1007 209.494 24.522 209.675 24.2043L210.015 23.6028H217.657C224.914 23.6028 225.299 23.6142 225.197 23.8071C225.129 23.9092 224.199 25.3277 223.122 26.9504L221.161 29.9007L213.882 29.9347C208.405 29.9574 206.591 29.9234 206.591 29.8326Z" fill="#254825"/>
<path d="M94.5483 19.9149C94.5257 19.8809 94.5143 19.7106 94.5483 19.5177L94.5937 19.1773H114.753V19.9716H104.685C99.1403 19.9716 94.5824 19.9489 94.5483 19.9149ZM123.166 19.6085L123.2 19.234H138.381L138.415 19.6085L138.449 19.9716H123.132L123.166 19.6085ZM209.415 19.8922C209.415 19.8355 209.381 19.6652 209.358 19.495L209.301 19.1773H216.909C222.907 19.1773 224.506 19.2113 224.517 19.3248C224.517 19.3929 224.54 19.5745 224.574 19.722L224.619 19.9716H217.022C212.839 19.9716 209.426 19.9376 209.415 19.8922ZM37.6992 15.3645C37.7332 15.2624 37.7672 15.1149 37.7672 15.0241C37.7672 14.8879 38.867 14.8652 45.2503 14.8652H52.7335V15.5461H45.1823C38.3454 15.5461 37.6311 15.5348 37.6992 15.3645ZM81.2374 15.3645C81.2714 15.2624 81.3055 15.1149 81.3055 15.0241C81.3055 14.8879 81.725 14.8652 83.7998 14.8652H86.2942V15.5461H83.7318C81.4415 15.5461 81.1807 15.5234 81.2374 15.3645ZM151.715 14.8652H156.658L156.704 15.5461H151.715V14.8652ZM161.772 15.4667C161.727 15.4326 161.693 15.2738 161.693 15.1262L161.693 14.8652H166.681V15.5461H164.266C162.928 15.5461 161.806 15.5121 161.772 15.4667ZM223.791 15.4667C223.746 15.4326 223.712 15.2738 223.712 15.1262V14.8652H226.206C228.122 14.8652 228.701 14.8993 228.712 15.0128C228.712 15.0809 228.735 15.2397 228.757 15.3532C228.791 15.5348 228.61 15.5461 226.331 15.5461C224.97 15.5461 223.825 15.5121 223.791 15.4667ZM14.9776 11.0752C14.9776 10.5532 14.9776 10.5532 17.5967 10.5532C18.9573 10.5532 20.0798 10.5872 20.0798 10.644C20.0798 10.6894 20.0457 10.8369 20.0117 10.9844C19.9437 11.234 19.9324 11.234 17.4607 11.234C15.3971 11.234 14.9776 11.2113 14.9776 11.0752ZM66.5886 10.9277L66.6226 10.6099L74.0831 10.5759L81.5322 10.5532L81.5322 11.234H66.5546L66.5886 10.9277ZM156.364 10.5532H161.352L161.352 10.8936L161.352 11.234H156.364V10.5532ZM184.698 11.2113C184.698 11.1887 184.663 11.0411 184.641 10.8709L184.584 10.5532H187.09C189.006 10.5532 189.584 10.5872 189.596 10.7007C189.596 10.7688 189.618 10.9277 189.641 11.0411C189.675 11.2227 189.494 11.234 187.192 11.234C185.831 11.234 184.709 11.2227 184.698 11.2113ZM10.8506 6.72908C10.8959 6.54752 10.9299 6.41135 10.9413 6.41135C10.9526 6.41135 12.0411 6.42269 13.3676 6.44539L15.7713 6.47943V7.03546H10.7825L10.8506 6.72908ZM20.8281 6.44539L22.1206 6.43404C22.8349 6.43404 23.946 6.44539 24.5696 6.44539L25.7148 6.46808L25.6581 6.75177L25.6127 7.03546H20.6693L20.8281 6.44539ZM33.9122 6.84255C33.9122 6.72908 33.9576 6.59291 34.0029 6.52482C34.0483 6.45674 35.0234 6.41135 36.4973 6.41135H38.9123L38.8443 6.97872L36.3839 7.01277C34.0823 7.03546 33.9122 7.02411 33.9122 6.84255ZM53.7539 6.41135H58.7426L58.7086 6.69504L58.6633 6.97872L56.2143 7.01277L53.7539 7.03546V6.41135ZM81.8497 6.72908L81.895 6.41135H86.7477V7.03546H81.793L81.8497 6.72908ZM118.098 6.44539L120.569 6.43404C122.826 6.41135 123.041 6.42269 123.098 6.60426C123.132 6.71773 123.12 6.8539 123.086 6.92199C123.041 6.99007 122.089 7.03546 120.547 7.03546H118.075L118.098 6.44539ZM137.951 6.78582C137.917 6.6383 137.883 6.50213 137.883 6.46808C137.883 6.43404 139.005 6.41135 140.377 6.41135H142.871V7.03546H140.445C138.03 7.03546 138.019 7.03546 137.951 6.78582ZM179.233 6.95603C179.187 6.92199 179.153 6.77447 179.153 6.64964C179.153 6.41135 179.187 6.41135 181.614 6.43404L184.085 6.45674L184.119 6.74043L184.153 7.03546H181.727C180.4 7.03546 179.267 7.00142 179.233 6.95603ZM189.119 6.95603C189.119 6.89929 189.097 6.76312 189.074 6.6383C189.029 6.41135 189.085 6.41135 191.512 6.41135H194.006V7.03546H191.568C190.23 7.03546 189.131 7.00142 189.119 6.95603ZM202.283 6.41135H204.721C206.058 6.41135 207.158 6.43404 207.17 6.46808C207.17 6.50213 207.192 6.6383 207.226 6.78582L207.272 7.03546H202.283V6.41135ZM222.113 6.95603C222.113 6.89929 222.091 6.74043 222.057 6.59291C222.011 6.34326 222.034 6.33191 222.363 6.4C222.555 6.43404 223.678 6.46808 224.846 6.46808H226.977L227.023 6.75177L227.079 7.03546H224.608C223.236 7.03546 222.125 7.00142 222.113 6.95603Z" fill="#EBFFE0"/>
<path d="M86.6457 6.95603C86.6343 6.8539 86.0448 6.80851 84.2874 6.78582C82.1445 6.75177 81.929 6.72908 81.895 6.55887C81.861 6.36596 82.0311 6.35461 84.2533 6.35461C86.7817 6.35461 86.8498 6.36596 86.7137 6.88794C86.6835 7.00142 86.6608 7.02411 86.6457 6.95603ZM142.769 6.95603C142.758 6.84255 142.214 6.80851 140.445 6.80851C138.654 6.80851 138.109 6.77447 138.007 6.66099C137.939 6.57021 137.917 6.46808 137.962 6.43404C137.996 6.38865 139.096 6.35461 140.4 6.35461C142.905 6.35461 142.973 6.36596 142.837 6.88794C142.799 7.00142 142.777 7.02411 142.769 6.95603ZM184.006 6.92199C183.983 6.86525 183.008 6.80851 181.568 6.80851C179.255 6.79716 179.153 6.78582 179.153 6.57021C179.153 6.35461 179.244 6.35461 181.614 6.37731L184.063 6.41135L184.108 6.72908C184.153 7.02411 184.085 7.14894 184.006 6.92199ZM13.3336 6.80851C11.1907 6.76312 10.9526 6.72908 10.9186 6.55887C10.8846 6.36596 11.0546 6.35461 13.3676 6.35461H15.8507L15.794 6.6383C15.7713 6.79716 15.7373 6.91064 15.7259 6.89929C15.7259 6.88794 14.6488 6.84255 13.3336 6.80851ZM33.9916 6.71773C34.0029 6.62695 34.0256 6.51347 34.0256 6.45674C34.0256 6.4 35.0574 6.35461 36.4633 6.35461C38.7763 6.35461 38.901 6.36596 38.901 6.57021C38.901 6.77447 38.7876 6.78582 36.4633 6.76312C35.1254 6.76312 34.0143 6.77447 33.9916 6.80851C33.9689 6.84255 33.9689 6.79716 33.9916 6.71773ZM202.283 6.67234V6.35461H204.653C206.897 6.35461 207.362 6.41135 207.102 6.67234C207.056 6.71773 206.002 6.75177 204.743 6.75177C203.349 6.75177 202.419 6.79716 202.374 6.86525C202.328 6.93333 202.283 6.84255 202.283 6.67234ZM20.8167 6.69504C20.6353 6.4 20.9868 6.35461 23.3225 6.35461C24.6603 6.35461 25.7488 6.37731 25.7488 6.4C25.7488 6.4227 25.7148 6.52482 25.6808 6.62695C25.6241 6.78582 25.2839 6.80851 23.2431 6.80851C21.8372 6.80851 20.8507 6.76312 20.8167 6.69504ZM53.8106 6.69504C53.6292 6.4 53.9693 6.35461 56.3163 6.35461C58.3005 6.35461 58.7426 6.38865 58.7426 6.51347C58.7426 6.59291 58.5839 6.69504 58.3912 6.74043C57.7902 6.8539 53.8899 6.81986 53.8106 6.69504ZM118.234 6.72908C118.188 6.69503 118.154 6.59291 118.154 6.50213C118.154 6.27518 122.973 6.28652 123.064 6.51347C123.109 6.6156 123.018 6.69504 122.78 6.74043C122.315 6.83121 118.324 6.83121 118.234 6.72908ZM189.21 6.74043C189.165 6.69504 189.131 6.59291 189.131 6.50213C189.131 6.38865 189.607 6.35461 191.5 6.35461C193.745 6.35461 194.21 6.41135 193.949 6.67234C193.847 6.77447 189.312 6.84255 189.21 6.74043ZM222.125 6.58156C222.125 6.35461 222.181 6.35461 224.528 6.37731C226.716 6.41135 226.943 6.43404 226.977 6.6156C227.011 6.79716 226.841 6.80851 224.574 6.80851C222.193 6.80851 222.125 6.79716 222.125 6.58156ZM6.70081 2.67801C6.70081 2.15603 6.70081 2.15603 9.27456 2.15603H11.7009L11.6669 2.47376L11.6329 2.78014L9.17251 2.81418C7.08631 2.83688 6.70081 2.81418 6.70081 2.67801ZM26.3611 2.65532C26.3951 2.55319 26.4291 2.40567 26.4291 2.31489C26.4291 2.17872 26.8486 2.15603 28.9348 2.15603C31.1797 2.15603 31.4292 2.17872 31.3725 2.33759C31.3385 2.43972 31.3045 2.58723 31.3045 2.67801C31.3045 2.81418 30.885 2.83688 28.7987 2.83688C26.5538 2.83688 26.3044 2.81418 26.3611 2.65532ZM39.4679 2.67801C39.4679 2.13333 39.0824 2.15603 46.9737 2.15603C53.6518 2.15603 54.3435 2.16738 54.2754 2.33759C54.2414 2.43972 54.2074 2.58723 54.2074 2.67801C54.2074 2.81418 53.119 2.83688 46.8377 2.83688C40.5564 2.83688 39.4679 2.81418 39.4679 2.67801ZM62.4162 2.65532C62.4502 2.56454 62.4842 2.40567 62.4842 2.31489C62.4842 2.17872 63.9015 2.15603 72.303 2.15603H82.1104L82.0764 2.47376L82.0424 2.78014L72.1896 2.81418C63.2439 2.83688 62.3482 2.82553 62.4162 2.65532ZM90.2625 2.49645V2.15603H92.6889C94.0268 2.15603 95.1493 2.20142 95.1833 2.24681C95.2173 2.30355 95.2059 2.45106 95.1719 2.58723C95.1152 2.83688 95.0812 2.83688 92.6889 2.83688H90.2625V2.49645ZM123.03 2.49645V2.15603L130.377 2.17872L137.712 2.21277L137.746 2.5305L137.78 2.83688H123.03V2.49645ZM145.933 2.15603H148.359C150.695 2.15603 150.797 2.16738 150.865 2.38298C150.899 2.5078 150.899 2.65532 150.865 2.7234C150.819 2.79149 149.878 2.83688 148.359 2.83688H145.933V2.15603ZM165.649 2.81418C165.649 2.79149 165.627 2.64397 165.604 2.46241L165.559 2.15603L168.008 2.17872L170.457 2.21277L170.502 2.5305L170.548 2.83688H168.099C166.761 2.83688 165.661 2.82553 165.649 2.81418ZM173.756 2.66667C173.711 2.57589 173.711 2.41702 173.756 2.32624C173.813 2.17872 174.153 2.15603 176.228 2.17872L178.643 2.21277L178.677 2.5305L178.711 2.83688H176.262C174.198 2.83688 173.802 2.81418 173.756 2.66667ZM193.416 2.55319C193.382 2.40567 193.382 2.24681 193.416 2.21277C193.451 2.17872 194.562 2.15603 195.888 2.15603H198.292L198.337 2.43972C198.371 2.58723 198.371 2.7461 198.337 2.78014C198.303 2.81418 197.192 2.83688 195.866 2.83688H193.462L193.416 2.55319ZM206.58 2.81418C206.569 2.79149 206.546 2.64397 206.523 2.47376L206.489 2.15603H213.859C217.907 2.15603 221.217 2.19007 221.217 2.24681C221.217 2.2922 221.251 2.43972 221.286 2.58723L221.354 2.83688H213.972C209.913 2.83688 206.58 2.82553 206.58 2.81418Z" fill="#FFFFF2"/>
</svg>
