<svg width="180" height="180" viewBox="0 0 180 180" fill="none" xmlns="http://www.w3.org/2000/svg">
<g filter="url(#filter0_i_167_69)">
<g clip-path="url(#clip0_167_69)">
<rect width="180" height="180" rx="75" fill="#111111"/>
<rect width="180" height="180" rx="75" fill="url(#paint0_radial_167_69)" fill-opacity="0.4"/>
<rect width="180" height="180" rx="75" fill="url(#paint1_radial_167_69)" fill-opacity="0.4"/>
<path fill-rule="evenodd" clip-rule="evenodd" d="M49.385 51.3814C48.8653 49.5689 48.6054 48.6626 49.007 47.938C49.4087 47.2135 50.315 46.9536 52.1275 46.4338L61.5453 43.7334C63.3578 43.2136 64.2641 42.9537 64.9887 43.3554C65.7132 43.757 65.9731 44.6633 66.4929 46.4758L69.0252 55.3072C69.5405 57.1044 69.7982 58.003 70.5161 58.4053C71.234 58.8076 72.1349 58.5584 73.9368 58.0599L83.0196 55.5471C84.8061 55.0528 85.6994 54.8057 86.4144 55.202C87.1294 55.5983 87.3931 56.4868 87.9207 58.2638L90.6028 67.298C91.1349 69.0902 91.401 69.9864 92.1226 70.382C92.8442 70.7776 93.7428 70.5199 95.5399 70.0046L104.06 67.5614C105.873 67.0417 106.779 66.7818 107.181 66.0573C107.582 65.3327 107.323 64.4264 106.803 62.6138L104.191 53.5072C103.672 51.6946 103.412 50.7883 103.813 50.0637C104.215 49.3392 105.121 49.0793 106.934 48.5596L116.041 45.9483C117.853 45.4285 118.76 45.1686 119.161 44.4441C119.563 43.7195 119.303 42.8132 118.783 41.0007L116.261 32.205C115.741 30.3925 115.481 29.4862 115.883 28.7616C116.285 28.0371 117.191 27.7772 119.004 27.2574L128.11 24.6462C129.923 24.1264 130.829 23.8665 131.554 24.2682C132.278 24.6698 132.538 25.5761 133.058 27.3886L135.669 36.4953C136.189 38.3079 136.449 39.2142 136.047 39.9387C135.645 40.6633 134.739 40.9232 132.927 41.4429L124.131 43.965C122.318 44.4848 121.412 44.7446 121.011 45.4692C120.609 46.1938 120.869 47.1 121.388 48.9126L123.911 57.7082C124.43 59.5208 124.69 60.4271 125.415 60.8287C126.139 61.2304 127.046 60.9705 128.858 60.4507L137.654 57.9286C139.466 57.4089 140.373 57.149 141.097 57.5506C141.822 57.9523 142.082 58.8586 142.601 60.6711L149.94 86.2635C150.46 88.0761 150.72 88.9824 151.444 89.384C152.169 89.7856 153.075 89.5258 154.888 89.006L163.683 86.4839C165.496 85.9642 166.402 85.7043 166.804 84.9797C167.205 84.2552 166.945 83.3489 166.426 81.5363L159.087 55.9439C158.567 54.1314 158.308 53.2251 158.709 52.5005C159.111 51.776 160.017 51.5161 161.83 50.9963L170.936 48.385C172.749 47.8653 173.655 47.6054 174.38 48.0071C175.104 48.4087 175.364 49.315 175.884 51.1275L183.312 77.031C183.831 78.8436 184.091 79.7498 183.69 80.4744C183.288 81.199 182.382 81.4588 180.569 81.9786L171.773 84.5007C169.961 85.0204 169.055 85.2803 168.653 86.0049C168.251 86.7294 168.511 87.6357 169.031 89.4483L171.553 98.2439C172.073 100.056 172.333 100.963 171.931 101.687C171.529 102.412 170.623 102.672 168.811 103.192L159.704 105.803C157.891 106.323 156.985 106.582 156.583 107.307C156.182 108.032 156.442 108.938 156.961 110.75L159.573 119.857C160.092 121.67 160.352 122.576 159.951 123.3C159.549 124.025 158.643 124.285 156.83 124.805L148.035 127.327C146.222 127.847 145.316 128.106 144.914 128.831C144.512 129.556 144.772 130.462 145.292 132.274L147.725 140.759C148.245 142.572 148.505 143.478 149.229 143.879C149.954 144.281 150.86 144.021 152.673 143.501L161.468 140.979C163.281 140.46 164.187 140.2 164.912 140.601C165.636 141.003 165.896 141.909 166.416 143.722L169.116 153.14C169.636 154.952 169.896 155.858 169.494 156.583C169.093 157.308 168.186 157.567 166.374 158.087L157.267 160.698C155.455 161.218 154.548 161.478 153.824 161.076C153.099 160.675 152.839 159.769 152.32 157.956L149.787 149.125C149.272 147.327 149.014 146.429 148.296 146.027C147.578 145.624 146.677 145.873 144.876 146.372L135.793 148.885C134.006 149.379 133.113 149.626 132.398 149.23C131.683 148.833 131.419 147.945 130.892 146.168L128.21 137.134C127.677 135.342 127.411 134.445 126.69 134.05C125.968 133.654 125.07 133.912 123.272 134.427L114.716 136.881C112.919 137.396 112.021 137.654 111.618 138.372C111.216 139.089 111.465 139.99 111.964 141.792L114.477 150.875C114.971 152.661 115.218 153.555 114.822 154.27C114.425 154.985 113.537 155.249 111.76 155.776L102.726 158.458C100.933 158.99 100.037 159.256 99.6416 159.978C99.246 160.7 99.5037 161.598 100.019 163.395L102.551 172.227C103.071 174.039 103.331 174.946 102.929 175.67C102.528 176.395 101.621 176.655 99.8088 177.174L90.4266 179.865C88.5987 180.389 87.6848 180.651 86.9574 180.243C86.23 179.836 85.9763 178.919 85.469 177.087L82.8883 167.765C82.3936 165.978 82.1463 165.085 82.5426 164.37C82.9389 163.654 83.8276 163.391 85.6048 162.863L94.6383 160.181C96.4306 159.649 97.3267 159.383 97.7223 158.661C98.1179 157.94 97.8603 157.041 97.345 155.244L94.8915 146.688C94.3762 144.891 94.1186 143.992 93.4006 143.59C92.6827 143.187 91.7818 143.437 89.9799 143.935L80.8972 146.448C79.1107 146.942 78.2174 147.189 77.5024 146.793C76.7874 146.397 76.5236 145.508 75.9961 143.731L73.3139 134.697C72.7818 132.905 72.5158 132.009 71.7941 131.613C71.0725 131.217 70.1739 131.475 68.3768 131.99L59.5454 134.523C57.7328 135.043 56.8266 135.302 56.102 134.901C55.3774 134.499 55.1176 133.593 54.5978 131.78L52.0655 122.949C51.5501 121.152 51.2925 120.253 50.5746 119.851C49.8567 119.449 48.9557 119.698 47.1538 120.196L38.0889 122.704C36.2947 123.201 35.3976 123.449 34.6811 123.049C33.9647 122.65 33.7039 121.756 33.1825 119.969L25.6692 94.2203C25.1388 92.4024 24.8736 91.4935 25.2749 90.7656C25.6761 90.0377 26.5863 89.7767 28.4066 89.2548L37.8064 86.5594C39.6189 86.0397 40.5252 85.7798 41.2498 86.1814C41.9743 86.5831 42.2342 87.4894 42.754 89.3019L50.0925 114.894C50.6122 116.707 50.8721 117.613 51.5966 118.015C52.3212 118.416 53.2275 118.157 55.0401 117.637L63.5246 115.204C65.3372 114.684 66.2435 114.424 66.6451 113.7C67.0468 112.975 66.7869 112.069 66.2671 110.256L58.9286 84.6639C58.4089 82.8513 58.149 81.9451 58.5506 81.2205C58.9523 80.4959 59.8586 80.2361 61.6711 79.7163L70.7778 77.105C72.5904 76.5853 73.4967 76.3254 73.8983 75.6009C74.2999 74.8763 74.04 73.97 73.5203 72.1574L70.9982 63.3618C70.4785 61.5492 70.2186 60.6429 69.494 60.2413C68.7695 59.8397 67.8632 60.0996 66.0506 60.6193L56.9439 63.2306C55.1314 63.7504 54.2251 64.0102 53.5005 63.6086C52.776 63.207 52.5161 62.3007 51.9963 60.4881L49.385 51.3814ZM83.375 105.351C83.8947 107.163 84.1546 108.07 84.8791 108.471C85.6037 108.873 86.51 108.613 88.3225 108.093L97.1182 105.571C98.9307 105.051 99.837 104.792 100.239 104.067C100.64 103.342 100.38 102.436 99.8607 100.624L97.3386 91.8279C96.8188 90.0153 96.5589 89.109 95.8344 88.7074C95.1098 88.3058 94.2035 88.5657 92.391 89.0854L83.5953 91.6075C81.7828 92.1273 80.8765 92.3871 80.4749 93.1117C80.0732 93.8362 80.3331 94.7425 80.8528 96.5551L83.375 105.351ZM116.657 95.8071C117.177 97.6197 117.437 98.526 118.162 98.9276C118.886 99.3292 119.792 99.0694 121.605 98.5496L130.401 96.0275C132.213 95.5078 133.12 95.2479 133.521 94.5233C133.923 93.7988 133.663 92.8925 133.143 91.0799L130.621 82.2843C130.101 80.4717 129.841 79.5654 129.117 79.1638C128.392 78.7622 127.486 79.0221 125.673 79.5418L116.878 82.0639C115.065 82.5837 114.159 82.8435 113.757 83.5681C113.356 84.2926 113.616 85.1989 114.135 87.0115L116.657 95.8071Z" fill="#6B537E"/>
</g>
</g>
<defs>
<filter id="filter0_i_167_69" x="-4" y="0" width="184" height="184" filterUnits="userSpaceOnUse" color-interpolation-filters="sRGB">
<feFlood flood-opacity="0" result="BackgroundImageFix"/>
<feBlend mode="normal" in="SourceGraphic" in2="BackgroundImageFix" result="shape"/>
<feColorMatrix in="SourceAlpha" type="matrix" values="0 0 0 0 0 0 0 0 0 0 0 0 0 0 0 0 0 0 127 0" result="hardAlpha"/>
<feOffset dx="-4" dy="4"/>
<feGaussianBlur stdDeviation="5"/>
<feComposite in2="hardAlpha" operator="arithmetic" k2="-1" k3="1"/>
<feColorMatrix type="matrix" values="0 0 0 0 0 0 0 0 0 0 0 0 0 0 0 0 0 0 0.25 0"/>
<feBlend mode="normal" in2="shape" result="effect1_innerShadow_167_69"/>
</filter>
<radialGradient id="paint0_radial_167_69" cx="0" cy="0" r="1" gradientUnits="userSpaceOnUse" gradientTransform="translate(-2.74647e-06 180) rotate(-68.96) scale(284.891 191.17)">
<stop stop-color="#45285D"/>
<stop offset="1" stop-opacity="0"/>
</radialGradient>
<radialGradient id="paint1_radial_167_69" cx="0" cy="0" r="1" gradientUnits="userSpaceOnUse" gradientTransform="translate(180 -4.65642e-05) rotate(92.4071) scale(310.274 114.741)">
<stop stop-color="#5C2D3A"/>
<stop offset="1" stop-opacity="0"/>
</radialGradient>
<clipPath id="clip0_167_69">
<rect width="180" height="180" rx="75" fill="white"/>
</clipPath>
</defs>
</svg>
