<svg version="1.2" xmlns="http://www.w3.org/2000/svg" viewBox="0 0 24 24" width="24" height="24"><style>.a{fill:#fff}</style><path class="a" d="m5.3 11q-1.3 0-2.2-0.9-1-1-0.9-2.3v-2.5q-0.1-1.3 0.9-2.2 0.9-1 2.2-1h2.5q1.3 0 2.3 1 0.9 0.9 0.9 2.2v2.5q0 1.3-0.9 2.3-1 0.9-2.3 0.9zm0 10.9q-1.3 0-2.2-1-0.9-0.9-0.9-2.2v-2.6q0-1.3 0.9-2.2 1-0.9 2.3-0.9h2.5q1.3 0 2.2 0.9 0.9 1 1 2.2v2.6q0 1.3-1 2.2-0.9 1-2.2 1zm10.8-10.9q-1.3 0-2.2-0.9-0.9-1-0.9-2.3v-2.5q0-1.3 0.9-2.2 1-1 2.3-1h2.5q1.3 0 2.2 1 1 0.9 1 2.2v2.5q0 1.3-1 2.3-0.9 0.9-2.2 0.9zm0 10.9q-1.3 0-2.2-1-1-0.9-1-2.2v-2.6q0-1.3 1-2.2 0.9-0.9 2.2-0.9h2.5q1.3 0 2.3 0.9 0.9 1 0.9 2.3v2.5q0 1.3-0.9 2.2-1 1-2.3 1z"/></svg>