<svg version="1.2" xmlns="http://www.w3.org/2000/svg" viewBox="0 0 24 24" width="24" height="24"><style>.a{fill:#fff}</style><path fill-rule="evenodd" class="a" d="m12 22.9q-2.2 0-4.2-0.9-2-0.9-3.5-2.3-1.4-1.5-2.3-3.5-0.9-2-0.9-4.2 0-2.2 0.9-4.2 0.9-2 2.3-3.4 1.5-1.5 3.5-2.4 2-0.8 4.2-0.8 2.2 0 4.2 0.8 2 0.9 3.4 2.4 1.5 1.4 2.4 3.4 0.8 2 0.8 4.2 0 2.2-0.8 4.2-0.9 2-2.4 3.4-1.4 1.5-3.4 2.4-2 0.8-4.2 0.9zm-0.1-3.2q0.6-0.9 1.1-1.8 0.4-1 0.7-2h-3.5q0.3 1 0.8 2 0.4 0.9 0.9 1.8zm-2.4-0.4q-0.5-0.8-0.8-1.7-0.3-0.9-0.5-1.7h-2.8q0.6 1.2 1.7 2.1 1 0.9 2.4 1.3zm4.9 0q1.4-0.4 2.5-1.3 1-0.9 1.7-2.1h-2.8q-0.2 0.8-0.5 1.7-0.4 0.9-0.9 1.7zm-9.9-5.4h3.3q-0.1-0.5-0.1-0.9-0.1-0.5-0.1-1 0-0.5 0.1-1 0-0.4 0.1-0.9h-3.3q-0.1 0.5-0.1 0.9-0.1 0.5-0.1 1 0 0.5 0.1 1 0 0.5 0.1 0.9zm5.3 0h4.4q0.1-0.5 0.1-0.9 0-0.5 0-1 0-0.5 0-1 0-0.4-0.1-0.9h-4.4q-0.1 0.5-0.1 0.9-0.1 0.5-0.1 1 0 0.5 0.1 1 0 0.4 0.1 0.9zm6.4 0h3.2q0.1-0.4 0.2-0.9 0-0.5 0-1 0-0.5 0-1-0.1-0.4-0.2-0.9h-3.2q0 0.5 0.1 0.9 0 0.5 0 1 0 0.5 0 1-0.1 0.4-0.1 0.9zm-0.4-5.8h2.8q-0.7-1.2-1.7-2.1-1.1-0.8-2.5-1.3 0.5 0.8 0.9 1.7 0.3 0.9 0.5 1.7zm-5.6 0h3.5q-0.2-1-0.7-2-0.5-0.9-1.1-1.8-0.5 0.9-0.9 1.8-0.5 1-0.8 2zm-4.8 0h2.8q0.2-0.8 0.5-1.7 0.3-0.9 0.8-1.7-1.4 0.5-2.4 1.3-1.1 0.9-1.7 2.1z"/></svg>