<svg version="1.2" xmlns="http://www.w3.org/2000/svg" viewBox="0 0 24 24" width="24" height="24"><style>.a{fill:#fff}</style><path class="a" d="m7 17.9q-2.4 0-4.1-1.8-1.8-1.7-1.8-4.1 0-2.4 1.8-4.1 1.7-1.7 4.1-1.7h2.1q0.6 0 1.1 0.4 0.4 0.5 0.4 1.1 0 0.7-0.4 1.1-0.5 0.5-1.1 0.5h-2.1q-1.1 0-1.9 0.8-0.8 0.8-0.8 1.9 0 1.1 0.8 1.9 0.8 0.8 1.9 0.8h2.1q0.6 0 1.1 0.5 0.4 0.4 0.4 1.1 0 0.6-0.4 1.1-0.5 0.5-1.1 0.4zm1.6-4.6q-0.5 0-0.9-0.4-0.3-0.3-0.3-0.8 0-0.5 0.3-0.9 0.4-0.3 0.9-0.3h6.7q0.5 0 0.9 0.3 0.3 0.4 0.3 0.9 0 0.5-0.3 0.8-0.4 0.4-0.9 0.4zm6.4 4.6q-0.7 0-1.2-0.4-0.4-0.5-0.4-1.1 0-0.7 0.4-1.1 0.5-0.5 1.2-0.5h2q1.1 0 1.9-0.8 0.8-0.8 0.8-1.9 0-1.1-0.8-1.9-0.8-0.8-1.9-0.8h-2q-0.7 0-1.2-0.5-0.4-0.4-0.4-1.1 0-0.6 0.4-1.1 0.5-0.5 1.2-0.5h2q2.4 0 4.1 1.8 1.8 1.7 1.8 4.1 0 2.4-1.8 4.1-1.7 1.7-4.1 1.7z"/></svg>