<svg width="866" height="201" viewBox="0 0 866 201" fill="none" xmlns="http://www.w3.org/2000/svg">
<path d="M131.448 116.159L102.4 129.34C99.3828 130.714 96.1036 131.424 92.7873 131.424C89.8808 131.424 87.0028 130.88 84.3043 129.82L83.16 129.333L54.1269 116.095V131.424C54.1275 133.164 55.7003 137.036 63.4409 140.906C70.8214 144.596 81.3746 146.885 92.7873 146.885C104.2 146.885 114.754 144.596 122.135 140.906C129.874 137.037 131.448 133.164 131.448 131.424V116.159ZM162.377 131.424V102.128L146.912 109.141V131.424C146.912 141.986 138.705 149.909 129.047 154.737C119.028 159.746 105.981 162.347 92.7873 162.347C79.5931 162.347 66.5444 159.746 56.5243 154.737C46.8661 149.909 38.6631 141.986 38.6626 131.424V109.043L16.8971 99.1232V99.1154C14.1911 97.9063 11.8866 95.9505 10.2636 93.4689C8.61925 90.9541 7.74189 88.014 7.74158 85.0091C7.74158 82.0042 8.61894 79.0618 10.2636 76.5462C11.8879 74.0626 14.1923 72.1009 16.9008 70.8915L83.1638 40.7385C86.1848 39.3614 89.4671 38.651 92.7873 38.651C96.1082 38.6512 99.3897 39.3646 102.411 40.7423L168.682 70.9217C171.376 72.0956 173.679 74.0127 175.323 76.4518C177.014 78.9606 177.934 81.9091 177.966 84.9341C177.973 85.6268 177.926 86.3156 177.841 86.9982V131.424C177.841 135.693 174.378 139.154 170.109 139.155C165.839 139.155 162.377 135.693 162.377 131.424ZM23.3116 85.0547L89.5746 115.268C90.5813 115.727 91.6808 115.962 92.7873 115.962C93.8945 115.962 94.9902 115.727 95.9969 115.268L96.0077 115.26L162.377 85.1452V85.0393C162.342 85.0238 162.306 85.0099 162.271 84.9944L95.9969 54.8109C94.9902 54.3517 93.8945 54.1128 92.7873 54.1125C91.6808 54.1125 90.5859 54.3517 89.5784 54.8109H89.5707L23.3078 84.9643L23.2059 85.0091L23.3116 85.0547Z" fill="#F9FAFB"/>
<path d="M270.625 155.698C262.274 155.698 255.058 153.997 248.975 150.595C242.996 147.194 238.356 142.349 235.057 136.062C231.861 129.774 230.263 122.404 230.263 113.952C230.263 105.396 231.861 98.0262 235.057 91.8416C238.356 85.5541 242.996 80.6575 248.975 77.1531C255.058 73.6485 262.274 71.8962 270.625 71.8962C278.873 71.8962 285.986 73.6485 291.966 77.1531C297.945 80.6575 302.533 85.6051 305.729 91.9962C308.925 98.2836 310.523 105.705 310.523 114.261C310.523 122.61 308.925 129.929 305.729 136.216C302.636 142.401 298.1 147.194 292.12 150.595C286.141 153.997 278.976 155.698 270.625 155.698ZM270.47 138.535C275.625 138.535 279.749 137.401 282.842 135.134C286.037 132.866 288.357 129.877 289.801 126.166C291.244 122.455 291.966 118.435 291.966 114.106C291.966 109.777 291.244 105.705 289.801 101.892C288.357 98.078 286.037 95.0367 282.842 92.7693C279.749 90.3982 275.625 89.2131 270.47 89.2131C265.315 89.2131 261.14 90.3982 257.944 92.7693C254.749 95.0367 252.429 98.078 250.985 101.892C249.542 105.705 248.82 109.777 248.82 114.106C248.82 118.538 249.542 122.61 250.985 126.321C252.429 130.032 254.749 133.021 257.944 135.288C261.14 137.453 265.315 138.535 270.47 138.535ZM317.896 154.615V73.1331H336.763V105.912H370.784V73.1331H389.65V154.615H370.784V122.765H336.763V154.615H317.896ZM419.347 154.615V89.8316H392.439V73.1331H465.275V89.8316H438.213V154.615H419.347Z" fill="#F9FAFB"/>
<path d="M476.231 156.471C472.932 156.471 470.097 155.388 467.726 153.224C465.458 151.059 464.324 148.122 464.324 144.411C464.324 140.7 465.509 137.762 467.881 135.598C470.252 133.33 473.087 132.196 476.386 132.196C479.685 132.196 482.469 133.33 484.737 135.598C487.004 137.762 488.139 140.7 488.139 144.411C488.139 148.122 487.004 151.059 484.737 153.224C482.469 155.388 479.633 156.471 476.231 156.471ZM498.726 154.615V73.1331H570.634V154.615H551.768V89.8315H517.592V154.615H498.726ZM581.152 184.611V73.1331H598.781L599.709 84.2654C602.905 79.9361 606.822 76.7923 611.462 74.8338C616.101 72.8754 620.998 71.8961 626.153 71.8961C633.988 71.8961 640.535 73.7515 645.792 77.4623C651.05 81.1731 654.967 86.2236 657.545 92.6146C660.122 98.902 661.411 106.014 661.411 113.952C661.411 121.889 660.071 129.001 657.391 135.288C654.813 141.576 650.792 146.575 645.329 150.286C639.967 153.894 633.06 155.698 624.606 155.698C620.689 155.698 617.184 155.286 614.091 154.461C610.998 153.533 608.265 152.348 605.895 150.905C603.626 149.358 601.667 147.709 600.018 145.957V184.611H581.152ZM621.977 138.69C627.235 138.69 631.359 137.556 634.349 135.288C637.338 132.917 639.503 129.877 640.844 126.166C642.184 122.353 642.854 118.333 642.854 114.106C642.854 109.674 642.132 105.55 640.689 101.737C639.348 97.9233 637.133 94.831 634.04 92.46C630.947 90.0889 626.822 88.9038 621.668 88.9038C616.925 88.9038 612.905 90.0889 609.606 92.46C606.41 94.7274 603.987 97.7687 602.338 101.582C600.688 105.396 599.864 109.519 599.864 113.952C599.864 118.487 600.637 122.662 602.183 126.475C603.73 130.186 606.152 133.176 609.451 135.443C612.75 137.608 616.925 138.69 621.977 138.69ZM705.528 155.698C697.177 155.698 689.961 153.997 683.878 150.595C677.899 147.194 673.259 142.349 669.96 136.062C666.764 129.774 665.166 122.404 665.166 113.952C665.166 105.396 666.764 98.0261 669.96 91.8415C673.259 85.5541 677.899 80.6574 683.878 77.153C689.961 73.6485 697.177 71.8961 705.528 71.8961C713.776 71.8961 720.889 73.6485 726.869 77.153C732.848 80.6574 737.436 85.6051 740.632 91.9961C743.828 98.2836 745.426 105.705 745.426 114.261C745.426 122.61 743.828 129.929 740.632 136.216C737.539 142.401 733.003 147.194 727.023 150.595C721.044 153.997 713.879 155.698 705.528 155.698ZM705.373 138.535C710.528 138.535 714.652 137.401 717.745 135.134C720.94 132.866 723.26 129.877 724.704 126.166C726.147 122.455 726.869 118.435 726.869 114.106C726.869 109.777 726.147 105.705 724.704 101.892C723.26 98.0779 720.94 95.0366 717.745 92.7692C714.652 90.3982 710.528 89.2131 705.373 89.2131C700.218 89.2131 696.043 90.3982 692.847 92.7692C689.652 95.0366 687.332 98.0779 685.888 101.892C684.445 105.705 683.723 109.777 683.723 114.106C683.723 118.538 684.445 122.61 685.888 126.321C687.332 130.032 689.652 133.021 692.847 135.288C696.043 137.453 700.218 138.535 705.373 138.535ZM792.699 183.683V155.388C786.305 155.182 780.428 154.203 775.07 152.451C769.81 150.698 765.222 148.122 761.305 144.72C757.49 141.318 754.5 137.092 752.335 132.042C750.17 126.991 749.088 121.012 749.088 114.106C749.088 104.726 750.892 96.9956 754.5 90.9138C758.109 84.7292 763.16 80.0907 769.655 76.9984C776.253 73.8031 783.931 72.1538 792.699 72.0507V47.0031H811.566V72.0507C820.427 72.1538 828.113 73.8031 834.608 76.9984C841.203 80.1936 846.252 84.9356 849.763 91.2231C853.366 97.4077 855.175 105.138 855.175 114.415C855.175 123.589 853.265 131.166 849.453 137.144C845.742 143.019 840.584 147.451 833.989 150.441C827.494 153.327 820.017 155.027 811.566 155.543V183.683H792.699ZM792.699 138.999V88.9038C784.449 88.9038 778.263 91.1202 774.142 95.5523C770.016 99.9843 767.954 106.066 767.954 113.797C767.954 119.054 768.882 123.589 770.738 127.403C772.593 131.114 775.325 134 778.936 136.062C782.648 138.02 787.233 138.999 792.699 138.999ZM811.566 138.999C817.025 138.999 821.563 138.02 825.174 136.062C828.886 134 831.669 131.114 833.525 127.403C835.381 123.589 836.309 119.054 836.309 113.797C836.309 106.066 834.19 99.9843 829.968 95.5523C825.839 91.1202 819.708 88.9038 811.566 88.9038V138.999Z" fill="#F9FAFB"/>
</svg>
