<svg width="559" height="517" viewBox="0 0 559 517" fill="none" xmlns="http://www.w3.org/2000/svg">
<mask id="mask0_5_5" style="mask-type:alpha" maskUnits="userSpaceOnUse" x="0" y="0" width="518" height="517">
<rect width="517" height="517" transform="translate(0.480469)" fill="url(#paint0_radial_5_5)" fill-opacity="0.8"/>
</mask>
<g mask="url(#mask0_5_5)">
<path d="M0.335302 101.179H559.48M0.335302 415.205H559.48M-14.9837 258.192H544.161M400.73 0L229.394 593.777M536.687 6.22309L365.35 600M264.774 0L93.437 593.777M128.817 0L-42.5195 593.777" stroke="white" stroke-opacity="0.3"/>
<path d="M126 432.842C126 428.007 127.612 423.576 130.836 419.547C133.792 415.787 137.554 412.698 142.121 410.281C144.808 419.95 149.241 428.276 155.421 435.259C161.601 442.511 168.856 446.137 177.185 446.137C183.633 446.137 189.679 442.779 195.321 436.065C200.695 429.35 205.934 416.861 211.039 398.597L275.927 174.597H235.221V169.763H277.539C284.525 147.47 293.123 128.266 303.333 112.151C313.812 96.036 324.694 83.8154 335.979 75.4892C347.532 67.1631 358.548 63 369.027 63C376.282 63 381.924 64.8801 385.955 68.6403C389.985 72.4005 392 77.3693 392 83.5468C392 88.9185 390.254 94.6931 386.761 100.871C373.058 98.9904 361.504 98.0504 352.1 98.0504C333.829 98.0504 320.932 101.273 313.409 107.719C305.886 113.897 302.124 123.029 302.124 135.115C302.124 144.784 305.348 156.333 311.797 169.763H371.848V174.597H324.291L274.315 348.64C268.941 367.441 259.94 385.034 247.312 401.417C234.953 417.801 220.846 430.827 204.994 440.496C188.873 450.165 173.02 455 157.436 455C147.226 455 139.434 452.851 134.061 448.554C128.687 444.525 126 439.288 126 432.842Z" fill="white"/>
</g>
<defs>
<radialGradient id="paint0_radial_5_5" cx="0" cy="0" r="1" gradientUnits="userSpaceOnUse" gradientTransform="translate(258.5 258.5) rotate(90) scale(258.5)">
<stop offset="0.8"/>
<stop offset="1" stop-opacity="0"/>
</radialGradient>
</defs>
</svg>
