<svg width="62" height="96" viewBox="0 0 62 96" fill="none" xmlns="http://www.w3.org/2000/svg">
<path d="M19.1613 0.838738C19.1294 0.902513 18.97 1.71033 18.7894 2.6138C18.6193 3.51727 17.9392 6.9611 17.2909 10.2667C16.6427 13.5724 15.8775 17.4414 15.5906 18.8763C15.3037 20.3112 14.5916 23.9464 13.9965 26.9544C13.4014 29.9625 12.6894 33.5976 12.4024 35.0325C12.1155 36.4675 11.3503 40.3365 10.7021 43.6421C10.0538 46.9477 9.23554 51.0612 8.89547 52.7831C8.5554 54.505 7.73711 58.6185 7.08885 61.9241C6.44059 65.2298 5.71794 68.8649 5.49477 70.0023C5.2716 71.1396 4.79338 73.5311 4.44268 75.3168C4.09198 77.1025 3.0824 82.2151 2.20035 86.6899C1.31829 91.1648 0.574393 94.9275 0.542511 95.0657L0.5 95.2995H44.1777C44.3371 94.5129 44.6028 93.0993 44.8685 91.6325C45.1341 90.1763 45.453 88.4544 45.5699 87.806C45.6868 87.1682 45.878 86.116 45.9949 85.4676C46.1118 84.8298 46.25 84.0433 46.3031 83.7457C46.3669 83.4374 46.4519 82.9272 46.5051 82.6296C46.5688 82.3214 46.8239 80.8971 47.0895 79.4621C47.3552 78.0272 47.6422 76.4541 47.7272 75.9545C47.8228 75.455 48.1841 73.478 48.5348 71.5435C48.8962 69.609 49.2256 67.7808 49.2787 67.4832C49.3425 67.1749 49.4382 66.6541 49.4913 66.3352C49.5444 66.0163 49.6507 65.4849 49.7038 65.166C49.757 64.8471 49.8632 64.3157 49.9164 63.9968C49.9695 63.6779 50.0652 63.1571 50.1289 62.8595C50.1821 62.5513 50.6603 59.9259 51.1916 57.0348C51.723 54.1436 52.2544 51.2525 52.3713 50.6042C52.4775 49.9664 52.6688 48.9354 52.7857 48.3189C52.892 47.7024 53.519 44.3117 54.1672 40.7722C54.8155 37.2328 55.4425 33.8102 55.5594 33.1724C55.6763 32.5347 55.8676 31.5037 55.9739 30.8872C56.0908 30.2707 56.2821 29.2503 56.3883 28.6019C56.5052 27.9642 56.8984 25.8596 57.2491 23.9251C57.6105 22.0013 57.9399 20.1624 57.993 19.8648C58.0568 19.5566 58.1524 19.0357 58.2056 18.7169C58.2587 18.398 58.365 17.8665 58.4181 17.5477C58.4713 17.2288 58.5775 16.6973 58.6307 16.3785C58.6838 16.0596 58.7901 15.5281 58.8432 15.2093C58.8963 14.8904 58.992 14.3696 59.0557 14.072C59.1089 13.7637 59.534 11.4041 60.0122 8.83182C60.4798 6.25958 60.9368 3.75111 61.0324 3.25154C61.1174 2.75198 61.2556 1.99731 61.3406 1.58277C61.4256 1.15761 61.5 0.785594 61.5 0.753707C61.5 0.72182 51.978 0.700562 40.3519 0.700562C23.5185 0.700562 19.1932 0.732448 19.1613 0.838738Z" fill="#FFFEFE"/>
</svg>
