<svg width="370" height="386" viewBox="0 0 370 386" fill="none" xmlns="http://www.w3.org/2000/svg">
<path d="M327 262V88H0V262C0 297.898 29.1015 327 65 327H262C297.898 327 327 297.898 327 262Z" fill="#FDF1E0"/>
<path d="M262 0H65C29.1015 0 0 29.1015 0 65V88H327V65C327 29.1015 297.898 0 262 0Z" fill="#FFE0B4"/>
<path d="M317 98V262C317 292.376 292.376 317 262 317H65C34.6243 317 10 292.376 10 262V98H317ZM65 10H262C292.376 10 317 34.6243 317 65V78H10V65C10 34.6243 34.6243 10 65 10Z" stroke="#2D2D2D" stroke-width="20"/>
<circle cx="60.5" cy="53.5" r="12.5" fill="#2D2D2D"/>
<path fill-rule="evenodd" clip-rule="evenodd" d="M150 333.257C150 339.353 154.283 355.598 157.87 363.106C161.33 370.347 167.937 380.822 170.938 383.823C174.58 387.465 176.315 386.464 182.521 377.135C193.143 361.166 203.171 352.366 216.432 347.374C219.91 346.065 230.574 342.975 240.128 340.508C249.683 338.041 262.184 334.385 267.909 332.384C320.286 314.076 355.981 273.973 365.997 222.185C369.129 205.994 370.675 176.851 369.237 161.129C366.804 134.525 360.547 128.271 347.043 138.946L342 142.932L321.021 157.823C318.036 159.799 312.135 159.515 300.518 159.703C284.691 159.958 280.431 159.74 278.678 158.582C277.48 157.791 271.783 152.969 266.018 147.867C260.253 142.764 254.027 137.959 252.182 137.188C247.879 135.39 243.069 136.826 239.606 140.941C236.728 144.362 236.464 146.346 235.217 173.932C234.418 191.592 234.092 194.004 231.834 198.932C227.621 208.127 220.088 215.974 202.598 229.385C177.959 248.277 166.33 261.278 157.978 279.266C154.147 287.517 150 301.972 150 307.075V309.885V328.885V329.323V333.257ZM330.35 173.485C333.183 171.507 338.875 166.791 343 163.003L350.5 156.117L351.35 167.251C352.363 180.527 350.889 203.284 348.13 216.959C342.715 243.803 331.922 264.294 313.636 282.448C302.042 293.958 292.613 300.652 277.266 308.266C264.38 314.659 253.486 318.328 229.603 324.316C204.163 330.694 190.207 337.902 179.68 350.099L175.118 355.385L173.475 351.465C169.77 342.628 167.927 332.53 167.894 320.885C167.804 289.041 179.332 269.046 211.888 244.577C235.838 226.577 244.321 216.972 249.763 201.692C252.085 195.171 252.412 192.532 252.796 177.161L253.226 159.937L261.746 167.518C266.432 171.687 271.86 175.764 273.808 176.578C276.722 177.796 281.595 177.971 301.275 177.569L325.2 177.08L330.35 173.485Z" fill="#2D2D2D"/>
<path d="M343 163.003C338.875 166.791 333.183 171.507 330.35 173.485L325.2 177.08L301.275 177.569C281.595 177.971 276.722 177.796 273.808 176.578C271.86 175.764 266.432 171.687 261.746 167.518L253.226 159.937L252.796 177.161C252.412 192.532 252.085 195.171 249.763 201.692C244.321 216.972 235.838 226.577 211.888 244.577C179.332 269.046 167.804 289.041 167.894 320.885C167.927 332.53 169.77 342.628 173.475 351.465L175.118 355.385L179.68 350.099C190.207 337.902 204.163 330.694 229.603 324.316C253.486 318.328 264.38 314.659 277.266 308.266C292.613 300.652 302.042 293.958 313.636 282.448C331.922 264.294 342.715 243.803 348.13 216.959C350.889 203.284 352.363 180.527 351.35 167.251L350.5 156.117L343 163.003Z" fill="url(#paint0_linear_18_2)"/>
<defs>
<linearGradient id="paint0_linear_18_2" x1="259.889" y1="134" x2="259.889" y2="385.783" gradientUnits="userSpaceOnUse">
<stop stop-color="#FCA42C"/>
<stop offset="1" stop-color="#FC7C25"/>
</linearGradient>
</defs>
</svg>
