<svg width="532" height="121" viewBox="0 0 532 121" fill="none" xmlns="http://www.w3.org/2000/svg">
<path d="M34.936 96.28C26.488 96.28 20.472 94.4454 16.888 90.776C13.304 87.1067 11.9386 81.2614 12.792 73.24L18.5098 19.0954C18.8517 15.8581 20.9264 13.0625 23.9258 11.7975V11.7975C30.1961 9.15283 37.0044 14.2053 36.2899 20.9728L31.096 70.168C30.6693 74.3494 31.224 77.2934 32.76 79C34.3813 80.7067 37.3253 81.56 41.592 81.56C43.128 81.56 44.6213 81.4747 46.072 81.304V81.304C48.2434 80.9208 50.2971 82.6588 50.0622 84.8512L49.51 90.0048C49.2133 92.7748 47.2221 95.0997 44.4644 95.4941C43.7406 95.5976 42.9965 95.6889 42.232 95.768C39.8427 96.1094 37.4106 96.28 34.936 96.28ZM6.94076 41.752C2.95242 41.752 -0.15822 38.2985 0.257332 34.3319V34.3319C0.615782 30.9103 3.50046 28.312 6.94076 28.312H49.4912C53.4795 28.312 56.5902 31.7656 56.1746 35.7322V35.7322C55.8162 39.1538 52.9315 41.752 49.4912 41.752H6.94076Z" fill="#6B537E"/>
<path d="M63.7407 95C58.373 95 54.1869 90.3515 54.7472 85.0132L62.3245 12.8248C62.8056 8.24068 66.6708 4.76003 71.2801 4.76003H72.7551C77.2884 4.76003 80.8323 8.6715 80.3863 13.1829L79.3499 23.6661C78.9133 28.0825 85.6794 31.5087 89.795 29.848V29.848C94.659 27.8 100.163 26.776 106.307 26.776C113.048 26.776 118.68 27.928 123.203 30.232C127.811 32.536 131.139 35.9067 133.187 40.344C135.32 44.7814 136.088 50.2427 135.491 56.728L132.037 87.1006C131.526 91.6007 127.718 95 123.189 95V95C117.829 95 113.683 90.2996 114.353 84.9815L117.315 61.464C117.827 54.9787 116.547 50.1574 113.475 47C110.488 43.7574 105.795 42.136 99.395 42.136C92.3123 42.136 86.723 43.8854 82.627 47.384C78.531 50.8827 76.227 55.9174 75.715 62.488L72.7169 87.0527C72.1632 91.5896 68.3112 95 63.7407 95V95Z" fill="#6B537E"/>
<path d="M178.521 96.536C169.732 96.536 162.265 95.0854 156.121 92.184C150.062 89.2827 145.54 85.1867 142.553 79.896C139.652 74.52 138.585 68.248 139.353 61.08C140.036 54.0827 142.425 48.024 146.521 42.904C150.702 37.784 156.164 33.816 162.905 31C169.646 28.184 177.369 26.776 186.073 26.776C194.35 26.776 201.476 28.1414 207.449 30.872C213.422 33.6027 217.86 37.4854 220.761 42.52C223.748 47.4694 224.942 53.3147 224.345 60.056C224.174 61.08 223.961 62.1467 223.705 63.256V63.256C223.47 64.7843 222.127 65.816 220.581 65.816H154.359C151.128 65.816 148.609 63.0163 148.95 59.8032V59.8032C149.243 57.036 151.577 54.936 154.359 54.936H208.778C210.071 54.936 210.564 56.6244 209.474 57.3203V57.3203C208.557 57.9052 207.342 57.1618 207.315 56.0749C207.248 53.3347 206.567 50.8644 205.273 48.664C203.566 45.7627 200.878 43.544 197.209 42.008C193.625 40.472 189.316 39.704 184.281 39.704C179.332 39.704 174.894 40.4294 170.969 41.88C167.129 43.3307 163.972 45.464 161.497 48.28C159.108 51.0107 157.7 54.4667 157.273 58.648L156.633 63.128C156.036 69.4427 157.87 74.4347 162.137 78.104C166.489 81.688 172.804 83.48 181.081 83.48C186.713 83.48 191.662 82.6267 195.929 80.92C198.151 79.9867 200.153 78.8335 201.936 77.4604C204.774 75.2739 208.607 74.2896 211.799 75.9169V75.9169C215.805 77.9595 217.094 83.1253 213.597 85.9534C212.377 86.9405 211.053 87.8654 209.625 88.728C205.529 91.2027 200.836 93.1227 195.545 94.488C190.254 95.8534 184.58 96.536 178.521 96.536Z" fill="#6B537E"/>
<path d="M214.721 120.6C209.742 120.6 207.089 114.728 210.379 110.991L227.785 91.2216C228.782 90.0895 230.598 91.215 230.028 92.6116V92.6116C229.444 94.0443 227.299 93.5073 227.458 91.9682L233.22 36.3005C233.69 31.7614 237.515 28.312 242.078 28.312V28.312C247.364 28.312 251.487 32.8897 250.935 38.1469L246.695 78.5405C245.712 87.916 241.839 96.7541 235.612 103.832L222.986 118.186C221.636 119.721 219.692 120.6 217.649 120.6H214.721ZM243.903 21.016C240.746 21.016 238.271 20.0347 236.479 18.072C234.687 16.024 233.962 13.5494 234.303 10.648C234.559 7.74669 235.796 5.31469 238.015 3.35203C240.234 1.30403 242.879 0.280029 245.951 0.280029C249.108 0.280029 251.583 1.30403 253.375 3.35203C255.167 5.31469 255.892 7.74669 255.551 10.648C255.295 13.5494 254.058 16.024 251.839 18.072C249.706 20.0347 247.06 21.016 243.903 21.016Z" fill="#6B537E"/>
<path d="M293.031 96.536C284.242 96.536 276.775 95.0854 270.631 92.184C264.572 89.2827 260.05 85.1867 257.063 79.896C254.162 74.52 253.095 68.248 253.863 61.08C254.546 54.0827 256.935 48.024 261.031 42.904C265.212 37.784 270.674 33.816 277.415 31C284.156 28.184 291.879 26.776 300.583 26.776C308.86 26.776 315.986 28.1414 321.959 30.872C327.932 33.6027 332.37 37.4854 335.271 42.52C338.258 47.4694 339.452 53.3147 338.855 60.056C338.684 61.08 338.471 62.1467 338.215 63.256V63.256C337.98 64.7842 336.637 65.816 335.091 65.816H268.869C265.638 65.816 263.119 63.0163 263.46 59.8032V59.8032C263.753 57.036 266.087 54.936 268.869 54.936H323.288C324.581 54.936 325.074 56.6244 323.984 57.3203V57.3203C323.067 57.9052 321.852 57.1618 321.825 56.0749C321.758 53.3347 321.077 50.8644 319.783 48.664C318.076 45.7627 315.388 43.544 311.719 42.008C308.135 40.472 303.826 39.704 298.791 39.704C293.842 39.704 289.404 40.4294 285.479 41.88C281.639 43.3307 278.482 45.464 276.007 48.28C273.618 51.0107 272.21 54.4667 271.783 58.648L271.143 63.128C270.546 69.4427 272.38 74.4347 276.647 78.104C280.999 81.688 287.314 83.48 295.591 83.48C301.223 83.48 306.172 82.6267 310.439 80.92C312.661 79.9867 314.663 78.8335 316.446 77.4604C319.284 75.2739 323.117 74.2896 326.309 75.9169V75.9169C330.315 77.9595 331.604 83.1253 328.107 85.9534C326.887 86.9405 325.563 87.8654 324.135 88.728C320.039 91.2027 315.346 93.1227 310.055 94.488C304.764 95.8534 299.09 96.536 293.031 96.536Z" fill="#6B537E"/>
<path d="M408.959 95C403.599 95 399.453 90.2996 400.123 84.9815L403.085 61.464C403.597 54.9787 402.317 50.1574 399.245 47C396.258 43.7574 391.565 42.136 385.165 42.136C378.082 42.136 372.493 43.8854 368.397 47.384C364.301 50.8827 361.997 55.9174 361.485 62.488L358.487 87.0554C357.933 91.5907 354.082 95 349.513 95V95C344.145 95 339.96 90.3495 340.523 85.0112L345.707 35.9106C346.163 31.5908 349.806 28.312 354.15 28.312H360.774C362.189 28.312 363.3 29.5237 363.178 30.9334V30.9334C362.974 33.2952 366.252 34.7716 368.185 33.3995C370.142 32.0109 372.303 30.8271 374.669 29.848C379.704 27.8 385.122 26.776 390.925 26.776C398.008 26.776 403.896 27.928 408.589 30.232C413.368 32.4507 416.824 35.7787 418.957 40.216C421.09 44.6534 421.858 50.1574 421.261 56.728L417.807 87.1006C417.296 91.6007 413.488 95 408.959 95V95Z" fill="#6B537E"/>
<path d="M413.861 120.6C408.882 120.6 406.229 114.728 409.519 110.991L426.925 91.2217C427.922 90.0895 429.738 91.215 429.168 92.6116V92.6116C428.584 94.0443 426.439 93.5073 426.598 91.9683L432.36 36.3005C432.83 31.7614 436.655 28.312 441.218 28.312V28.312C446.504 28.312 450.627 32.8897 450.075 38.1469L445.835 78.5405C444.852 87.916 440.979 96.7541 434.752 103.832L422.126 118.186C420.776 119.721 418.832 120.6 416.789 120.6H413.861ZM443.043 21.016C439.886 21.016 437.411 20.0347 435.619 18.072C433.827 16.024 433.102 13.5494 433.443 10.648C433.699 7.74669 434.936 5.31469 437.155 3.35203C439.374 1.30403 442.019 0.280029 445.091 0.280029C448.248 0.280029 450.723 1.30403 452.515 3.35203C454.307 5.31469 455.032 7.74669 454.691 10.648C454.435 13.5494 453.198 16.024 450.979 18.072C448.846 20.0347 446.2 21.016 443.043 21.016Z" fill="#6B537E"/>
<path d="M479.115 96.536C469.899 96.536 462.816 94.7867 457.867 91.288C453.003 87.704 450.87 82.84 451.467 76.696C452.064 70.7227 454.752 66.072 459.531 62.744C464.31 59.3307 471.051 57.112 479.755 56.088L513.385 52.2076C516.628 51.8335 519.388 54.5485 519.067 57.7967V57.7967C518.833 60.1684 516.993 62.0648 514.63 62.3708L483.083 66.456C478.731 67.1387 475.531 68.2054 473.483 69.656C471.435 71.0214 470.283 73.0267 470.027 75.672C469.686 78.6587 470.667 80.92 472.971 82.456C475.275 83.9067 478.816 84.632 483.595 84.632C488.886 84.632 493.579 83.9494 497.675 82.584C501.771 81.2187 505.014 79.256 507.403 76.696C509.878 74.136 511.328 71.1067 511.755 67.608L513.163 52.632C513.675 48.28 512.48 44.9947 509.579 42.776C506.763 40.5574 502.326 39.448 496.267 39.448C490.464 39.448 485.686 40.344 481.931 42.136C480.375 42.8959 478.988 43.8092 477.77 44.8759C474.826 47.4528 471.089 49.534 467.255 48.7558V48.7558C461.824 47.6532 458.814 41.6818 462.81 37.8412C465.165 35.5776 467.997 33.6385 471.307 32.024C478.39 28.5254 487.222 26.776 497.803 26.776C509.75 26.776 518.496 29.1227 524.043 33.816C529.59 38.5094 531.936 45.3787 531.083 54.424L528.348 80.3479C528.211 81.6473 528.401 82.9604 528.901 84.1677V84.1677C531.037 89.3262 527.246 95 521.662 95H517.728C515.904 95 514.27 93.8733 513.622 92.1688V92.1688C512.498 89.2134 508.65 88.3401 505.95 89.9866C503.554 91.4483 500.838 92.6927 497.803 93.72C492.256 95.5974 486.027 96.536 479.115 96.536Z" fill="#6B537E"/>
</svg>
