<svg width="599" height="120" viewBox="0 0 599 120" fill="none" xmlns="http://www.w3.org/2000/svg">
<path d="M83.9728 18C83.9728 16.4087 83.3404 14.883 82.2156 13.7578C81.231 12.773 79.9399 12.1654 78.5664 12.0293L77.9748 12H35.9884V96H77.9748C79.5656 96 81.0907 95.3674 82.2156 94.2422C83.3404 93.117 83.9728 91.5913 83.9728 90V18ZM65.9787 48C69.2913 48 71.9767 50.6863 71.9767 54C71.9767 57.3137 69.2913 60 65.9787 60H53.9825C50.6699 60 47.9845 57.3137 47.9845 54C47.9845 50.6863 50.6699 48 53.9825 48H65.9787ZM65.9787 24C69.2913 24 71.9767 26.6863 71.9767 30C71.9767 33.3137 69.2913 36 65.9787 36H53.9825C50.6699 36 47.9845 33.3137 47.9845 30C47.9845 26.6863 50.6699 24 53.9825 24H65.9787ZM95.969 90C95.969 94.7739 94.0718 99.3509 90.6972 102.727C87.3227 106.102 82.7471 108 77.9748 108H35.9884V114C35.9884 117.314 33.3029 120 29.9903 120C26.6777 120 23.9922 117.314 23.9922 114V108H11.9961C8.81456 108 5.7642 106.735 3.51449 104.484C1.26478 102.234 0 99.1826 0 96V12C0 8.8174 1.26478 5.76606 3.51449 3.51562C5.76419 1.26519 8.81455 0 11.9961 0H77.9748C82.7471 0 87.3227 1.89778 90.6972 5.27344C94.0718 8.64909 95.969 13.2261 95.969 18V90ZM11.9961 96H23.9922V12H11.9961V96Z" fill="white"/>
<path d="M185.94 96.84C179.462 96.84 173.864 95.52 169.145 92.88C164.507 90.24 160.908 86.48 158.349 81.6C155.87 76.72 154.63 71 154.63 64.44C154.63 57.8 155.87 52.08 158.349 47.28C160.908 42.4 164.507 38.6 169.145 35.88C173.864 33.16 179.462 31.8 185.94 31.8C192.338 31.8 197.856 33.16 202.495 35.88C207.133 38.6 210.692 42.44 213.171 47.4C215.65 52.28 216.89 58.04 216.89 64.68C216.89 71.16 215.65 76.84 213.171 81.72C210.772 86.52 207.253 90.24 202.614 92.88C197.976 95.52 192.418 96.84 185.94 96.84ZM185.82 83.52C189.819 83.52 193.018 82.64 195.417 80.88C197.896 79.12 199.695 76.8 200.815 73.92C201.935 71.04 202.495 67.92 202.495 64.56C202.495 61.2 201.935 58.04 200.815 55.08C199.695 52.12 197.896 49.76 195.417 48C193.018 46.16 189.819 45.24 185.82 45.24C181.821 45.24 178.582 46.16 176.103 48C173.624 49.76 171.824 52.12 170.705 55.08C169.585 58.04 169.025 61.2 169.025 64.56C169.025 68 169.585 71.16 170.705 74.04C171.824 76.92 173.624 79.24 176.103 81C178.582 82.68 181.821 83.52 185.82 83.52Z" fill="white"/>
<path d="M222.61 96V32.76H237.245V58.2H263.636V32.76H278.272V96H263.636V71.28H237.245V96H222.61Z" fill="white"/>
<path d="M301.308 96V45.72H280.435V32.76H336.936V45.72H315.943V96H301.308Z" fill="white"/>
<path d="M345.435 97.44C342.876 97.44 340.676 96.6 338.837 94.92C337.078 93.24 336.198 90.96 336.198 88.08C336.198 85.2 337.117 82.92 338.957 81.24C340.796 79.48 342.996 78.6 345.555 78.6C348.114 78.6 350.273 79.48 352.033 81.24C353.792 82.92 354.672 85.2 354.672 88.08C354.672 90.96 353.792 93.24 352.033 94.92C350.273 96.6 348.074 97.44 345.435 97.44Z" fill="white"/>
<path d="M357.486 96.12V82.92C359.246 82.92 360.765 82.52 362.045 81.72C363.324 80.84 364.404 79.68 365.284 78.24C366.323 76.48 367.083 74.24 367.563 71.52C368.043 68.8 368.363 66.04 368.523 63.24C368.763 59.64 368.923 56.04 369.003 52.44C369.162 48.76 369.282 45.24 369.362 41.88C369.522 38.44 369.602 35.4 369.602 32.76H417.107V96H402.472V45.72H383.158C383.078 48.36 382.958 51.16 382.798 54.12C382.718 57.08 382.598 60.08 382.438 63.12C382.278 66.08 381.998 68.96 381.598 71.76C381.279 74.88 380.719 78.04 379.919 81.24C379.199 84.44 377.92 87.32 376.08 89.88C374.161 92.28 371.762 93.92 368.883 94.8C366.083 95.68 362.285 96.12 357.486 96.12Z" fill="white"/>
<path d="M453.613 96.84C447.055 96.84 441.457 95.48 436.818 92.76C432.26 90.04 428.781 86.28 426.381 81.48C424.062 76.6 422.903 70.96 422.903 64.56C422.903 58.16 424.102 52.52 426.501 47.64C428.981 42.68 432.499 38.8 437.058 36C441.696 33.2 447.255 31.8 453.733 31.8C458.371 31.8 462.49 32.64 466.089 34.32C469.687 35.92 472.726 38.2 475.206 41.16C477.685 44.04 479.524 47.4 480.724 51.24C481.923 55 482.483 59.04 482.403 63.36C482.403 64.32 482.363 65.28 482.283 66.24C482.203 67.12 482.083 68.08 481.923 69.12H437.538C437.778 71.92 438.498 74.48 439.697 76.8C440.977 79.12 442.736 80.96 444.975 82.32C447.295 83.68 450.174 84.36 453.613 84.36C455.612 84.36 457.531 84.12 459.371 83.64C461.21 83.08 462.81 82.28 464.169 81.24C465.609 80.2 466.568 78.88 467.048 77.28H481.684C480.644 81.84 478.725 85.56 475.925 88.44C473.126 91.32 469.767 93.44 465.849 94.8C462.01 96.16 457.931 96.84 453.613 96.84ZM437.778 58.2H468.248C468.248 55.56 467.648 53.16 466.448 51C465.249 48.84 463.529 47.16 461.29 45.96C459.131 44.68 456.492 44.04 453.373 44.04C450.014 44.04 447.215 44.72 444.975 46.08C442.736 47.44 441.017 49.2 439.817 51.36C438.617 53.52 437.938 55.8 437.778 58.2Z" fill="white"/>
<path d="M488.188 96V32.76H502.823V58.08H512.9L529.334 32.76H545.889L525.616 62.64L546.609 96H529.694L513.979 71.04H502.823V96H488.188Z" fill="white"/>
<path d="M563.372 96V45.72H542.498V32.76H599V45.72H578.007V96H563.372Z" fill="white"/>
</svg>
