<svg width="650" height="650" viewBox="0 0 650 650" fill="none" xmlns="http://www.w3.org/2000/svg">
<mask id="mask0_78_22" style="mask-type:luminance" maskUnits="userSpaceOnUse" x="0" y="0" width="650" height="650">
<path d="M650 0H0V650H650V0Z" fill="white"/>
</mask>
<g mask="url(#mask0_78_22)">
<path fill-rule="evenodd" clip-rule="evenodd" d="M344.742 17.2661C388.414 17.9009 393.555 18.3452 413.487 23.5503C425.357 26.5972 444.273 32.7544 455.572 37.1343C466.871 41.5777 484.39 49.8931 494.547 55.6697C504.703 61.446 518.096 69.9519 524.316 74.5222C530.537 79.0925 545.584 92.6765 557.832 104.61C570.02 116.544 585 132.794 591.033 140.665C597.061 148.599 608.045 166.563 615.408 180.719C622.771 194.81 632.039 216.075 635.974 227.882C639.91 239.752 644.795 258.668 646.765 269.967C649.177 283.995 650.32 301.514 650.32 325.382C650.32 353.438 649.431 364.293 645.877 380.797C643.465 392.096 639.082 408.726 636.101 417.74C633.181 426.754 626.199 443.829 620.547 455.699C614.9 467.569 604.424 486.041 597.381 496.768C589.89 508.067 575.418 525.332 563.103 537.84C551.357 549.773 533.457 565.642 523.301 573.26C513.145 580.811 494.229 592.491 481.216 599.158C468.267 605.821 449.288 614.2 439.131 617.754C428.975 621.248 411.456 626.133 400.157 628.611C383.018 632.293 372.798 632.989 338.585 633.055C300.816 633.055 295.547 632.608 272.886 627.276C259.366 624.168 240.45 618.516 230.865 614.834C221.28 611.153 205.538 604.17 195.953 599.412C186.368 594.588 171.578 586.016 163.135 580.369C154.629 574.717 141.363 564.942 133.555 558.594C125.748 552.246 112.1 539.17 103.277 529.588C94.3902 520 80.6158 501.973 72.6178 489.595C64.6197 477.154 49.3853 452.208 38.7211 434.18C28.0571 416.09 17.0756 395.333 14.3461 387.97C11.6166 380.67 7.23676 367.276 4.63422 358.199C0.381304 343.345 -0.0630372 337.633 0.00043933 296.627C0.0639159 257.208 0.63521 248.638 4.82465 228.897C7.49067 216.519 12.3784 198.048 15.8061 187.891C19.1704 177.735 27.8666 156.47 35.1665 140.665C42.4028 124.859 52.2418 104.61 57.0025 95.6599C61.7633 86.6462 66.5875 79.029 67.6666 78.5847C68.8092 78.2039 79.6637 84.4246 113.878 106.832L125.367 97.0564C131.651 91.7244 142.505 82.9011 149.424 77.5056C156.407 72.1736 169.483 63.4138 178.497 58.0818C187.51 52.7498 202.999 44.9419 212.901 40.689C222.74 36.4361 238.926 30.5962 248.829 27.7398C258.668 24.8199 273.712 21.2017 282.154 19.5513C293.389 17.4566 310.211 16.8218 344.742 17.2661ZM273.965 61.8904C264.317 64.239 247.242 69.7615 236.006 74.1414C224.708 78.5212 208.077 86.4558 199.063 91.7244C189.986 96.9929 177.545 105.245 171.324 110.133C165.103 115.02 156.788 121.749 152.852 125.177L145.679 131.334C161.548 144.6 178.687 161.041 193.921 176.402C211.06 193.668 226.675 211.759 234.864 223.819C242.227 234.547 251.685 251.368 255.938 261.27C260.191 271.109 265.523 286.344 267.808 295.103C270.093 303.863 271.934 313.067 271.934 315.606C271.871 318.145 272.569 320.24 273.458 320.24C274.283 320.24 276.124 314.273 277.52 306.91C278.917 299.61 281.963 287.803 284.312 280.758C286.597 273.712 292.628 259.62 297.579 249.464C302.593 239.307 311.163 225.406 316.622 218.678C322.081 211.886 333.38 200.968 341.758 194.366C350.201 187.764 364.42 178.751 373.497 174.434C382.51 170.054 395.904 165.103 403.267 163.389C410.948 161.549 426.119 160.216 439.131 160.216C452.271 160.216 467.315 161.549 475.059 163.389C482.422 165.103 494.864 169.61 502.798 173.419C510.672 177.164 523.113 185.035 530.476 190.811C537.84 196.651 547.168 205.284 551.297 210.045C555.42 214.805 562.148 224.2 566.277 230.992C570.34 237.72 576.621 252.066 580.242 262.794C586.27 280.948 586.716 284.185 586.65 310.02C586.523 335.094 586.016 339.029 580.938 352.042C577.891 359.976 572.879 370.958 569.832 376.417C566.846 381.939 556.502 394 546.914 403.267C531.553 417.994 527.363 420.85 512.002 426.817C497.339 432.467 490.992 433.736 472.012 434.625C454.112 435.513 446.876 435.006 437.1 432.149C430.308 430.181 419.263 425.802 412.471 422.31C405.679 418.883 395.523 411.329 389.874 405.489C384.224 399.713 377.178 390.382 374.131 384.796C371.085 379.21 367.149 369.117 365.372 362.325C363.594 355.533 362.198 344.932 362.198 338.712C362.198 332.491 363.594 321.89 365.372 315.098C367.149 308.37 371.085 298.214 374.131 292.564C377.178 286.915 383.78 278.092 388.858 273.013C394.825 266.983 402.442 262.032 410.44 258.985C417.169 256.383 428.721 253.717 436.085 253.082C446.241 252.193 452.842 252.955 463.76 256.192C474.234 259.303 480.836 262.857 488.072 269.332C493.594 274.22 500.196 282.789 502.862 288.438C505.527 294.088 508.32 303.292 509.082 308.941C509.971 315.797 509.275 323.731 507.051 332.554C505.147 340.045 501.085 349.058 497.911 353.121C494.737 357.056 488.072 362.515 483.121 365.245C477.725 368.165 469.473 370.513 462.745 370.958C454.556 371.593 449.478 370.767 444.337 368.101C440.401 366.07 435.069 361.373 432.53 357.691C428.912 352.55 428.34 350.138 429.927 346.964C431.387 343.917 433.228 343.155 436.592 344.107C439.131 344.805 445.098 345.758 449.922 346.138C457.222 346.837 459.571 346.012 464.522 341.314C467.759 338.204 471.568 331.475 473.091 326.397C475.25 318.844 475.25 315.67 473.091 308.941C471.631 304.434 467.569 298.214 464.014 295.04C460.269 291.676 454.239 288.883 449.415 288.184C444.908 287.55 437.291 288.057 432.466 289.263C427.579 290.533 420.025 294.913 415.201 299.229C410.567 303.419 405.045 310.592 402.95 315.098C400.474 320.621 399.205 328.365 399.141 338.712C399.078 351.407 399.966 355.914 404.41 364.356C407.33 370.006 412.217 377.242 415.201 380.416C418.248 383.59 423.897 388.16 427.833 390.572C431.832 392.984 439.639 396.095 445.289 397.554C450.938 399.014 460.396 400.284 466.363 400.284C472.266 400.284 482.867 398.316 489.913 395.968C497.022 393.619 506.482 389.112 510.986 386.002C515.496 382.891 522.859 376.29 527.302 371.339C531.746 366.387 537.966 356.803 541.201 350.011C544.375 343.219 548.057 330.777 549.392 322.335C551.231 310.401 551.231 303.165 549.326 290.47C547.742 280.25 544.187 268.697 539.871 259.683C536.123 251.812 528.064 239.879 521.97 233.214C515.938 226.485 505.466 217.471 498.672 213.092C491.88 208.712 480.328 203.253 473.028 200.968C463.951 198.111 453.795 196.778 441.226 196.715C426.246 196.651 419.39 197.794 405.298 202.491C394.825 205.919 381.685 212.393 372.545 218.614C363.658 224.581 352.613 234.483 346.265 242.291C340.171 249.591 331.666 262.984 327.222 271.998C321.89 282.852 317.764 295.548 315.035 309.449C312.75 321.065 310.909 336.046 310.909 342.838C310.909 349.63 312.305 362.325 314.083 371.021C315.86 379.781 320.303 394.317 323.985 403.394C327.603 412.408 334.205 425.294 338.712 432.022C343.155 438.751 351.407 448.844 357.056 454.493C362.706 460.079 373.306 468.521 380.67 473.219C387.969 477.916 400.03 484.2 407.33 487.056C414.693 489.976 427.134 493.468 435.069 494.864C443.638 496.324 458.428 496.895 472.012 496.261C484.835 495.626 498.99 493.658 504.83 491.69C510.479 489.786 522.478 484.644 531.492 480.201C540.506 475.821 555.166 466.427 564.053 459.317C572.879 452.271 582.842 442.305 586.209 437.227C589.509 432.149 594.841 419.708 598.076 409.552C601.316 399.395 605.633 383.209 607.725 373.624C610.584 360.484 611.472 347.789 611.406 322.335C611.345 297.579 610.264 283.741 607.537 270.982C605.506 261.397 601.316 246.163 598.269 237.149C595.222 228.136 587.986 211.505 582.207 200.206C576.433 188.907 565.83 171.832 558.594 162.247C551.357 152.662 538.601 138.316 530.283 130.382C521.904 122.447 508.133 111.021 499.688 104.991C491.246 99.0242 475.313 89.5662 464.268 84.0437C453.287 78.5212 436.212 71.2849 426.309 67.9207C416.47 64.6199 400.03 60.5574 389.874 58.8435C379.717 57.1296 361.754 55.3523 349.883 54.781C338.013 54.2732 319.986 54.654 309.83 55.6697C299.673 56.6853 283.55 59.4783 273.965 61.8904ZM125.303 217.662C136.158 253.209 156.915 318.78 171.451 363.341C185.923 407.965 199.507 449.224 201.539 455.128C203.506 461.031 206.109 465.919 207.252 466.046C208.394 466.236 212.837 455.382 217.09 442.052C221.407 428.658 227.247 408.98 230.167 398.253C234.039 383.844 235.626 371.783 236.387 352.042C237.149 331.92 236.578 321.954 234.102 311.544C232.325 303.927 228.135 290.533 224.771 281.773C221.407 273.013 212.901 257.081 205.919 246.353C198.301 234.864 183.829 217.345 170.435 203.57C157.93 190.748 138.697 172.974 127.715 164.024C116.734 155.137 107.276 147.838 106.705 147.838C106.133 147.838 105.626 149.044 105.626 150.44C105.626 151.837 114.512 182.052 125.303 217.662ZM47.1635 210.426C44.434 220.645 40.8159 236.768 39.1655 246.353C37.4516 255.938 35.8012 268.761 35.4838 274.854L34.8491 285.899C72.9986 302.403 90.1373 310.909 97.4371 315.352C104.8 319.859 113.306 325.128 116.417 327.032C119.527 328.936 122.066 330.269 122.129 330.015C122.129 329.698 113.814 302.213 103.594 268.951C93.3746 235.626 81.8854 196.651 78.0768 182.242C74.2047 167.833 70.1422 156.09 68.9996 156.09C67.9205 156.09 63.6676 164.151 59.5416 174.053C55.4156 183.892 49.8932 200.269 47.1635 210.426ZM41.3237 353.121C43.101 360.421 48.4967 374.766 53.3209 384.923C58.1451 395.079 67.6031 410.758 74.2682 419.771C80.9332 428.848 91.4703 440.719 97.5641 446.178C103.721 451.7 114.766 459.635 122.066 463.887C129.429 468.204 143.458 475.694 153.296 480.645C163.135 485.533 171.705 489.088 172.339 488.516C173.038 487.945 168.785 472.266 162.945 453.668C157.105 435.006 150.186 414.947 147.457 409.044C144.791 403.077 137.745 393.048 131.841 386.7C125.875 380.416 114.131 369.942 105.626 363.595C97.1832 357.183 80.108 346.773 67.6666 340.426C55.2887 334.141 43.1645 328.302 40.8159 327.54C36.8803 326.27 36.5629 326.842 37.3247 332.935C37.769 336.68 39.5463 345.758 41.3237 353.121ZM270.22 382.511C267.872 395.142 259.81 424.786 252.383 448.526C244.957 472.203 237.466 497.149 235.689 503.941C233.912 510.799 232.833 521.209 233.277 527.557C233.721 533.838 236.324 543.36 239.117 549.073C241.846 554.724 249.21 564.5 255.43 570.721C263.174 578.526 270.665 583.731 279.044 587.098C290.342 591.668 294.786 592.11 332.427 592.81C365.308 593.445 376.924 592.871 390.953 590.078C400.538 588.174 416.216 583.797 425.801 580.43C435.386 577.068 449.732 571.355 457.603 567.735C465.538 564.119 480.328 555.547 490.484 548.631C500.64 541.709 511.24 533.65 514.033 530.73C516.892 527.744 518.731 525.398 518.162 525.459C517.588 525.525 512.068 526.983 505.847 528.699C499.625 530.41 482.994 532.381 468.902 533.076C449.034 533.965 439.322 533.457 425.801 530.73C416.216 528.76 400.982 524.317 391.968 520.828C382.891 517.334 367.657 509.209 358.072 502.799C348.487 496.324 335.22 485.216 328.555 478.043C321.89 470.806 313.892 461.221 310.782 456.715C307.671 452.208 301.514 441.163 297.007 432.086C292.501 423.072 287.232 410.631 285.201 404.41C283.17 398.189 279.932 385.557 278.028 376.353L274.537 359.659L270.22 382.511ZM182.623 547.041C191.636 553.201 199.317 558.025 199.634 557.771C200.015 557.451 198.619 552.439 196.588 546.473L192.842 535.742C159.644 522.224 148.98 517.969 147.837 517.654C146.631 517.273 150.25 521.27 155.899 526.475C161.548 531.68 173.546 540.948 182.623 547.041Z" fill="white" fill-opacity="0.85"/>
</g>
</svg>
