<svg width="1149" height="373" viewBox="0 0 1149 373" fill="none" xmlns="http://www.w3.org/2000/svg">
<path d="M168.96 0L293.888 322.048C299.008 335.019 304.811 343.723 311.296 348.16C317.781 352.256 323.755 354.475 329.216 354.816V365.056C322.389 364.373 314.027 364.032 304.128 364.032C294.229 363.691 284.331 363.52 274.432 363.52C261.12 363.52 248.661 363.691 237.056 364.032C225.451 364.032 216.064 364.373 208.896 365.056V354.816C226.304 354.133 237.397 351.232 242.176 346.112C246.955 340.651 245.931 329.216 239.104 311.808L143.872 57.344L152.064 50.688L62.976 282.112C57.5147 295.765 54.272 307.371 53.248 316.928C52.224 326.144 53.0773 333.483 55.808 338.944C58.88 344.405 63.8293 348.331 70.656 350.72C77.824 353.109 86.6987 354.475 97.28 354.816V365.056C87.7227 364.373 77.6533 364.032 67.072 364.032C56.832 363.691 47.2747 363.52 38.4 363.52C29.8667 363.52 22.528 363.691 16.384 364.032C10.5813 364.032 5.11998 364.373 -1.57356e-05 365.056V354.816C6.82665 353.109 13.824 349.184 20.992 343.04C28.16 336.555 34.6453 325.632 40.448 310.272L160.768 0C162.133 0 163.499 0 164.864 0C166.229 0 167.595 0 168.96 0ZM231.424 217.6V227.84H78.848L83.968 217.6H231.424ZM600.004 2.56003V12.8C588.399 13.1413 579.524 14.848 573.38 17.92C567.577 20.992 563.652 25.9413 561.604 32.768C559.556 39.5947 558.532 49.3227 558.532 61.952V216.064C558.532 239.957 556.996 260.779 553.924 278.528C550.852 296.277 545.391 311.637 537.54 324.608C529.007 338.944 516.548 350.549 500.164 359.424C483.78 367.957 465.007 372.224 443.844 372.224C427.46 372.224 411.759 370.176 396.74 366.08C382.063 362.325 369.092 355.157 357.828 344.576C347.929 335.019 340.079 324.949 334.276 314.368C328.815 303.787 325.06 290.816 323.012 275.456C320.964 260.096 319.94 240.811 319.94 217.6V56.832C319.94 44.2027 318.916 34.9867 316.868 29.184C314.82 23.04 310.724 18.944 304.58 16.896C298.777 14.5067 290.073 13.1413 278.468 12.8V2.56003C285.636 2.90136 295.023 3.24269 306.628 3.58401C318.233 3.92534 330.692 4.09601 344.004 4.09601C355.951 4.09601 367.727 3.92534 379.332 3.58401C391.279 3.24269 401.177 2.90136 409.028 2.56003V12.8C397.423 13.1413 388.548 14.5067 382.404 16.896C376.601 18.944 372.676 23.04 370.628 29.184C368.58 34.9867 367.556 44.2027 367.556 56.832V226.304C367.556 243.712 368.409 260.267 370.116 275.968C371.823 291.328 375.236 304.981 380.356 316.928C385.817 328.533 394.009 337.749 404.932 344.576C415.855 351.061 430.361 354.304 448.452 354.304C474.393 354.304 494.361 348.672 508.356 337.408C522.692 325.803 532.591 309.931 538.052 289.792C543.855 269.653 546.756 246.955 546.756 221.696V61.952C546.756 49.3227 545.22 39.5947 542.148 32.768C539.417 25.9413 534.639 20.992 527.812 17.92C520.985 14.848 511.769 13.1413 500.164 12.8V2.56003C506.308 2.90136 514.329 3.24269 524.228 3.58401C534.468 3.92534 543.855 4.09601 552.388 4.09601C561.263 4.09601 569.967 3.92534 578.5 3.58401C587.375 3.24269 594.543 2.90136 600.004 2.56003ZM573.708 2.56003C580.876 2.90136 590.263 3.24269 601.868 3.58401C613.473 3.92534 624.908 4.09601 636.172 4.09601C652.215 4.09601 667.575 3.92534 682.252 3.58401C696.929 3.24269 707.34 3.07202 713.484 3.07202C741.132 3.07202 764.001 6.99736 782.092 14.848C800.524 22.6987 814.177 33.4507 823.052 47.104C832.268 60.416 836.876 75.4347 836.876 92.16C836.876 102.4 834.828 113.323 830.732 124.928C826.636 136.533 819.468 147.456 809.228 157.696C799.329 167.936 785.676 176.469 768.268 183.296C750.86 189.781 728.844 193.024 702.22 193.024H653.068V182.784H697.1C721.335 182.784 739.767 179.029 752.396 171.52C765.367 163.669 774.071 153.429 778.508 140.8C783.287 127.829 785.676 113.493 785.676 97.792C785.676 70.8267 779.191 50.0054 766.22 35.328C753.591 20.3093 731.745 12.8 700.684 12.8C684.983 12.8 674.743 15.7014 669.964 21.504C665.185 27.3067 662.796 39.0827 662.796 56.832V310.784C662.796 323.072 663.82 332.288 665.868 338.432C667.916 344.576 671.841 348.672 677.644 350.72C683.788 352.768 692.663 354.133 704.268 354.816V365.056C696.417 364.373 686.519 364.032 674.572 364.032C662.967 363.691 651.191 363.52 639.244 363.52C625.932 363.52 613.473 363.691 601.868 364.032C590.263 364.032 580.876 364.373 573.708 365.056V354.816C585.313 354.133 594.017 352.768 599.82 350.72C605.964 348.672 610.06 344.576 612.108 338.432C614.156 332.288 615.18 323.072 615.18 310.784V56.832C615.18 44.2027 614.156 34.9867 612.108 29.184C610.06 23.04 605.964 18.944 599.82 16.896C594.017 14.5067 585.313 13.1413 573.708 12.8V2.56003ZM655.116 184.32C673.548 185.003 688.055 185.856 698.636 186.88C709.217 187.563 717.751 188.245 724.236 188.928C731.063 189.611 737.548 190.464 743.692 191.488C766.561 195.243 782.945 202.24 792.844 212.48C803.084 222.379 810.593 237.909 815.372 259.072L828.172 311.296C831.585 326.315 834.999 337.237 838.412 344.064C842.167 350.549 847.799 353.621 855.308 353.28C861.111 352.939 865.889 351.061 869.644 347.648C873.74 344.235 878.007 339.627 882.444 333.824L890.124 339.456C882.956 350.037 875.447 358.229 867.596 364.032C860.087 369.493 849.335 372.224 835.34 372.224C822.711 372.224 811.617 368.469 802.06 360.96C792.503 353.451 785.335 338.773 780.556 316.928L769.292 265.728C766.22 251.051 762.636 238.421 758.54 227.84C754.785 216.917 749.324 208.384 742.156 202.24C735.329 196.096 725.089 193.024 711.436 193.024H656.14L655.116 184.32ZM988.14 0L1113.07 322.048C1118.19 335.019 1123.99 343.723 1130.48 348.16C1136.96 352.256 1142.93 354.475 1148.4 354.816V365.056C1141.57 364.373 1133.21 364.032 1123.31 364.032C1113.41 363.691 1103.51 363.52 1093.61 363.52C1080.3 363.52 1067.84 363.691 1056.24 364.032C1044.63 364.032 1035.24 364.373 1028.08 365.056V354.816C1045.48 354.133 1056.58 351.232 1061.36 346.112C1066.13 340.651 1065.11 329.216 1058.28 311.808L963.052 57.344L971.244 50.688L882.156 282.112C876.695 295.765 873.452 307.371 872.428 316.928C871.404 326.144 872.257 333.483 874.988 338.944C878.06 344.405 883.009 348.331 889.836 350.72C897.004 353.109 905.879 354.475 916.46 354.816V365.056C906.903 364.373 896.833 364.032 886.252 364.032C876.012 363.691 866.455 363.52 857.58 363.52C849.047 363.52 841.708 363.691 835.564 364.032C829.761 364.032 824.3 364.373 819.18 365.056V354.816C826.007 353.109 833.004 349.184 840.172 343.04C847.34 336.555 853.825 325.632 859.628 310.272L979.948 0C981.313 0 982.679 0 984.044 0C985.409 0 986.775 0 988.14 0ZM1050.6 217.6V227.84H898.028L903.148 217.6H1050.6Z" fill="#A38961"/>
</svg>
