<svg width="101" height="130" viewBox="0 0 101 130" fill="none" xmlns="http://www.w3.org/2000/svg">
<path opacity="0.99" fill-rule="evenodd" clip-rule="evenodd" d="M67.3204 0V8.56271L59.6559 8.38307L59.5661 4.6556C59.5214 2.61971 59.5661 0.73352 59.6559 0.464061C59.776 0.119758 60.7788 0 67.3204 0ZM39.3421 2.52989C41.2882 2.51492 43.9377 2.7245 45.2104 2.99395C46.4976 3.24844 48.6535 3.99693 50.0306 4.6556C51.4379 5.31428 53.2339 6.54179 54.1473 7.45493C55.3148 8.62258 55.8986 9.58065 56.1979 10.7782C56.4377 11.7213 56.6174 13.0387 56.6174 14.9697H65.1799V26.736H56.9763V36.0023H65.1799V52.4091H73.7424V59.4447C73.7424 63.3221 73.8625 67.3341 74.2666 70.2381L81.2277 70.2232V79.8485H73.3835V88.0521H82.2905L82.0806 89.9235C81.9758 90.9561 81.5121 93.3964 81.048 95.3572C80.5839 97.3185 79.4908 100.926 78.6226 103.381C77.7544 105.836 76.1078 109.923 74.97 112.468C73.5632 115.612 72.8895 117.572 72.8895 118.53C72.8895 119.309 73.0991 121.076 73.3682 122.453C73.8323 124.773 73.8174 125.042 73.1736 126.345C72.7997 127.123 72.0362 128.081 71.4823 128.485C70.494 129.219 70.135 129.234 41.5427 129.324C18.7886 129.399 12.3816 129.324 11.5582 128.964C10.9894 128.71 10.1511 128.066 9.68701 127.527C9.07325 126.809 8.84873 126.105 8.84873 124.863C8.84873 123.905 9.17805 122.378 9.59721 121.39C10.0762 120.237 10.2708 119.279 10.1062 118.71C9.97145 118.216 8.93853 115.566 7.78587 112.827C6.64816 110.088 5.0464 105.911 4.22305 103.561C3.41469 101.21 2.29195 97.4381 1.75305 95.1775C1.19916 92.9323 0.540493 89.3993 0.300978 87.3338C0.0165526 85.0131 -0.0732668 81.78 0.0614609 78.7857C0.181219 75.9566 0.570432 72.6481 1.00455 70.7622C1.39377 68.9956 2.15723 66.2712 2.6662 64.6992C3.17517 63.1275 4.37273 60.2533 5.31585 58.2921C6.27392 56.3312 8.05532 52.9631 9.28284 50.7923C10.5253 48.6369 11.9175 45.7478 12.3965 44.3852C13.16 42.1548 13.2798 41.0171 13.5043 33.8616C13.654 29.4605 13.9384 25.0444 14.133 24.0564C14.3426 23.0834 14.9414 21.0774 15.4803 19.6104C16.0192 18.1434 16.7827 16.3769 17.1869 15.6883C17.591 14.9997 18.5042 13.6374 19.2227 12.6494C19.9563 11.6764 21.3185 10.1345 22.2766 9.23634C23.2346 8.3232 24.8065 7.05076 25.7945 6.39208C26.7675 5.74839 28.2944 4.89511 29.1776 4.50588C30.0609 4.11668 31.9021 3.51789 33.2794 3.17359C34.7613 2.79935 37.2014 2.54486 39.3421 2.52989ZM47.351 52.7536H54.8358V43.4872H47.351V52.7536ZM56.5573 66.1814L56.6174 70.2232H64.8205V61.6755C58.8328 61.6755 56.9614 61.7803 56.7971 61.8999C56.6323 62.0345 56.5275 63.9659 56.5573 66.1814ZM55.9135 88.4115H63.3983V79.8485H55.9135V88.4115ZM63.3983 106.6H70.8836V98.7556H63.3983V106.6ZM84.7904 9.62557V17.829H76.9462L76.8862 13.9668C76.8564 11.8411 76.9611 9.99981 77.1259 9.86508C77.2903 9.74531 79.0718 9.62557 84.7904 9.62557ZM73.7424 27.4546V35.658H65.5393L65.4792 31.7958C65.4494 29.6701 65.5542 27.8288 65.719 27.6941C65.8833 27.5593 67.7548 27.4546 73.7424 27.4546ZM92.9787 27.8138V35.658H84.7904L84.7304 31.9754C84.7006 29.9395 84.8053 28.1731 84.9701 28.0533C85.1345 27.9186 87.0059 27.8138 92.9787 27.8138ZM75.1646 43.1427H83.0088V51.3463H75.1646V43.1427ZM92.6495 49.5349L100.299 49.7295V57.2143L92.6346 57.394L92.6495 49.5349ZM84.0866 61.331H91.5565V69.5197L83.892 69.34L83.7723 66.4956C83.7123 64.924 83.7574 63.1275 83.8771 62.4837L84.0866 61.331Z" fill="#fff"/>
</svg>
